%TF.GenerationSoftware,KiCad,Pcbnew,(7.0.0)*%
%TF.CreationDate,2023-02-26T22:34:47+01:00*%
%TF.ProjectId,Prj_1_LED_torch,50726a5f-315f-44c4-9544-5f746f726368,0.1*%
%TF.SameCoordinates,Original*%
%TF.FileFunction,Copper,L2,Bot*%
%TF.FilePolarity,Positive*%
%FSLAX46Y46*%
G04 Gerber Fmt 4.6, Leading zero omitted, Abs format (unit mm)*
G04 Created by KiCad (PCBNEW (7.0.0)) date 2023-02-26 22:34:47*
%MOMM*%
%LPD*%
G01*
G04 APERTURE LIST*
%TA.AperFunction,ComponentPad*%
%ADD10C,6.400000*%
%TD*%
%TA.AperFunction,ComponentPad*%
%ADD11C,2.000000*%
%TD*%
%TA.AperFunction,ComponentPad*%
%ADD12R,1.800000X1.800000*%
%TD*%
%TA.AperFunction,ComponentPad*%
%ADD13C,1.800000*%
%TD*%
%TA.AperFunction,ComponentPad*%
%ADD14C,1.600000*%
%TD*%
%TA.AperFunction,ComponentPad*%
%ADD15O,1.600000X1.600000*%
%TD*%
G04 APERTURE END LIST*
D10*
%TO.P,MH_1,1*%
%TO.N,N/C*%
X123190000Y-146050000D03*
%TD*%
%TO.P,MH_2,1*%
%TO.N,N/C*%
X140970000Y-146050000D03*
%TD*%
D11*
%TO.P,SW1,1,A*%
%TO.N,/bat_pos*%
X128830000Y-143800000D03*
X135330000Y-143800000D03*
%TO.P,SW1,2,B*%
%TO.N,Net-(SW1A-B)*%
X128830000Y-148300000D03*
X135330000Y-148300000D03*
%TD*%
D12*
%TO.P,D1,1,K*%
%TO.N,/LED_Cathode*%
X108659999Y-147319999D03*
D13*
%TO.P,D1,2,A*%
%TO.N,/LED_Anode*%
X108660000Y-144780000D03*
%TD*%
D14*
%TO.P,R1,1*%
%TO.N,Net-(SW1A-B)*%
X116280000Y-151130000D03*
D15*
%TO.P,R1,2*%
%TO.N,/LED_Anode*%
X116279999Y-140969999D03*
%TD*%
%TA.AperFunction,Conductor*%
%TO.N,/LED_Cathode*%
G36*
X161455766Y-133857192D02*
G01*
X161817561Y-133867326D01*
X161821048Y-133867475D01*
X162145210Y-133886236D01*
X162148344Y-133886459D01*
X162509141Y-133916839D01*
X162512893Y-133917215D01*
X162835234Y-133954651D01*
X162838084Y-133955017D01*
X163196819Y-134005574D01*
X163200832Y-134006208D01*
X163520152Y-134062150D01*
X163522825Y-134062650D01*
X163878409Y-134133256D01*
X163882645Y-134134174D01*
X164197682Y-134208351D01*
X164200141Y-134208957D01*
X164551688Y-134299476D01*
X164556044Y-134300684D01*
X164865862Y-134392817D01*
X164867874Y-134393437D01*
X165214487Y-134503710D01*
X165218956Y-134505228D01*
X165522131Y-134614818D01*
X165524015Y-134615517D01*
X165605076Y-134646402D01*
X165864567Y-134745269D01*
X165869239Y-134747158D01*
X166164565Y-134873648D01*
X166166185Y-134874357D01*
X166499973Y-135023428D01*
X166504693Y-135025657D01*
X166790893Y-135168340D01*
X166792388Y-135169098D01*
X167118528Y-135337248D01*
X167123338Y-135339864D01*
X167399115Y-135497870D01*
X167400372Y-135498600D01*
X167718310Y-135685754D01*
X167723121Y-135688737D01*
X167987027Y-135860925D01*
X167988012Y-135861574D01*
X168297292Y-136067776D01*
X168302114Y-136071161D01*
X168551072Y-136254943D01*
X168552434Y-136255948D01*
X168553242Y-136256550D01*
X168853669Y-136482123D01*
X168858466Y-136485915D01*
X169092741Y-136680740D01*
X169093291Y-136681201D01*
X169385589Y-136927420D01*
X169390352Y-136931647D01*
X169604450Y-137131714D01*
X169604858Y-137132097D01*
X169891379Y-137402273D01*
X169896064Y-137406933D01*
X170079074Y-137598923D01*
X170079259Y-137599211D01*
X170079306Y-137599167D01*
X170369374Y-137905124D01*
X170373935Y-137910210D01*
X170456673Y-138007716D01*
X170808968Y-138423654D01*
X170814567Y-138430264D01*
X170814616Y-138430383D01*
X170814689Y-138430413D01*
X170814921Y-138430703D01*
X170815175Y-138430500D01*
X177795126Y-138430500D01*
X177804853Y-138430882D01*
X177807530Y-138431092D01*
X177856632Y-138434957D01*
X177857244Y-138435008D01*
X177997579Y-138447285D01*
X178015698Y-138450236D01*
X178094494Y-138469153D01*
X178097476Y-138469910D01*
X178202793Y-138498130D01*
X178218150Y-138503343D01*
X178246451Y-138515065D01*
X178298496Y-138536622D01*
X178303376Y-138538770D01*
X178396788Y-138582329D01*
X178409135Y-138588963D01*
X178485163Y-138635553D01*
X178491477Y-138639694D01*
X178574166Y-138697594D01*
X178583551Y-138704860D01*
X178651975Y-138763299D01*
X178659124Y-138769908D01*
X178730090Y-138840874D01*
X178736699Y-138848023D01*
X178795135Y-138916442D01*
X178802410Y-138925839D01*
X178835869Y-138973624D01*
X178860299Y-139008513D01*
X178864451Y-139014845D01*
X178911028Y-139090852D01*
X178917676Y-139103224D01*
X178932221Y-139134414D01*
X178961208Y-139196577D01*
X178963388Y-139201531D01*
X178996655Y-139281848D01*
X179001868Y-139297205D01*
X179030067Y-139402442D01*
X179030866Y-139405589D01*
X179049760Y-139484290D01*
X179052714Y-139502430D01*
X179064967Y-139642487D01*
X179065057Y-139643562D01*
X179069118Y-139695145D01*
X179069500Y-139704877D01*
X179069500Y-152395123D01*
X179069117Y-152404855D01*
X179065056Y-152456436D01*
X179064967Y-152457511D01*
X179052714Y-152597568D01*
X179049760Y-152615708D01*
X179030866Y-152694409D01*
X179030067Y-152697556D01*
X179001868Y-152802793D01*
X178996655Y-152818150D01*
X178963388Y-152898467D01*
X178961208Y-152903421D01*
X178917680Y-152996767D01*
X178911025Y-153009153D01*
X178864451Y-153085153D01*
X178860299Y-153091485D01*
X178802414Y-153174154D01*
X178795129Y-153183563D01*
X178736699Y-153251975D01*
X178730090Y-153259124D01*
X178659124Y-153330090D01*
X178651975Y-153336699D01*
X178583563Y-153395129D01*
X178574154Y-153402414D01*
X178491485Y-153460299D01*
X178485153Y-153464451D01*
X178409153Y-153511025D01*
X178396767Y-153517680D01*
X178303421Y-153561208D01*
X178298467Y-153563388D01*
X178218150Y-153596655D01*
X178202793Y-153601868D01*
X178097556Y-153630067D01*
X178094409Y-153630866D01*
X178015708Y-153649760D01*
X177997568Y-153652714D01*
X177857511Y-153664967D01*
X177856436Y-153665056D01*
X177804855Y-153669117D01*
X177795123Y-153669500D01*
X170815175Y-153669500D01*
X170814921Y-153669297D01*
X170814689Y-153669586D01*
X170814616Y-153669617D01*
X170814567Y-153669735D01*
X170809156Y-153676123D01*
X170809155Y-153676124D01*
X170456586Y-154092387D01*
X170456513Y-154092473D01*
X170373927Y-154189798D01*
X170369366Y-154194882D01*
X170079306Y-154500831D01*
X170079074Y-154501075D01*
X169896064Y-154693065D01*
X169891379Y-154697725D01*
X169604858Y-154967901D01*
X169604450Y-154968284D01*
X169390352Y-155168351D01*
X169385577Y-155172588D01*
X169093342Y-155418755D01*
X169092741Y-155419258D01*
X168858484Y-155614069D01*
X168853651Y-155617889D01*
X168553242Y-155843448D01*
X168552434Y-155844050D01*
X168302132Y-156028825D01*
X168297273Y-156032235D01*
X167988055Y-156238395D01*
X167987027Y-156239073D01*
X167723142Y-156411247D01*
X167718287Y-156414258D01*
X167400374Y-156601397D01*
X167399115Y-156602128D01*
X167123338Y-156760134D01*
X167118517Y-156762756D01*
X166792391Y-156930898D01*
X166790893Y-156931658D01*
X166504713Y-157074331D01*
X166499953Y-157076579D01*
X166166248Y-157225613D01*
X166164504Y-157226376D01*
X165869239Y-157352840D01*
X165864567Y-157354729D01*
X165524038Y-157484472D01*
X165522042Y-157485213D01*
X165219000Y-157594755D01*
X165214440Y-157596304D01*
X164867994Y-157706524D01*
X164865746Y-157707216D01*
X164556078Y-157799304D01*
X164551653Y-157800531D01*
X164200162Y-157891036D01*
X164197661Y-157891652D01*
X163882678Y-157965816D01*
X163878409Y-157966742D01*
X163522825Y-158037348D01*
X163520072Y-158037863D01*
X163200867Y-158093784D01*
X163196774Y-158094431D01*
X162838158Y-158144971D01*
X162835159Y-158145356D01*
X162512966Y-158182775D01*
X162509065Y-158183166D01*
X162148396Y-158213535D01*
X162145157Y-158213765D01*
X161821149Y-158232518D01*
X161817456Y-158232676D01*
X161455767Y-158242807D01*
X161452295Y-158242856D01*
X161127705Y-158242856D01*
X161124233Y-158242807D01*
X160762542Y-158232676D01*
X160758849Y-158232518D01*
X160434841Y-158213765D01*
X160431602Y-158213535D01*
X160070933Y-158183166D01*
X160067032Y-158182775D01*
X159744839Y-158145356D01*
X159741840Y-158144971D01*
X159383224Y-158094431D01*
X159379131Y-158093784D01*
X159059926Y-158037863D01*
X159057173Y-158037348D01*
X158701589Y-157966742D01*
X158697320Y-157965816D01*
X158382337Y-157891652D01*
X158379836Y-157891036D01*
X158028345Y-157800531D01*
X158023920Y-157799304D01*
X157714252Y-157707216D01*
X157712004Y-157706524D01*
X157365558Y-157596304D01*
X157360998Y-157594755D01*
X157057956Y-157485213D01*
X157055960Y-157484472D01*
X156715431Y-157354729D01*
X156710759Y-157352840D01*
X156415494Y-157226376D01*
X156413750Y-157225613D01*
X156080045Y-157076579D01*
X156075285Y-157074331D01*
X155789105Y-156931658D01*
X155787607Y-156930898D01*
X155461481Y-156762756D01*
X155456660Y-156760134D01*
X155180883Y-156602128D01*
X155179624Y-156601397D01*
X154861711Y-156414258D01*
X154856856Y-156411247D01*
X154592971Y-156239073D01*
X154591943Y-156238395D01*
X154282725Y-156032235D01*
X154277866Y-156028825D01*
X154027564Y-155844050D01*
X154026756Y-155843448D01*
X153726347Y-155617889D01*
X153721514Y-155614069D01*
X153487257Y-155419258D01*
X153486656Y-155418755D01*
X153194421Y-155172588D01*
X153189646Y-155168351D01*
X152975548Y-154968284D01*
X152975140Y-154967901D01*
X152688619Y-154697725D01*
X152683934Y-154693065D01*
X152500925Y-154501075D01*
X152500693Y-154500832D01*
X152210632Y-154194883D01*
X152206071Y-154189797D01*
X152123383Y-154092350D01*
X152123310Y-154092265D01*
X151770980Y-153676285D01*
X151770979Y-153676284D01*
X151765432Y-153669735D01*
X151765384Y-153669617D01*
X151765310Y-153669586D01*
X151765079Y-153669297D01*
X151764825Y-153669500D01*
X110492214Y-153669500D01*
X110487788Y-153669421D01*
X109950863Y-153650244D01*
X109942034Y-153649613D01*
X109558269Y-153608354D01*
X109557961Y-153608320D01*
X109404415Y-153591424D01*
X109395962Y-153590198D01*
X109058377Y-153529292D01*
X109057870Y-153529199D01*
X108863032Y-153493210D01*
X108854889Y-153491421D01*
X108540609Y-153411207D01*
X108539911Y-153411027D01*
X108330176Y-153356194D01*
X108322381Y-153353880D01*
X108024344Y-153254684D01*
X108023466Y-153254389D01*
X107808623Y-153181095D01*
X107801207Y-153178297D01*
X107516927Y-153060544D01*
X107515883Y-153060106D01*
X107301075Y-152968823D01*
X107294067Y-152965584D01*
X107022960Y-152829877D01*
X107021767Y-152829271D01*
X106810163Y-152720478D01*
X106803588Y-152716842D01*
X106545641Y-152563795D01*
X106544380Y-152563037D01*
X106338479Y-152437377D01*
X106332374Y-152433399D01*
X106218664Y-152354449D01*
X106087959Y-152263699D01*
X106086559Y-152262712D01*
X105905467Y-152133152D01*
X105888496Y-152121010D01*
X105882848Y-152116719D01*
X105652647Y-151931211D01*
X105651133Y-151929972D01*
X105462509Y-151772997D01*
X105457333Y-151768440D01*
X105242058Y-151568012D01*
X105240489Y-151566525D01*
X105191644Y-151519433D01*
X105062738Y-151395151D01*
X105058067Y-151390398D01*
X104858492Y-151176037D01*
X104856896Y-151174290D01*
X104817212Y-151130000D01*
X114974532Y-151130000D01*
X114975004Y-151135395D01*
X114984685Y-151246056D01*
X114994365Y-151356692D01*
X114995762Y-151361907D01*
X114995764Y-151361916D01*
X115051858Y-151571263D01*
X115051861Y-151571271D01*
X115053261Y-151576496D01*
X115149432Y-151782734D01*
X115279953Y-151969139D01*
X115440861Y-152130047D01*
X115627266Y-152260568D01*
X115833504Y-152356739D01*
X116053308Y-152415635D01*
X116280000Y-152435468D01*
X116506692Y-152415635D01*
X116726496Y-152356739D01*
X116932734Y-152260568D01*
X117119139Y-152130047D01*
X117280047Y-151969139D01*
X117410568Y-151782734D01*
X117506739Y-151576496D01*
X117565635Y-151356692D01*
X117585468Y-151130000D01*
X117565635Y-150903308D01*
X117506739Y-150683504D01*
X117410568Y-150477266D01*
X117280047Y-150290861D01*
X117119139Y-150129953D01*
X116932734Y-149999432D01*
X116726496Y-149903261D01*
X116721271Y-149901861D01*
X116721263Y-149901858D01*
X116511916Y-149845764D01*
X116511907Y-149845762D01*
X116506692Y-149844365D01*
X116501304Y-149843893D01*
X116501301Y-149843893D01*
X116285395Y-149825004D01*
X116280000Y-149824532D01*
X116274605Y-149825004D01*
X116058698Y-149843893D01*
X116058693Y-149843893D01*
X116053308Y-149844365D01*
X116048094Y-149845762D01*
X116048083Y-149845764D01*
X115838736Y-149901858D01*
X115838724Y-149901862D01*
X115833504Y-149903261D01*
X115828599Y-149905547D01*
X115828594Y-149905550D01*
X115632176Y-149997142D01*
X115632172Y-149997144D01*
X115627266Y-149999432D01*
X115622833Y-150002535D01*
X115622826Y-150002540D01*
X115445296Y-150126847D01*
X115445291Y-150126850D01*
X115440861Y-150129953D01*
X115437037Y-150133776D01*
X115437031Y-150133782D01*
X115283782Y-150287031D01*
X115283776Y-150287037D01*
X115279953Y-150290861D01*
X115276850Y-150295291D01*
X115276847Y-150295296D01*
X115152540Y-150472826D01*
X115152535Y-150472833D01*
X115149432Y-150477266D01*
X115147144Y-150482172D01*
X115147142Y-150482176D01*
X115055550Y-150678594D01*
X115055547Y-150678599D01*
X115053261Y-150683504D01*
X115051862Y-150688724D01*
X115051858Y-150688736D01*
X114995764Y-150898083D01*
X114995762Y-150898094D01*
X114994365Y-150903308D01*
X114993893Y-150908693D01*
X114993893Y-150908698D01*
X114982431Y-151039711D01*
X114974532Y-151130000D01*
X104817212Y-151130000D01*
X104691307Y-150989483D01*
X104687107Y-150984541D01*
X104625989Y-150908698D01*
X104503950Y-150757257D01*
X104502382Y-150755270D01*
X104350132Y-150558099D01*
X104346422Y-150553034D01*
X104180392Y-150313906D01*
X104178832Y-150311605D01*
X104040982Y-150103244D01*
X104037756Y-150098099D01*
X103889503Y-149848232D01*
X103888060Y-149845731D01*
X103765450Y-149627263D01*
X103762710Y-149622098D01*
X103632929Y-149362828D01*
X103631538Y-149359957D01*
X103524999Y-149132690D01*
X103522728Y-149127545D01*
X103411897Y-148859974D01*
X103410686Y-148856934D01*
X103320849Y-148622046D01*
X103319052Y-148617019D01*
X103227694Y-148342532D01*
X103226621Y-148339143D01*
X103204169Y-148264518D01*
X107260000Y-148264518D01*
X107260353Y-148271114D01*
X107265573Y-148319667D01*
X107269111Y-148334641D01*
X107313547Y-148453777D01*
X107321962Y-148469189D01*
X107397498Y-148570092D01*
X107409907Y-148582501D01*
X107510810Y-148658037D01*
X107526222Y-148666452D01*
X107645358Y-148710888D01*
X107660332Y-148714426D01*
X107708885Y-148719646D01*
X107715482Y-148720000D01*
X108393674Y-148720000D01*
X108406549Y-148716549D01*
X108410000Y-148703674D01*
X108910000Y-148703674D01*
X108913450Y-148716549D01*
X108926326Y-148720000D01*
X109604518Y-148720000D01*
X109611114Y-148719646D01*
X109659667Y-148714426D01*
X109674641Y-148710888D01*
X109793777Y-148666452D01*
X109809189Y-148658037D01*
X109910092Y-148582501D01*
X109922501Y-148570092D01*
X109998037Y-148469189D01*
X110006452Y-148453777D01*
X110050888Y-148334641D01*
X110054426Y-148319667D01*
X110059646Y-148271114D01*
X110060000Y-148264518D01*
X110060000Y-147586326D01*
X110056549Y-147573450D01*
X110043674Y-147570000D01*
X108926326Y-147570000D01*
X108913450Y-147573450D01*
X108910000Y-147586326D01*
X108910000Y-148703674D01*
X108410000Y-148703674D01*
X108410000Y-147586326D01*
X108406549Y-147573450D01*
X108393674Y-147570000D01*
X107276326Y-147570000D01*
X107263450Y-147573450D01*
X107260000Y-147586326D01*
X107260000Y-148264518D01*
X103204169Y-148264518D01*
X103154081Y-148098031D01*
X103152711Y-148093103D01*
X103081238Y-147813075D01*
X103080370Y-147809443D01*
X103025570Y-147563437D01*
X103024592Y-147558584D01*
X102973308Y-147274333D01*
X102972685Y-147270529D01*
X102935957Y-147020969D01*
X102935357Y-147016257D01*
X102904498Y-146729225D01*
X102904124Y-146725079D01*
X102885708Y-146473456D01*
X102885463Y-146468966D01*
X102875163Y-146180558D01*
X102875084Y-146176133D01*
X102875084Y-145923867D01*
X102875163Y-145919442D01*
X102878932Y-145813913D01*
X102885463Y-145631027D01*
X102885707Y-145626548D01*
X102904125Y-145374910D01*
X102904497Y-145370784D01*
X102935359Y-145083729D01*
X102935955Y-145079043D01*
X102972688Y-144829450D01*
X102973304Y-144825686D01*
X102981547Y-144780000D01*
X107254700Y-144780000D01*
X107255124Y-144785117D01*
X107273441Y-145006186D01*
X107273442Y-145006195D01*
X107273866Y-145011305D01*
X107275123Y-145016272D01*
X107275125Y-145016279D01*
X107315671Y-145176389D01*
X107330843Y-145236300D01*
X107332903Y-145240996D01*
X107422016Y-145444154D01*
X107422019Y-145444159D01*
X107424076Y-145448849D01*
X107461696Y-145506431D01*
X107548219Y-145638865D01*
X107548222Y-145638869D01*
X107551021Y-145643153D01*
X107554486Y-145646917D01*
X107554490Y-145646922D01*
X107646167Y-145746509D01*
X107674940Y-145799262D01*
X107675533Y-145859348D01*
X107647806Y-145912658D01*
X107598271Y-145946673D01*
X107526226Y-145973544D01*
X107510810Y-145981962D01*
X107409907Y-146057498D01*
X107397498Y-146069907D01*
X107321962Y-146170810D01*
X107313547Y-146186222D01*
X107269111Y-146305358D01*
X107265573Y-146320332D01*
X107260353Y-146368885D01*
X107260000Y-146375482D01*
X107260000Y-147053674D01*
X107263450Y-147066549D01*
X107276326Y-147070000D01*
X110043674Y-147070000D01*
X110056549Y-147066549D01*
X110060000Y-147053674D01*
X110060000Y-146375482D01*
X110059646Y-146368885D01*
X110054426Y-146320332D01*
X110050888Y-146305358D01*
X110006452Y-146186222D01*
X109998037Y-146170810D01*
X109922501Y-146069907D01*
X109910092Y-146057498D01*
X109900076Y-146050000D01*
X119484422Y-146050000D01*
X119484592Y-146053244D01*
X119497535Y-146300217D01*
X119504722Y-146437338D01*
X119505227Y-146440531D01*
X119505229Y-146440543D01*
X119564889Y-146817224D01*
X119564891Y-146817237D01*
X119565398Y-146820433D01*
X119566235Y-146823557D01*
X119566237Y-146823566D01*
X119664947Y-147191957D01*
X119665786Y-147195087D01*
X119666943Y-147198102D01*
X119666946Y-147198110D01*
X119773298Y-147475165D01*
X119804786Y-147557194D01*
X119806255Y-147560077D01*
X119806259Y-147560086D01*
X119936699Y-147816089D01*
X119980875Y-147902789D01*
X120192124Y-148228084D01*
X120436219Y-148529516D01*
X120710484Y-148803781D01*
X121011916Y-149047876D01*
X121337211Y-149259125D01*
X121682806Y-149435214D01*
X122044913Y-149574214D01*
X122419567Y-149674602D01*
X122802662Y-149735278D01*
X123190000Y-149755578D01*
X123577338Y-149735278D01*
X123960433Y-149674602D01*
X124335087Y-149574214D01*
X124697194Y-149435214D01*
X125042789Y-149259125D01*
X125368084Y-149047876D01*
X125669516Y-148803781D01*
X125943781Y-148529516D01*
X126129640Y-148300000D01*
X127324357Y-148300000D01*
X127324781Y-148305117D01*
X127344467Y-148542701D01*
X127344468Y-148542709D01*
X127344892Y-148547821D01*
X127346149Y-148552788D01*
X127346151Y-148552795D01*
X127386186Y-148710888D01*
X127405937Y-148788881D01*
X127407997Y-148793577D01*
X127503766Y-149011910D01*
X127503769Y-149011916D01*
X127505827Y-149016607D01*
X127508627Y-149020893D01*
X127508631Y-149020900D01*
X127635610Y-149215255D01*
X127641836Y-149224785D01*
X127645310Y-149228559D01*
X127645311Y-149228560D01*
X127806784Y-149403967D01*
X127806787Y-149403970D01*
X127810256Y-149407738D01*
X128006491Y-149560474D01*
X128225190Y-149678828D01*
X128460386Y-149759571D01*
X128705665Y-149800500D01*
X128949201Y-149800500D01*
X128954335Y-149800500D01*
X129199614Y-149759571D01*
X129434810Y-149678828D01*
X129653509Y-149560474D01*
X129849744Y-149407738D01*
X130018164Y-149224785D01*
X130154173Y-149016607D01*
X130254063Y-148788881D01*
X130315108Y-148547821D01*
X130335643Y-148300000D01*
X133824357Y-148300000D01*
X133824781Y-148305117D01*
X133844467Y-148542701D01*
X133844468Y-148542709D01*
X133844892Y-148547821D01*
X133846149Y-148552788D01*
X133846151Y-148552795D01*
X133886186Y-148710888D01*
X133905937Y-148788881D01*
X133907997Y-148793577D01*
X134003766Y-149011910D01*
X134003769Y-149011916D01*
X134005827Y-149016607D01*
X134008627Y-149020893D01*
X134008631Y-149020900D01*
X134135610Y-149215255D01*
X134141836Y-149224785D01*
X134145310Y-149228559D01*
X134145311Y-149228560D01*
X134306784Y-149403967D01*
X134306787Y-149403970D01*
X134310256Y-149407738D01*
X134506491Y-149560474D01*
X134725190Y-149678828D01*
X134960386Y-149759571D01*
X135205665Y-149800500D01*
X135449201Y-149800500D01*
X135454335Y-149800500D01*
X135699614Y-149759571D01*
X135934810Y-149678828D01*
X136153509Y-149560474D01*
X136349744Y-149407738D01*
X136518164Y-149224785D01*
X136654173Y-149016607D01*
X136754063Y-148788881D01*
X136815108Y-148547821D01*
X136835643Y-148300000D01*
X136815108Y-148052179D01*
X136754063Y-147811119D01*
X136654173Y-147583393D01*
X136650656Y-147578010D01*
X136520971Y-147379512D01*
X136518164Y-147375215D01*
X136496224Y-147351382D01*
X136353215Y-147196032D01*
X136353211Y-147196029D01*
X136349744Y-147192262D01*
X136188228Y-147066549D01*
X136157559Y-147042678D01*
X136157557Y-147042676D01*
X136153509Y-147039526D01*
X136075599Y-146997363D01*
X135939316Y-146923610D01*
X135939310Y-146923607D01*
X135934810Y-146921172D01*
X135929969Y-146919510D01*
X135929962Y-146919507D01*
X135704465Y-146842094D01*
X135704461Y-146842093D01*
X135699614Y-146840429D01*
X135690768Y-146838952D01*
X135459398Y-146800344D01*
X135459387Y-146800343D01*
X135454335Y-146799500D01*
X135205665Y-146799500D01*
X135200613Y-146800343D01*
X135200601Y-146800344D01*
X134965443Y-146839585D01*
X134965441Y-146839585D01*
X134960386Y-146840429D01*
X134955541Y-146842092D01*
X134955534Y-146842094D01*
X134730037Y-146919507D01*
X134730026Y-146919511D01*
X134725190Y-146921172D01*
X134720693Y-146923605D01*
X134720683Y-146923610D01*
X134511002Y-147037084D01*
X134510995Y-147037088D01*
X134506491Y-147039526D01*
X134502448Y-147042672D01*
X134502440Y-147042678D01*
X134324053Y-147181523D01*
X134310256Y-147192262D01*
X134306793Y-147196023D01*
X134306784Y-147196032D01*
X134145311Y-147371439D01*
X134145305Y-147371446D01*
X134141836Y-147375215D01*
X134139031Y-147379506D01*
X134139028Y-147379512D01*
X134008631Y-147579099D01*
X134008624Y-147579111D01*
X134005827Y-147583393D01*
X134003772Y-147588077D01*
X134003766Y-147588089D01*
X133907997Y-147806422D01*
X133905937Y-147811119D01*
X133904679Y-147816084D01*
X133904678Y-147816089D01*
X133846151Y-148047204D01*
X133846149Y-148047213D01*
X133844892Y-148052179D01*
X133844468Y-148057288D01*
X133844467Y-148057298D01*
X133824781Y-148294883D01*
X133824357Y-148300000D01*
X130335643Y-148300000D01*
X130315108Y-148052179D01*
X130254063Y-147811119D01*
X130154173Y-147583393D01*
X130150656Y-147578010D01*
X130020971Y-147379512D01*
X130018164Y-147375215D01*
X129996224Y-147351382D01*
X129853215Y-147196032D01*
X129853211Y-147196029D01*
X129849744Y-147192262D01*
X129688228Y-147066549D01*
X129657559Y-147042678D01*
X129657557Y-147042676D01*
X129653509Y-147039526D01*
X129575599Y-146997363D01*
X129439316Y-146923610D01*
X129439310Y-146923607D01*
X129434810Y-146921172D01*
X129429969Y-146919510D01*
X129429962Y-146919507D01*
X129204465Y-146842094D01*
X129204461Y-146842093D01*
X129199614Y-146840429D01*
X129190768Y-146838952D01*
X128959398Y-146800344D01*
X128959387Y-146800343D01*
X128954335Y-146799500D01*
X128705665Y-146799500D01*
X128700613Y-146800343D01*
X128700601Y-146800344D01*
X128465443Y-146839585D01*
X128465441Y-146839585D01*
X128460386Y-146840429D01*
X128455541Y-146842092D01*
X128455534Y-146842094D01*
X128230037Y-146919507D01*
X128230026Y-146919511D01*
X128225190Y-146921172D01*
X128220693Y-146923605D01*
X128220683Y-146923610D01*
X128011002Y-147037084D01*
X128010995Y-147037088D01*
X128006491Y-147039526D01*
X128002448Y-147042672D01*
X128002440Y-147042678D01*
X127824053Y-147181523D01*
X127810256Y-147192262D01*
X127806793Y-147196023D01*
X127806784Y-147196032D01*
X127645311Y-147371439D01*
X127645305Y-147371446D01*
X127641836Y-147375215D01*
X127639031Y-147379506D01*
X127639028Y-147379512D01*
X127508631Y-147579099D01*
X127508624Y-147579111D01*
X127505827Y-147583393D01*
X127503772Y-147588077D01*
X127503766Y-147588089D01*
X127407997Y-147806422D01*
X127405937Y-147811119D01*
X127404679Y-147816084D01*
X127404678Y-147816089D01*
X127346151Y-148047204D01*
X127346149Y-148047213D01*
X127344892Y-148052179D01*
X127344468Y-148057288D01*
X127344467Y-148057298D01*
X127324781Y-148294883D01*
X127324357Y-148300000D01*
X126129640Y-148300000D01*
X126187876Y-148228084D01*
X126399125Y-147902789D01*
X126575214Y-147557194D01*
X126714214Y-147195087D01*
X126814602Y-146820433D01*
X126875278Y-146437338D01*
X126895578Y-146050000D01*
X130474551Y-146050000D01*
X130494317Y-146301148D01*
X130495452Y-146305877D01*
X130495453Y-146305881D01*
X130551989Y-146541374D01*
X130551991Y-146541382D01*
X130553127Y-146546111D01*
X130649534Y-146778859D01*
X130652081Y-146783016D01*
X130652082Y-146783017D01*
X130778617Y-146989504D01*
X130778622Y-146989511D01*
X130781164Y-146993659D01*
X130784324Y-146997358D01*
X130784327Y-146997363D01*
X130843418Y-147066549D01*
X130944776Y-147185224D01*
X130956324Y-147195087D01*
X131130705Y-147344023D01*
X131136341Y-147348836D01*
X131140491Y-147351379D01*
X131140495Y-147351382D01*
X131226208Y-147403907D01*
X131351141Y-147480466D01*
X131583889Y-147576873D01*
X131828852Y-147635683D01*
X132080000Y-147655449D01*
X132331148Y-147635683D01*
X132576111Y-147576873D01*
X132808859Y-147480466D01*
X133023659Y-147348836D01*
X133215224Y-147185224D01*
X133378836Y-146993659D01*
X133510466Y-146778859D01*
X133606873Y-146546111D01*
X133665683Y-146301148D01*
X133685449Y-146050000D01*
X137264422Y-146050000D01*
X137264592Y-146053244D01*
X137277535Y-146300217D01*
X137284722Y-146437338D01*
X137285227Y-146440531D01*
X137285229Y-146440543D01*
X137344889Y-146817224D01*
X137344891Y-146817237D01*
X137345398Y-146820433D01*
X137346235Y-146823557D01*
X137346237Y-146823566D01*
X137444947Y-147191957D01*
X137445786Y-147195087D01*
X137446943Y-147198102D01*
X137446946Y-147198110D01*
X137553298Y-147475165D01*
X137584786Y-147557194D01*
X137586255Y-147560077D01*
X137586259Y-147560086D01*
X137716699Y-147816089D01*
X137760875Y-147902789D01*
X137972124Y-148228084D01*
X138216219Y-148529516D01*
X138490484Y-148803781D01*
X138791916Y-149047876D01*
X139117211Y-149259125D01*
X139462806Y-149435214D01*
X139824913Y-149574214D01*
X140199567Y-149674602D01*
X140582662Y-149735278D01*
X140970000Y-149755578D01*
X141357338Y-149735278D01*
X141740433Y-149674602D01*
X142115087Y-149574214D01*
X142477194Y-149435214D01*
X142822789Y-149259125D01*
X143148084Y-149047876D01*
X143449516Y-148803781D01*
X143723781Y-148529516D01*
X143967876Y-148228084D01*
X144179125Y-147902789D01*
X144355214Y-147557194D01*
X144494214Y-147195087D01*
X144594602Y-146820433D01*
X144655278Y-146437338D01*
X144675578Y-146050000D01*
X144655278Y-145662662D01*
X144594602Y-145279567D01*
X144494214Y-144904913D01*
X144355214Y-144542806D01*
X144179125Y-144197211D01*
X143967876Y-143871916D01*
X143723781Y-143570484D01*
X143449516Y-143296219D01*
X143148084Y-143052124D01*
X142822789Y-142840875D01*
X142819901Y-142839403D01*
X142819895Y-142839400D01*
X142480086Y-142666259D01*
X142480077Y-142666255D01*
X142477194Y-142664786D01*
X142404179Y-142636758D01*
X142118110Y-142526946D01*
X142118102Y-142526943D01*
X142115087Y-142525786D01*
X142111962Y-142524948D01*
X142111957Y-142524947D01*
X141743566Y-142426237D01*
X141743557Y-142426235D01*
X141740433Y-142425398D01*
X141737237Y-142424891D01*
X141737224Y-142424889D01*
X141360543Y-142365229D01*
X141360531Y-142365227D01*
X141357338Y-142364722D01*
X141354103Y-142364552D01*
X141354099Y-142364552D01*
X140973244Y-142344592D01*
X140970000Y-142344422D01*
X140966756Y-142344592D01*
X140585900Y-142364552D01*
X140585894Y-142364552D01*
X140582662Y-142364722D01*
X140579470Y-142365227D01*
X140579456Y-142365229D01*
X140202775Y-142424889D01*
X140202758Y-142424892D01*
X140199567Y-142425398D01*
X140196446Y-142426234D01*
X140196433Y-142426237D01*
X139828042Y-142524947D01*
X139828031Y-142524950D01*
X139824913Y-142525786D01*
X139821902Y-142526941D01*
X139821889Y-142526946D01*
X139465837Y-142663622D01*
X139465828Y-142663625D01*
X139462806Y-142664786D01*
X139459929Y-142666251D01*
X139459913Y-142666259D01*
X139120104Y-142839400D01*
X139120090Y-142839408D01*
X139117211Y-142840875D01*
X139114491Y-142842641D01*
X139114483Y-142842646D01*
X138794644Y-143050352D01*
X138794638Y-143050355D01*
X138791916Y-143052124D01*
X138789396Y-143054164D01*
X138789390Y-143054169D01*
X138493002Y-143294179D01*
X138492991Y-143294188D01*
X138490484Y-143296219D01*
X138488199Y-143298503D01*
X138488189Y-143298513D01*
X138218513Y-143568189D01*
X138218503Y-143568199D01*
X138216219Y-143570484D01*
X138214188Y-143572991D01*
X138214179Y-143573002D01*
X137974169Y-143869390D01*
X137974164Y-143869396D01*
X137972124Y-143871916D01*
X137970355Y-143874638D01*
X137970352Y-143874644D01*
X137762646Y-144194483D01*
X137762641Y-144194491D01*
X137760875Y-144197211D01*
X137759408Y-144200090D01*
X137759400Y-144200104D01*
X137586259Y-144539913D01*
X137586251Y-144539929D01*
X137584786Y-144542806D01*
X137583625Y-144545828D01*
X137583622Y-144545837D01*
X137446946Y-144901889D01*
X137446941Y-144901902D01*
X137445786Y-144904913D01*
X137444950Y-144908031D01*
X137444947Y-144908042D01*
X137346237Y-145276433D01*
X137346234Y-145276446D01*
X137345398Y-145279567D01*
X137344892Y-145282758D01*
X137344889Y-145282775D01*
X137285229Y-145659456D01*
X137285227Y-145659470D01*
X137284722Y-145662662D01*
X137284552Y-145665894D01*
X137284552Y-145665900D01*
X137269837Y-145946673D01*
X137264422Y-146050000D01*
X133685449Y-146050000D01*
X133665683Y-145798852D01*
X133606873Y-145553889D01*
X133510466Y-145321141D01*
X133378836Y-145106341D01*
X133359572Y-145083786D01*
X133218384Y-144918476D01*
X133215224Y-144914776D01*
X133057422Y-144780000D01*
X133027363Y-144754327D01*
X133027358Y-144754324D01*
X133023659Y-144751164D01*
X133019511Y-144748622D01*
X133019504Y-144748617D01*
X132813017Y-144622082D01*
X132813016Y-144622081D01*
X132808859Y-144619534D01*
X132576111Y-144523127D01*
X132571382Y-144521991D01*
X132571374Y-144521989D01*
X132335881Y-144465453D01*
X132335877Y-144465452D01*
X132331148Y-144464317D01*
X132326295Y-144463935D01*
X132084854Y-144444933D01*
X132080000Y-144444551D01*
X132075146Y-144444933D01*
X131833704Y-144463935D01*
X131833702Y-144463935D01*
X131828852Y-144464317D01*
X131824124Y-144465451D01*
X131824118Y-144465453D01*
X131588625Y-144521989D01*
X131588613Y-144521992D01*
X131583889Y-144523127D01*
X131579392Y-144524989D01*
X131579388Y-144524991D01*
X131355645Y-144617668D01*
X131355640Y-144617670D01*
X131351141Y-144619534D01*
X131346988Y-144622078D01*
X131346982Y-144622082D01*
X131140495Y-144748617D01*
X131140482Y-144748626D01*
X131136341Y-144751164D01*
X131132646Y-144754319D01*
X131132636Y-144754327D01*
X130948476Y-144911615D01*
X130948469Y-144911621D01*
X130944776Y-144914776D01*
X130941621Y-144918469D01*
X130941615Y-144918476D01*
X130784327Y-145102636D01*
X130784319Y-145102646D01*
X130781164Y-145106341D01*
X130778626Y-145110482D01*
X130778617Y-145110495D01*
X130652082Y-145316982D01*
X130652078Y-145316988D01*
X130649534Y-145321141D01*
X130647670Y-145325640D01*
X130647668Y-145325645D01*
X130554991Y-145549388D01*
X130553127Y-145553889D01*
X130551992Y-145558613D01*
X130551989Y-145558625D01*
X130495453Y-145794118D01*
X130495451Y-145794124D01*
X130494317Y-145798852D01*
X130474551Y-146050000D01*
X126895578Y-146050000D01*
X126875278Y-145662662D01*
X126814602Y-145279567D01*
X126714214Y-144904913D01*
X126575214Y-144542806D01*
X126399125Y-144197211D01*
X126187876Y-143871916D01*
X126129640Y-143800000D01*
X127324357Y-143800000D01*
X127324781Y-143805117D01*
X127344467Y-144042701D01*
X127344468Y-144042709D01*
X127344892Y-144047821D01*
X127346149Y-144052788D01*
X127346151Y-144052795D01*
X127359843Y-144106862D01*
X127405937Y-144288881D01*
X127407997Y-144293577D01*
X127503766Y-144511910D01*
X127503769Y-144511916D01*
X127505827Y-144516607D01*
X127508627Y-144520893D01*
X127508631Y-144520900D01*
X127623091Y-144696093D01*
X127641836Y-144724785D01*
X127645310Y-144728559D01*
X127645311Y-144728560D01*
X127806784Y-144903967D01*
X127806787Y-144903970D01*
X127810256Y-144907738D01*
X128006491Y-145060474D01*
X128225190Y-145178828D01*
X128460386Y-145259571D01*
X128705665Y-145300500D01*
X128949201Y-145300500D01*
X128954335Y-145300500D01*
X129199614Y-145259571D01*
X129434810Y-145178828D01*
X129653509Y-145060474D01*
X129849744Y-144907738D01*
X130018164Y-144724785D01*
X130154173Y-144516607D01*
X130254063Y-144288881D01*
X130315108Y-144047821D01*
X130335643Y-143800000D01*
X133824357Y-143800000D01*
X133824781Y-143805117D01*
X133844467Y-144042701D01*
X133844468Y-144042709D01*
X133844892Y-144047821D01*
X133846149Y-144052788D01*
X133846151Y-144052795D01*
X133859843Y-144106862D01*
X133905937Y-144288881D01*
X133907997Y-144293577D01*
X134003766Y-144511910D01*
X134003769Y-144511916D01*
X134005827Y-144516607D01*
X134008627Y-144520893D01*
X134008631Y-144520900D01*
X134123091Y-144696093D01*
X134141836Y-144724785D01*
X134145310Y-144728559D01*
X134145311Y-144728560D01*
X134306784Y-144903967D01*
X134306787Y-144903970D01*
X134310256Y-144907738D01*
X134506491Y-145060474D01*
X134725190Y-145178828D01*
X134960386Y-145259571D01*
X135205665Y-145300500D01*
X135449201Y-145300500D01*
X135454335Y-145300500D01*
X135699614Y-145259571D01*
X135934810Y-145178828D01*
X136153509Y-145060474D01*
X136349744Y-144907738D01*
X136518164Y-144724785D01*
X136654173Y-144516607D01*
X136754063Y-144288881D01*
X136815108Y-144047821D01*
X136835643Y-143800000D01*
X136815108Y-143552179D01*
X136754063Y-143311119D01*
X136654173Y-143083393D01*
X136632586Y-143050352D01*
X136520971Y-142879512D01*
X136518164Y-142875215D01*
X136349744Y-142692262D01*
X136153509Y-142539526D01*
X136148997Y-142537084D01*
X135939316Y-142423610D01*
X135939310Y-142423607D01*
X135934810Y-142421172D01*
X135929969Y-142419510D01*
X135929962Y-142419507D01*
X135704465Y-142342094D01*
X135704461Y-142342093D01*
X135699614Y-142340429D01*
X135690768Y-142338952D01*
X135459398Y-142300344D01*
X135459387Y-142300343D01*
X135454335Y-142299500D01*
X135205665Y-142299500D01*
X135200613Y-142300343D01*
X135200601Y-142300344D01*
X134965443Y-142339585D01*
X134965441Y-142339585D01*
X134960386Y-142340429D01*
X134955541Y-142342092D01*
X134955534Y-142342094D01*
X134730037Y-142419507D01*
X134730026Y-142419511D01*
X134725190Y-142421172D01*
X134720693Y-142423605D01*
X134720683Y-142423610D01*
X134511002Y-142537084D01*
X134510995Y-142537088D01*
X134506491Y-142539526D01*
X134502448Y-142542672D01*
X134502440Y-142542678D01*
X134314304Y-142689111D01*
X134310256Y-142692262D01*
X134306793Y-142696023D01*
X134306784Y-142696032D01*
X134145311Y-142871439D01*
X134145305Y-142871446D01*
X134141836Y-142875215D01*
X134139031Y-142879506D01*
X134139028Y-142879512D01*
X134008631Y-143079099D01*
X134008624Y-143079111D01*
X134005827Y-143083393D01*
X134003772Y-143088077D01*
X134003766Y-143088089D01*
X133907997Y-143306422D01*
X133905937Y-143311119D01*
X133904679Y-143316084D01*
X133904678Y-143316089D01*
X133846151Y-143547204D01*
X133846149Y-143547213D01*
X133844892Y-143552179D01*
X133844468Y-143557288D01*
X133844467Y-143557298D01*
X133824781Y-143794883D01*
X133824357Y-143800000D01*
X130335643Y-143800000D01*
X130315108Y-143552179D01*
X130254063Y-143311119D01*
X130154173Y-143083393D01*
X130132586Y-143050352D01*
X130020971Y-142879512D01*
X130018164Y-142875215D01*
X129849744Y-142692262D01*
X129653509Y-142539526D01*
X129648997Y-142537084D01*
X129439316Y-142423610D01*
X129439310Y-142423607D01*
X129434810Y-142421172D01*
X129429969Y-142419510D01*
X129429962Y-142419507D01*
X129204465Y-142342094D01*
X129204461Y-142342093D01*
X129199614Y-142340429D01*
X129190768Y-142338952D01*
X128959398Y-142300344D01*
X128959387Y-142300343D01*
X128954335Y-142299500D01*
X128705665Y-142299500D01*
X128700613Y-142300343D01*
X128700601Y-142300344D01*
X128465443Y-142339585D01*
X128465441Y-142339585D01*
X128460386Y-142340429D01*
X128455541Y-142342092D01*
X128455534Y-142342094D01*
X128230037Y-142419507D01*
X128230026Y-142419511D01*
X128225190Y-142421172D01*
X128220693Y-142423605D01*
X128220683Y-142423610D01*
X128011002Y-142537084D01*
X128010995Y-142537088D01*
X128006491Y-142539526D01*
X128002448Y-142542672D01*
X128002440Y-142542678D01*
X127814304Y-142689111D01*
X127810256Y-142692262D01*
X127806793Y-142696023D01*
X127806784Y-142696032D01*
X127645311Y-142871439D01*
X127645305Y-142871446D01*
X127641836Y-142875215D01*
X127639031Y-142879506D01*
X127639028Y-142879512D01*
X127508631Y-143079099D01*
X127508624Y-143079111D01*
X127505827Y-143083393D01*
X127503772Y-143088077D01*
X127503766Y-143088089D01*
X127407997Y-143306422D01*
X127405937Y-143311119D01*
X127404679Y-143316084D01*
X127404678Y-143316089D01*
X127346151Y-143547204D01*
X127346149Y-143547213D01*
X127344892Y-143552179D01*
X127344468Y-143557288D01*
X127344467Y-143557298D01*
X127324781Y-143794883D01*
X127324357Y-143800000D01*
X126129640Y-143800000D01*
X125943781Y-143570484D01*
X125669516Y-143296219D01*
X125368084Y-143052124D01*
X125042789Y-142840875D01*
X125039901Y-142839403D01*
X125039895Y-142839400D01*
X124700086Y-142666259D01*
X124700077Y-142666255D01*
X124697194Y-142664786D01*
X124624179Y-142636758D01*
X124338110Y-142526946D01*
X124338102Y-142526943D01*
X124335087Y-142525786D01*
X124331962Y-142524948D01*
X124331957Y-142524947D01*
X123963566Y-142426237D01*
X123963557Y-142426235D01*
X123960433Y-142425398D01*
X123957237Y-142424891D01*
X123957224Y-142424889D01*
X123580543Y-142365229D01*
X123580531Y-142365227D01*
X123577338Y-142364722D01*
X123574103Y-142364552D01*
X123574099Y-142364552D01*
X123193244Y-142344592D01*
X123190000Y-142344422D01*
X123186756Y-142344592D01*
X122805900Y-142364552D01*
X122805894Y-142364552D01*
X122802662Y-142364722D01*
X122799470Y-142365227D01*
X122799456Y-142365229D01*
X122422775Y-142424889D01*
X122422758Y-142424892D01*
X122419567Y-142425398D01*
X122416446Y-142426234D01*
X122416433Y-142426237D01*
X122048042Y-142524947D01*
X122048031Y-142524950D01*
X122044913Y-142525786D01*
X122041902Y-142526941D01*
X122041889Y-142526946D01*
X121685837Y-142663622D01*
X121685828Y-142663625D01*
X121682806Y-142664786D01*
X121679929Y-142666251D01*
X121679913Y-142666259D01*
X121340104Y-142839400D01*
X121340090Y-142839408D01*
X121337211Y-142840875D01*
X121334491Y-142842641D01*
X121334483Y-142842646D01*
X121014644Y-143050352D01*
X121014638Y-143050355D01*
X121011916Y-143052124D01*
X121009396Y-143054164D01*
X121009390Y-143054169D01*
X120713002Y-143294179D01*
X120712991Y-143294188D01*
X120710484Y-143296219D01*
X120708199Y-143298503D01*
X120708189Y-143298513D01*
X120438513Y-143568189D01*
X120438503Y-143568199D01*
X120436219Y-143570484D01*
X120434188Y-143572991D01*
X120434179Y-143573002D01*
X120194169Y-143869390D01*
X120194164Y-143869396D01*
X120192124Y-143871916D01*
X120190355Y-143874638D01*
X120190352Y-143874644D01*
X119982646Y-144194483D01*
X119982641Y-144194491D01*
X119980875Y-144197211D01*
X119979408Y-144200090D01*
X119979400Y-144200104D01*
X119806259Y-144539913D01*
X119806251Y-144539929D01*
X119804786Y-144542806D01*
X119803625Y-144545828D01*
X119803622Y-144545837D01*
X119666946Y-144901889D01*
X119666941Y-144901902D01*
X119665786Y-144904913D01*
X119664950Y-144908031D01*
X119664947Y-144908042D01*
X119566237Y-145276433D01*
X119566234Y-145276446D01*
X119565398Y-145279567D01*
X119564892Y-145282758D01*
X119564889Y-145282775D01*
X119505229Y-145659456D01*
X119505227Y-145659470D01*
X119504722Y-145662662D01*
X119504552Y-145665894D01*
X119504552Y-145665900D01*
X119489837Y-145946673D01*
X119484422Y-146050000D01*
X109900076Y-146050000D01*
X109809189Y-145981962D01*
X109793779Y-145973548D01*
X109721728Y-145946674D01*
X109672193Y-145912658D01*
X109644466Y-145859348D01*
X109645059Y-145799261D01*
X109673833Y-145746509D01*
X109765503Y-145646929D01*
X109765503Y-145646928D01*
X109768979Y-145643153D01*
X109895924Y-145448849D01*
X109989157Y-145236300D01*
X110046134Y-145011305D01*
X110065300Y-144780000D01*
X110046134Y-144548695D01*
X109989157Y-144323700D01*
X109895924Y-144111151D01*
X109768979Y-143916847D01*
X109611784Y-143746087D01*
X109428626Y-143603530D01*
X109324545Y-143547204D01*
X109229007Y-143495501D01*
X109229002Y-143495499D01*
X109224503Y-143493064D01*
X109219657Y-143491400D01*
X109219654Y-143491399D01*
X109009834Y-143419368D01*
X109009833Y-143419367D01*
X109004981Y-143417702D01*
X108999931Y-143416859D01*
X108999922Y-143416857D01*
X108781111Y-143380344D01*
X108781102Y-143380343D01*
X108776049Y-143379500D01*
X108543951Y-143379500D01*
X108538898Y-143380343D01*
X108538888Y-143380344D01*
X108320077Y-143416857D01*
X108320065Y-143416859D01*
X108315019Y-143417702D01*
X108310169Y-143419366D01*
X108310165Y-143419368D01*
X108100345Y-143491399D01*
X108100337Y-143491402D01*
X108095497Y-143493064D01*
X108091001Y-143495496D01*
X108090992Y-143495501D01*
X107895882Y-143601090D01*
X107895878Y-143601092D01*
X107891374Y-143603530D01*
X107887334Y-143606674D01*
X107887327Y-143606679D01*
X107712263Y-143742936D01*
X107712255Y-143742943D01*
X107708216Y-143746087D01*
X107704746Y-143749855D01*
X107704742Y-143749860D01*
X107554491Y-143913077D01*
X107554488Y-143913080D01*
X107551021Y-143916847D01*
X107548226Y-143921124D01*
X107548219Y-143921134D01*
X107426878Y-144106862D01*
X107424076Y-144111151D01*
X107422021Y-144115835D01*
X107422016Y-144115845D01*
X107344056Y-144293577D01*
X107330843Y-144323700D01*
X107329585Y-144328665D01*
X107329584Y-144328670D01*
X107275125Y-144543720D01*
X107275123Y-144543729D01*
X107273866Y-144548695D01*
X107273442Y-144553802D01*
X107273441Y-144553813D01*
X107255200Y-144773955D01*
X107254700Y-144780000D01*
X102981547Y-144780000D01*
X103024595Y-144541395D01*
X103025566Y-144536581D01*
X103080377Y-144290526D01*
X103081230Y-144286954D01*
X103152718Y-144006870D01*
X103154073Y-144001992D01*
X103226628Y-143760832D01*
X103227680Y-143757506D01*
X103319062Y-143482950D01*
X103320838Y-143477982D01*
X103410705Y-143243015D01*
X103411875Y-143240077D01*
X103522742Y-142972421D01*
X103524985Y-142967338D01*
X103631545Y-142740024D01*
X103632904Y-142737220D01*
X103762729Y-142477862D01*
X103765430Y-142472771D01*
X103888101Y-142254195D01*
X103889460Y-142251839D01*
X104037785Y-142001851D01*
X104040951Y-141996802D01*
X104178900Y-141788292D01*
X104180321Y-141786196D01*
X104346445Y-141546931D01*
X104350122Y-141541912D01*
X104502444Y-141344648D01*
X104503870Y-141342841D01*
X104687142Y-141115415D01*
X104691290Y-141110534D01*
X104817210Y-140970000D01*
X114974532Y-140970000D01*
X114994365Y-141196692D01*
X114995762Y-141201907D01*
X114995764Y-141201916D01*
X115051858Y-141411263D01*
X115051861Y-141411271D01*
X115053261Y-141416496D01*
X115149432Y-141622734D01*
X115279953Y-141809139D01*
X115440861Y-141970047D01*
X115627266Y-142100568D01*
X115833504Y-142196739D01*
X115838734Y-142198140D01*
X115838736Y-142198141D01*
X116047934Y-142254195D01*
X116053308Y-142255635D01*
X116280000Y-142275468D01*
X116506692Y-142255635D01*
X116726496Y-142196739D01*
X116932734Y-142100568D01*
X117119139Y-141970047D01*
X117280047Y-141809139D01*
X117410568Y-141622734D01*
X117506739Y-141416496D01*
X117565635Y-141196692D01*
X117585468Y-140970000D01*
X117565635Y-140743308D01*
X117506739Y-140523504D01*
X117410568Y-140317266D01*
X117280047Y-140130861D01*
X117119139Y-139969953D01*
X116932734Y-139839432D01*
X116726496Y-139743261D01*
X116721271Y-139741861D01*
X116721263Y-139741858D01*
X116511916Y-139685764D01*
X116511907Y-139685762D01*
X116506692Y-139684365D01*
X116501304Y-139683893D01*
X116501301Y-139683893D01*
X116285395Y-139665004D01*
X116280000Y-139664532D01*
X116274605Y-139665004D01*
X116058698Y-139683893D01*
X116058693Y-139683893D01*
X116053308Y-139684365D01*
X116048094Y-139685762D01*
X116048083Y-139685764D01*
X115838736Y-139741858D01*
X115838724Y-139741862D01*
X115833504Y-139743261D01*
X115828599Y-139745547D01*
X115828594Y-139745550D01*
X115632176Y-139837142D01*
X115632172Y-139837144D01*
X115627266Y-139839432D01*
X115622833Y-139842535D01*
X115622826Y-139842540D01*
X115445296Y-139966847D01*
X115445291Y-139966850D01*
X115440861Y-139969953D01*
X115437037Y-139973776D01*
X115437031Y-139973782D01*
X115283782Y-140127031D01*
X115283776Y-140127037D01*
X115279953Y-140130861D01*
X115276850Y-140135291D01*
X115276847Y-140135296D01*
X115152540Y-140312826D01*
X115152535Y-140312833D01*
X115149432Y-140317266D01*
X115147144Y-140322172D01*
X115147142Y-140322176D01*
X115055550Y-140518594D01*
X115055547Y-140518599D01*
X115053261Y-140523504D01*
X115051862Y-140528724D01*
X115051858Y-140528736D01*
X114995764Y-140738083D01*
X114995762Y-140738094D01*
X114994365Y-140743308D01*
X114993893Y-140748693D01*
X114993893Y-140748698D01*
X114978560Y-140923961D01*
X114974532Y-140970000D01*
X104817210Y-140970000D01*
X104856896Y-140925708D01*
X104858492Y-140923961D01*
X104870628Y-140910925D01*
X105058105Y-140709560D01*
X105062700Y-140704884D01*
X105240587Y-140533379D01*
X105241958Y-140532080D01*
X105457361Y-140331532D01*
X105462479Y-140327026D01*
X105651289Y-140169897D01*
X105652547Y-140168868D01*
X105882879Y-139983255D01*
X105888451Y-139979021D01*
X106086780Y-139837129D01*
X106087747Y-139836447D01*
X106332415Y-139666571D01*
X106338431Y-139662651D01*
X106544600Y-139536828D01*
X106545419Y-139536335D01*
X106803622Y-139383136D01*
X106810154Y-139379524D01*
X107021767Y-139270727D01*
X107022849Y-139270177D01*
X107294101Y-139134398D01*
X107301041Y-139131190D01*
X107516045Y-139039823D01*
X107516715Y-139039542D01*
X107801251Y-138921684D01*
X107808579Y-138918919D01*
X108023699Y-138845530D01*
X108023761Y-138845509D01*
X108322395Y-138746113D01*
X108330162Y-138743807D01*
X108540038Y-138688938D01*
X108854902Y-138608573D01*
X108863019Y-138606790D01*
X109058084Y-138570759D01*
X109395980Y-138509797D01*
X109404395Y-138508576D01*
X109557904Y-138491684D01*
X109557968Y-138491678D01*
X109558277Y-138491714D01*
X109558270Y-138491645D01*
X109942054Y-138450384D01*
X109950843Y-138449756D01*
X110487788Y-138430578D01*
X110492214Y-138430500D01*
X151764825Y-138430500D01*
X151765079Y-138430703D01*
X151765310Y-138430413D01*
X151765384Y-138430383D01*
X151765432Y-138430264D01*
X152123922Y-138007012D01*
X152206101Y-137910165D01*
X152210625Y-137905124D01*
X152500694Y-137599167D01*
X152500756Y-137599226D01*
X152500921Y-137598928D01*
X152683972Y-137406894D01*
X152688579Y-137402312D01*
X152975363Y-137131887D01*
X153189695Y-136931603D01*
X153194371Y-136927454D01*
X153487061Y-136680903D01*
X153721571Y-136485883D01*
X153726290Y-136482153D01*
X154027106Y-136256288D01*
X154027348Y-136256108D01*
X154277923Y-136071132D01*
X154282666Y-136067803D01*
X154592202Y-135861431D01*
X154592741Y-135861076D01*
X154856917Y-135688712D01*
X154861649Y-135685777D01*
X155179779Y-135498510D01*
X155180803Y-135497916D01*
X155456688Y-135339848D01*
X155461432Y-135337268D01*
X155787739Y-135169032D01*
X155788988Y-135168399D01*
X156075342Y-135025639D01*
X156079989Y-135023445D01*
X156413917Y-134874311D01*
X156415339Y-134873689D01*
X156710794Y-134747143D01*
X156715431Y-134745269D01*
X157056066Y-134615486D01*
X157057792Y-134614845D01*
X157361074Y-134505216D01*
X157365480Y-134503720D01*
X157712186Y-134393417D01*
X157714078Y-134392835D01*
X158023983Y-134300676D01*
X158028283Y-134299484D01*
X158379904Y-134208945D01*
X158382272Y-134208361D01*
X158697378Y-134134169D01*
X158701589Y-134133256D01*
X159057216Y-134062641D01*
X159059815Y-134062155D01*
X159379186Y-134006205D01*
X159383161Y-134005576D01*
X159741934Y-133955014D01*
X159744744Y-133954654D01*
X160067119Y-133917214D01*
X160070846Y-133916840D01*
X160431665Y-133886458D01*
X160434778Y-133886237D01*
X160758957Y-133867475D01*
X160762433Y-133867326D01*
X161124233Y-133857192D01*
X161127703Y-133857144D01*
X161452297Y-133857144D01*
X161455766Y-133857192D01*
G37*
%TD.AperFunction*%
%TD*%
M02*
