%TF.GenerationSoftware,KiCad,Pcbnew,(7.0.0)*%
%TF.CreationDate,2023-02-26T22:34:47+01:00*%
%TF.ProjectId,Prj_1_LED_torch,50726a5f-315f-44c4-9544-5f746f726368,0.1*%
%TF.SameCoordinates,Original*%
%TF.FileFunction,Legend,Bot*%
%TF.FilePolarity,Positive*%
%FSLAX46Y46*%
G04 Gerber Fmt 4.6, Leading zero omitted, Abs format (unit mm)*
G04 Created by KiCad (PCBNEW (7.0.0)) date 2023-02-26 22:34:47*
%MOMM*%
%LPD*%
G01*
G04 APERTURE LIST*
%ADD10C,0.100000*%
%ADD11C,0.010000*%
G04 APERTURE END LIST*
D10*
X168671904Y-151547380D02*
X168671904Y-150547380D01*
X168671904Y-150547380D02*
X168338571Y-151261666D01*
X168338571Y-151261666D02*
X168005238Y-150547380D01*
X168005238Y-150547380D02*
X168005238Y-151547380D01*
X167100476Y-151547380D02*
X167100476Y-151023571D01*
X167100476Y-151023571D02*
X167148095Y-150928333D01*
X167148095Y-150928333D02*
X167243333Y-150880714D01*
X167243333Y-150880714D02*
X167433809Y-150880714D01*
X167433809Y-150880714D02*
X167529047Y-150928333D01*
X167100476Y-151499761D02*
X167195714Y-151547380D01*
X167195714Y-151547380D02*
X167433809Y-151547380D01*
X167433809Y-151547380D02*
X167529047Y-151499761D01*
X167529047Y-151499761D02*
X167576666Y-151404523D01*
X167576666Y-151404523D02*
X167576666Y-151309285D01*
X167576666Y-151309285D02*
X167529047Y-151214047D01*
X167529047Y-151214047D02*
X167433809Y-151166428D01*
X167433809Y-151166428D02*
X167195714Y-151166428D01*
X167195714Y-151166428D02*
X167100476Y-151118809D01*
X166195714Y-150880714D02*
X166195714Y-151690238D01*
X166195714Y-151690238D02*
X166243333Y-151785476D01*
X166243333Y-151785476D02*
X166290952Y-151833095D01*
X166290952Y-151833095D02*
X166386190Y-151880714D01*
X166386190Y-151880714D02*
X166529047Y-151880714D01*
X166529047Y-151880714D02*
X166624285Y-151833095D01*
X166195714Y-151499761D02*
X166290952Y-151547380D01*
X166290952Y-151547380D02*
X166481428Y-151547380D01*
X166481428Y-151547380D02*
X166576666Y-151499761D01*
X166576666Y-151499761D02*
X166624285Y-151452142D01*
X166624285Y-151452142D02*
X166671904Y-151356904D01*
X166671904Y-151356904D02*
X166671904Y-151071190D01*
X166671904Y-151071190D02*
X166624285Y-150975952D01*
X166624285Y-150975952D02*
X166576666Y-150928333D01*
X166576666Y-150928333D02*
X166481428Y-150880714D01*
X166481428Y-150880714D02*
X166290952Y-150880714D01*
X166290952Y-150880714D02*
X166195714Y-150928333D01*
X165719523Y-151547380D02*
X165719523Y-150880714D01*
X165719523Y-150547380D02*
X165767142Y-150595000D01*
X165767142Y-150595000D02*
X165719523Y-150642619D01*
X165719523Y-150642619D02*
X165671904Y-150595000D01*
X165671904Y-150595000D02*
X165719523Y-150547380D01*
X165719523Y-150547380D02*
X165719523Y-150642619D01*
X164814762Y-151499761D02*
X164910000Y-151547380D01*
X164910000Y-151547380D02*
X165100476Y-151547380D01*
X165100476Y-151547380D02*
X165195714Y-151499761D01*
X165195714Y-151499761D02*
X165243333Y-151452142D01*
X165243333Y-151452142D02*
X165290952Y-151356904D01*
X165290952Y-151356904D02*
X165290952Y-151071190D01*
X165290952Y-151071190D02*
X165243333Y-150975952D01*
X165243333Y-150975952D02*
X165195714Y-150928333D01*
X165195714Y-150928333D02*
X165100476Y-150880714D01*
X165100476Y-150880714D02*
X164910000Y-150880714D01*
X164910000Y-150880714D02*
X164814762Y-150928333D01*
X163833809Y-151499761D02*
X163690952Y-151547380D01*
X163690952Y-151547380D02*
X163452857Y-151547380D01*
X163452857Y-151547380D02*
X163357619Y-151499761D01*
X163357619Y-151499761D02*
X163310000Y-151452142D01*
X163310000Y-151452142D02*
X163262381Y-151356904D01*
X163262381Y-151356904D02*
X163262381Y-151261666D01*
X163262381Y-151261666D02*
X163310000Y-151166428D01*
X163310000Y-151166428D02*
X163357619Y-151118809D01*
X163357619Y-151118809D02*
X163452857Y-151071190D01*
X163452857Y-151071190D02*
X163643333Y-151023571D01*
X163643333Y-151023571D02*
X163738571Y-150975952D01*
X163738571Y-150975952D02*
X163786190Y-150928333D01*
X163786190Y-150928333D02*
X163833809Y-150833095D01*
X163833809Y-150833095D02*
X163833809Y-150737857D01*
X163833809Y-150737857D02*
X163786190Y-150642619D01*
X163786190Y-150642619D02*
X163738571Y-150595000D01*
X163738571Y-150595000D02*
X163643333Y-150547380D01*
X163643333Y-150547380D02*
X163405238Y-150547380D01*
X163405238Y-150547380D02*
X163262381Y-150595000D01*
X162929047Y-150880714D02*
X162405238Y-150880714D01*
X162405238Y-150880714D02*
X162929047Y-151547380D01*
X162929047Y-151547380D02*
X162405238Y-151547380D01*
X162024285Y-151547380D02*
X162024285Y-150880714D01*
X162024285Y-150975952D02*
X161976666Y-150928333D01*
X161976666Y-150928333D02*
X161881428Y-150880714D01*
X161881428Y-150880714D02*
X161738571Y-150880714D01*
X161738571Y-150880714D02*
X161643333Y-150928333D01*
X161643333Y-150928333D02*
X161595714Y-151023571D01*
X161595714Y-151023571D02*
X161595714Y-151547380D01*
X161595714Y-151023571D02*
X161548095Y-150928333D01*
X161548095Y-150928333D02*
X161452857Y-150880714D01*
X161452857Y-150880714D02*
X161310000Y-150880714D01*
X161310000Y-150880714D02*
X161214761Y-150928333D01*
X161214761Y-150928333D02*
X161167142Y-151023571D01*
X161167142Y-151023571D02*
X161167142Y-151547380D01*
X160690952Y-151547380D02*
X160690952Y-150880714D01*
X160690952Y-150547380D02*
X160738571Y-150595000D01*
X160738571Y-150595000D02*
X160690952Y-150642619D01*
X160690952Y-150642619D02*
X160643333Y-150595000D01*
X160643333Y-150595000D02*
X160690952Y-150547380D01*
X160690952Y-150547380D02*
X160690952Y-150642619D01*
X160357619Y-150880714D02*
X159976667Y-150880714D01*
X160214762Y-150547380D02*
X160214762Y-151404523D01*
X160214762Y-151404523D02*
X160167143Y-151499761D01*
X160167143Y-151499761D02*
X160071905Y-151547380D01*
X160071905Y-151547380D02*
X159976667Y-151547380D01*
X159500476Y-151547380D02*
X159595714Y-151499761D01*
X159595714Y-151499761D02*
X159643333Y-151452142D01*
X159643333Y-151452142D02*
X159690952Y-151356904D01*
X159690952Y-151356904D02*
X159690952Y-151071190D01*
X159690952Y-151071190D02*
X159643333Y-150975952D01*
X159643333Y-150975952D02*
X159595714Y-150928333D01*
X159595714Y-150928333D02*
X159500476Y-150880714D01*
X159500476Y-150880714D02*
X159357619Y-150880714D01*
X159357619Y-150880714D02*
X159262381Y-150928333D01*
X159262381Y-150928333D02*
X159214762Y-150975952D01*
X159214762Y-150975952D02*
X159167143Y-151071190D01*
X159167143Y-151071190D02*
X159167143Y-151356904D01*
X159167143Y-151356904D02*
X159214762Y-151452142D01*
X159214762Y-151452142D02*
X159262381Y-151499761D01*
X159262381Y-151499761D02*
X159357619Y-151547380D01*
X159357619Y-151547380D02*
X159500476Y-151547380D01*
X157805238Y-151023571D02*
X157662381Y-151071190D01*
X157662381Y-151071190D02*
X157614762Y-151118809D01*
X157614762Y-151118809D02*
X157567143Y-151214047D01*
X157567143Y-151214047D02*
X157567143Y-151356904D01*
X157567143Y-151356904D02*
X157614762Y-151452142D01*
X157614762Y-151452142D02*
X157662381Y-151499761D01*
X157662381Y-151499761D02*
X157757619Y-151547380D01*
X157757619Y-151547380D02*
X158138571Y-151547380D01*
X158138571Y-151547380D02*
X158138571Y-150547380D01*
X158138571Y-150547380D02*
X157805238Y-150547380D01*
X157805238Y-150547380D02*
X157710000Y-150595000D01*
X157710000Y-150595000D02*
X157662381Y-150642619D01*
X157662381Y-150642619D02*
X157614762Y-150737857D01*
X157614762Y-150737857D02*
X157614762Y-150833095D01*
X157614762Y-150833095D02*
X157662381Y-150928333D01*
X157662381Y-150928333D02*
X157710000Y-150975952D01*
X157710000Y-150975952D02*
X157805238Y-151023571D01*
X157805238Y-151023571D02*
X158138571Y-151023571D01*
X156710000Y-150880714D02*
X156710000Y-151547380D01*
X157138571Y-150880714D02*
X157138571Y-151404523D01*
X157138571Y-151404523D02*
X157090952Y-151499761D01*
X157090952Y-151499761D02*
X156995714Y-151547380D01*
X156995714Y-151547380D02*
X156852857Y-151547380D01*
X156852857Y-151547380D02*
X156757619Y-151499761D01*
X156757619Y-151499761D02*
X156710000Y-151452142D01*
X156376666Y-150880714D02*
X155995714Y-150880714D01*
X156233809Y-150547380D02*
X156233809Y-151404523D01*
X156233809Y-151404523D02*
X156186190Y-151499761D01*
X156186190Y-151499761D02*
X156090952Y-151547380D01*
X156090952Y-151547380D02*
X155995714Y-151547380D01*
X155805237Y-150880714D02*
X155424285Y-150880714D01*
X155662380Y-150547380D02*
X155662380Y-151404523D01*
X155662380Y-151404523D02*
X155614761Y-151499761D01*
X155614761Y-151499761D02*
X155519523Y-151547380D01*
X155519523Y-151547380D02*
X155424285Y-151547380D01*
X154948094Y-151547380D02*
X155043332Y-151499761D01*
X155043332Y-151499761D02*
X155090951Y-151452142D01*
X155090951Y-151452142D02*
X155138570Y-151356904D01*
X155138570Y-151356904D02*
X155138570Y-151071190D01*
X155138570Y-151071190D02*
X155090951Y-150975952D01*
X155090951Y-150975952D02*
X155043332Y-150928333D01*
X155043332Y-150928333D02*
X154948094Y-150880714D01*
X154948094Y-150880714D02*
X154805237Y-150880714D01*
X154805237Y-150880714D02*
X154709999Y-150928333D01*
X154709999Y-150928333D02*
X154662380Y-150975952D01*
X154662380Y-150975952D02*
X154614761Y-151071190D01*
X154614761Y-151071190D02*
X154614761Y-151356904D01*
X154614761Y-151356904D02*
X154662380Y-151452142D01*
X154662380Y-151452142D02*
X154709999Y-151499761D01*
X154709999Y-151499761D02*
X154805237Y-151547380D01*
X154805237Y-151547380D02*
X154948094Y-151547380D01*
X154186189Y-150880714D02*
X154186189Y-151547380D01*
X154186189Y-150975952D02*
X154138570Y-150928333D01*
X154138570Y-150928333D02*
X154043332Y-150880714D01*
X154043332Y-150880714D02*
X153900475Y-150880714D01*
X153900475Y-150880714D02*
X153805237Y-150928333D01*
X153805237Y-150928333D02*
X153757618Y-151023571D01*
X153757618Y-151023571D02*
X153757618Y-151547380D01*
X143248630Y-139560592D02*
X143915296Y-139798687D01*
X143915296Y-139798687D02*
X143248630Y-140036782D01*
X143915296Y-140941544D02*
X143915296Y-140370116D01*
X143915296Y-140655830D02*
X142915296Y-140655830D01*
X142915296Y-140655830D02*
X143058154Y-140560592D01*
X143058154Y-140560592D02*
X143153392Y-140465354D01*
X143153392Y-140465354D02*
X143201011Y-140370116D01*
X143820058Y-141370116D02*
X143867677Y-141417735D01*
X143867677Y-141417735D02*
X143915296Y-141370116D01*
X143915296Y-141370116D02*
X143867677Y-141322497D01*
X143867677Y-141322497D02*
X143820058Y-141370116D01*
X143820058Y-141370116D02*
X143915296Y-141370116D01*
X142915296Y-142036782D02*
X142915296Y-142132020D01*
X142915296Y-142132020D02*
X142962916Y-142227258D01*
X142962916Y-142227258D02*
X143010535Y-142274877D01*
X143010535Y-142274877D02*
X143105773Y-142322496D01*
X143105773Y-142322496D02*
X143296249Y-142370115D01*
X143296249Y-142370115D02*
X143534344Y-142370115D01*
X143534344Y-142370115D02*
X143724820Y-142322496D01*
X143724820Y-142322496D02*
X143820058Y-142274877D01*
X143820058Y-142274877D02*
X143867677Y-142227258D01*
X143867677Y-142227258D02*
X143915296Y-142132020D01*
X143915296Y-142132020D02*
X143915296Y-142036782D01*
X143915296Y-142036782D02*
X143867677Y-141941544D01*
X143867677Y-141941544D02*
X143820058Y-141893925D01*
X143820058Y-141893925D02*
X143724820Y-141846306D01*
X143724820Y-141846306D02*
X143534344Y-141798687D01*
X143534344Y-141798687D02*
X143296249Y-141798687D01*
X143296249Y-141798687D02*
X143105773Y-141846306D01*
X143105773Y-141846306D02*
X143010535Y-141893925D01*
X143010535Y-141893925D02*
X142962916Y-141941544D01*
X142962916Y-141941544D02*
X142915296Y-142036782D01*
%TO.C,G\u002A\u002A\u002A*%
G36*
X166420050Y-147761059D02*
G01*
X166407537Y-147773571D01*
X166395025Y-147761059D01*
X166407537Y-147748546D01*
X166420050Y-147761059D01*
G37*
G36*
X166294926Y-148061354D02*
G01*
X166282414Y-148073867D01*
X166269902Y-148061354D01*
X166282414Y-148048842D01*
X166294926Y-148061354D01*
G37*
G36*
X165619261Y-148536822D02*
G01*
X165606749Y-148549335D01*
X165594237Y-148536822D01*
X165606749Y-148524310D01*
X165619261Y-148536822D01*
G37*
G36*
X162666355Y-141930320D02*
G01*
X162653843Y-141942832D01*
X162641330Y-141930320D01*
X162653843Y-141917808D01*
X162666355Y-141930320D01*
G37*
G36*
X162591281Y-139202635D02*
G01*
X162578769Y-139215147D01*
X162566256Y-139202635D01*
X162578769Y-139190123D01*
X162591281Y-139202635D01*
G37*
G36*
X162566256Y-142430812D02*
G01*
X162553744Y-142443325D01*
X162541232Y-142430812D01*
X162553744Y-142418300D01*
X162566256Y-142430812D01*
G37*
G36*
X162341035Y-143056428D02*
G01*
X162328523Y-143068941D01*
X162316010Y-143056428D01*
X162328523Y-143043916D01*
X162341035Y-143056428D01*
G37*
G36*
X161790493Y-141079482D02*
G01*
X161777981Y-141091995D01*
X161765468Y-141079482D01*
X161777981Y-141066970D01*
X161790493Y-141079482D01*
G37*
G36*
X161715419Y-141054458D02*
G01*
X161702907Y-141066970D01*
X161690394Y-141054458D01*
X161702907Y-141041945D01*
X161715419Y-141054458D01*
G37*
G36*
X161615321Y-140178596D02*
G01*
X161602808Y-140191108D01*
X161590296Y-140178596D01*
X161602808Y-140166083D01*
X161615321Y-140178596D01*
G37*
G36*
X161014729Y-139828251D02*
G01*
X161002217Y-139840763D01*
X160989705Y-139828251D01*
X161002217Y-139815739D01*
X161014729Y-139828251D01*
G37*
G36*
X160514237Y-149237512D02*
G01*
X160501724Y-149250024D01*
X160489212Y-149237512D01*
X160501724Y-149225000D01*
X160514237Y-149237512D01*
G37*
G36*
X160464188Y-149262537D02*
G01*
X160451675Y-149275049D01*
X160439163Y-149262537D01*
X160451675Y-149250024D01*
X160464188Y-149262537D01*
G37*
G36*
X159663399Y-142055443D02*
G01*
X159650887Y-142067955D01*
X159638375Y-142055443D01*
X159650887Y-142042931D01*
X159663399Y-142055443D01*
G37*
G36*
X166445074Y-147423226D02*
G01*
X166443268Y-147436474D01*
X166428391Y-147439909D01*
X166425396Y-147436242D01*
X166428391Y-147406543D01*
X166435918Y-147402628D01*
X166445074Y-147423226D01*
G37*
G36*
X162516207Y-141567463D02*
G01*
X162514401Y-141580711D01*
X162499524Y-141584146D01*
X162496529Y-141580478D01*
X162499524Y-141550780D01*
X162507051Y-141546865D01*
X162516207Y-141567463D01*
G37*
G36*
X162095481Y-141149974D02*
G01*
X162107064Y-141158981D01*
X162080362Y-141165093D01*
X162054980Y-141163324D01*
X162047517Y-141151950D01*
X162056370Y-141146991D01*
X162095481Y-141149974D01*
G37*
G36*
X161982348Y-141125361D02*
G01*
X161986263Y-141132888D01*
X161965665Y-141142044D01*
X161952417Y-141140238D01*
X161948982Y-141125361D01*
X161952650Y-141122366D01*
X161982348Y-141125361D01*
G37*
G36*
X157060838Y-144094950D02*
G01*
X157059032Y-144108198D01*
X157044155Y-144111633D01*
X157041160Y-144107966D01*
X157044155Y-144078267D01*
X157051682Y-144074352D01*
X157060838Y-144094950D01*
G37*
G36*
X162627587Y-142315600D02*
G01*
X162641330Y-142357215D01*
X162638122Y-142386005D01*
X162625685Y-142386561D01*
X162609046Y-142343192D01*
X162605851Y-142315139D01*
X162618640Y-142307132D01*
X162627587Y-142315600D01*
G37*
G36*
X162548082Y-141635104D02*
G01*
X162566256Y-141669038D01*
X162564935Y-141683072D01*
X162551877Y-141688973D01*
X162531684Y-141653749D01*
X162527298Y-141634229D01*
X162541519Y-141630201D01*
X162548082Y-141635104D01*
G37*
G36*
X158527168Y-139436503D02*
G01*
X158519443Y-139447619D01*
X158498277Y-139465394D01*
X158494779Y-139465150D01*
X158489268Y-139450664D01*
X158516133Y-139425467D01*
X158530118Y-139419378D01*
X158527168Y-139436503D01*
G37*
G36*
X156743993Y-146745632D02*
G01*
X156744260Y-146785900D01*
X156730986Y-146813371D01*
X156716050Y-146816199D01*
X156710493Y-146771109D01*
X156715568Y-146742611D01*
X156734425Y-146734373D01*
X156743993Y-146745632D01*
G37*
G36*
X164082784Y-140892949D02*
G01*
X164105271Y-140916822D01*
X164109181Y-140926516D01*
X164094236Y-140941847D01*
X164086972Y-140940885D01*
X164067734Y-140916822D01*
X164068021Y-140911159D01*
X164078770Y-140891798D01*
X164082784Y-140892949D01*
G37*
G36*
X161959409Y-141074745D02*
G01*
X161966509Y-141077084D01*
X161961144Y-141083580D01*
X161915616Y-141086189D01*
X161898637Y-141085947D01*
X161864035Y-141081998D01*
X161871823Y-141074745D01*
X161895941Y-141070853D01*
X161959409Y-141074745D01*
G37*
G36*
X159694680Y-142114813D02*
G01*
X159721372Y-142137717D01*
X159738473Y-142158606D01*
X159738062Y-142162997D01*
X159721758Y-142163166D01*
X159685232Y-142124261D01*
X159671253Y-142106129D01*
X159665039Y-142093170D01*
X159694680Y-142114813D01*
G37*
G36*
X157028619Y-144163224D02*
G01*
X157020798Y-144205059D01*
X157009725Y-144226316D01*
X156992093Y-144234744D01*
X156987953Y-144221869D01*
X156995774Y-144180034D01*
X157006847Y-144158776D01*
X157024479Y-144150349D01*
X157028619Y-144163224D01*
G37*
G36*
X160339064Y-149298930D02*
G01*
X160314835Y-149311284D01*
X160253564Y-149324715D01*
X160242646Y-149324642D01*
X160216346Y-149319497D01*
X160236705Y-149307532D01*
X160301527Y-149290321D01*
X160324151Y-149285615D01*
X160353191Y-149284004D01*
X160339064Y-149298930D01*
G37*
G36*
X157155121Y-143875281D02*
G01*
X157148832Y-143921966D01*
X157118843Y-143979319D01*
X157082816Y-144018277D01*
X157066870Y-144016813D01*
X157072702Y-143980524D01*
X157101852Y-143915218D01*
X157121433Y-143880827D01*
X157143458Y-143857365D01*
X157155121Y-143875281D01*
G37*
G36*
X157106386Y-142616227D02*
G01*
X157110887Y-142665853D01*
X157110823Y-142672123D01*
X157103289Y-142720950D01*
X157086212Y-142731324D01*
X157070081Y-142697600D01*
X157072918Y-142645357D01*
X157093559Y-142602459D01*
X157095370Y-142601089D01*
X157106386Y-142616227D01*
G37*
G36*
X159548609Y-141831837D02*
G01*
X159576215Y-141901600D01*
X159598538Y-141969473D01*
X159603185Y-141992146D01*
X159594238Y-141989665D01*
X159565209Y-141942832D01*
X159557251Y-141928212D01*
X159527398Y-141858967D01*
X159515280Y-141805197D01*
X159516322Y-141788768D01*
X159526192Y-141787485D01*
X159548609Y-141831837D01*
G37*
G36*
X159338079Y-138828496D02*
G01*
X159337373Y-138830270D01*
X159310495Y-138848901D01*
X159256749Y-138875202D01*
X159209903Y-138895610D01*
X159173698Y-138909869D01*
X159165277Y-138908024D01*
X159173896Y-138892291D01*
X159183055Y-138883412D01*
X159222567Y-138861118D01*
X159274158Y-138839644D01*
X159318953Y-138826326D01*
X159338079Y-138828496D01*
G37*
G36*
X156789967Y-146497343D02*
G01*
X156807690Y-146508469D01*
X156805404Y-146546202D01*
X156782673Y-146619981D01*
X156779249Y-146629491D01*
X156758108Y-146675896D01*
X156743523Y-146688834D01*
X156739044Y-146675549D01*
X156741726Y-146628548D01*
X156754061Y-146569408D01*
X156771214Y-146518780D01*
X156788352Y-146497315D01*
X156789967Y-146497343D01*
G37*
G36*
X157469195Y-141375753D02*
G01*
X157432451Y-141426312D01*
X157364127Y-141510543D01*
X157327050Y-141553028D01*
X157285722Y-141593720D01*
X157265044Y-141604838D01*
X157263914Y-141603071D01*
X157272623Y-141572522D01*
X157304330Y-141520714D01*
X157349098Y-141461040D01*
X157396986Y-141406895D01*
X157438056Y-141371674D01*
X157455491Y-141361472D01*
X157476247Y-141355321D01*
X157469195Y-141375753D01*
G37*
G36*
X161278863Y-138479502D02*
G01*
X161333941Y-138500267D01*
X161412748Y-138540083D01*
X161501662Y-138591373D01*
X161589784Y-138647213D01*
X161666220Y-138700680D01*
X161720072Y-138744851D01*
X161740444Y-138772800D01*
X161733022Y-138773657D01*
X161694499Y-138758232D01*
X161634847Y-138728181D01*
X161567410Y-138690723D01*
X161505533Y-138653078D01*
X161462559Y-138622465D01*
X161437891Y-138606301D01*
X161372146Y-138574170D01*
X161290918Y-138542061D01*
X161260757Y-138530531D01*
X161204675Y-138500746D01*
X161188225Y-138478295D01*
X161212567Y-138469204D01*
X161278863Y-138479502D01*
G37*
G36*
X163716588Y-140685453D02*
G01*
X163753618Y-140745033D01*
X163793074Y-140836044D01*
X163832415Y-140948961D01*
X163869101Y-141074262D01*
X163900595Y-141202420D01*
X163924355Y-141323913D01*
X163937843Y-141429216D01*
X163938518Y-141508805D01*
X163923843Y-141553155D01*
X163909642Y-141551090D01*
X163897690Y-141513533D01*
X163886140Y-141440421D01*
X163860794Y-141316945D01*
X163828086Y-141180583D01*
X163792037Y-141046878D01*
X163756665Y-140931372D01*
X163725990Y-140849608D01*
X163701188Y-140792906D01*
X163674055Y-140718706D01*
X163669898Y-140678604D01*
X163687448Y-140666576D01*
X163716588Y-140685453D01*
G37*
G36*
X159112053Y-138943262D02*
G01*
X159060815Y-138984762D01*
X158970762Y-139046516D01*
X158968963Y-139047692D01*
X158868000Y-139119539D01*
X158766953Y-139200734D01*
X158687439Y-139273924D01*
X158631827Y-139330423D01*
X158587769Y-139373558D01*
X158568572Y-139390132D01*
X158565382Y-139389873D01*
X158564823Y-139371521D01*
X158594369Y-139329348D01*
X158646747Y-139270446D01*
X158714681Y-139201902D01*
X158790896Y-139130809D01*
X158868117Y-139064254D01*
X158939070Y-139009327D01*
X158996479Y-138973119D01*
X159026625Y-138958140D01*
X159095584Y-138928166D01*
X159123851Y-138923802D01*
X159112053Y-138943262D01*
G37*
G36*
X157098754Y-142930893D02*
G01*
X157110330Y-142979016D01*
X157122511Y-143065434D01*
X157136571Y-143195975D01*
X157144074Y-143263849D01*
X157161395Y-143390425D01*
X157180792Y-143503870D01*
X157199306Y-143585797D01*
X157212583Y-143635167D01*
X157229425Y-143708814D01*
X157236010Y-143754713D01*
X157232800Y-143774226D01*
X157210986Y-143794655D01*
X157203874Y-143794454D01*
X157188637Y-143787110D01*
X157179309Y-143758563D01*
X157170060Y-143694556D01*
X157168932Y-143685909D01*
X157161090Y-143626941D01*
X157148424Y-143532534D01*
X157132420Y-143413750D01*
X157114565Y-143281650D01*
X157108375Y-143235229D01*
X157093221Y-143114424D01*
X157082212Y-143015648D01*
X157076315Y-142948075D01*
X157076500Y-142920878D01*
X157086512Y-142915239D01*
X157098754Y-142930893D01*
G37*
G36*
X156954838Y-144326363D02*
G01*
X156954558Y-144354419D01*
X156940707Y-144421634D01*
X156914772Y-144502691D01*
X156895399Y-144568566D01*
X156871382Y-144690334D01*
X156850665Y-144838312D01*
X156834553Y-144998876D01*
X156824353Y-145158402D01*
X156821369Y-145303268D01*
X156826905Y-145419849D01*
X156831720Y-145479334D01*
X156830321Y-145547723D01*
X156817072Y-145571404D01*
X156813005Y-145570499D01*
X156794464Y-145538569D01*
X156780799Y-145467611D01*
X156772503Y-145366720D01*
X156770069Y-145244991D01*
X156773991Y-145111519D01*
X156784760Y-144975401D01*
X156787393Y-144952396D01*
X156803166Y-144845488D01*
X156824710Y-144730369D01*
X156849876Y-144615237D01*
X156876515Y-144508291D01*
X156902480Y-144417732D01*
X156925621Y-144351758D01*
X156943790Y-144318568D01*
X156954838Y-144326363D01*
G37*
G36*
X161654661Y-149243913D02*
G01*
X161663512Y-149250472D01*
X161746402Y-149301124D01*
X161863928Y-149361193D01*
X162004752Y-149425686D01*
X162157538Y-149489610D01*
X162310948Y-149547972D01*
X162453646Y-149595780D01*
X162462650Y-149598515D01*
X162598526Y-149634720D01*
X162744206Y-149663245D01*
X162909740Y-149685457D01*
X163105177Y-149702722D01*
X163340565Y-149716406D01*
X163394571Y-149719238D01*
X163509238Y-149727190D01*
X163597428Y-149736099D01*
X163651293Y-149745070D01*
X163662987Y-149753207D01*
X163652294Y-149756345D01*
X163597149Y-149761283D01*
X163506115Y-149763576D01*
X163388834Y-149763071D01*
X163254947Y-149759618D01*
X163171753Y-149755956D01*
X162827448Y-149723781D01*
X162516194Y-149664105D01*
X162229623Y-149574957D01*
X161959368Y-149454365D01*
X161857817Y-149399205D01*
X161753933Y-149337150D01*
X161671183Y-149281690D01*
X161621535Y-149240407D01*
X161552759Y-149165576D01*
X161654661Y-149243913D01*
G37*
G36*
X156837517Y-145668292D02*
G01*
X156855542Y-145685552D01*
X156862165Y-145693022D01*
X156918904Y-145781156D01*
X156972300Y-145901855D01*
X157017175Y-146039523D01*
X157048351Y-146178562D01*
X157060649Y-146303374D01*
X157056534Y-146311975D01*
X157023301Y-146322143D01*
X156998569Y-146309537D01*
X156985764Y-146258150D01*
X156983040Y-146217104D01*
X156969964Y-146135975D01*
X156950027Y-146049863D01*
X156927659Y-145976973D01*
X156907288Y-145935512D01*
X156895208Y-145914115D01*
X156884079Y-145860438D01*
X156882899Y-145833968D01*
X156877280Y-145825624D01*
X156860744Y-145863056D01*
X156855064Y-145882328D01*
X156846140Y-145952802D01*
X156845740Y-146036458D01*
X156846824Y-146067635D01*
X156844027Y-146159353D01*
X156834100Y-146232786D01*
X156832259Y-146239167D01*
X156825210Y-146236102D01*
X156819457Y-146188053D01*
X156815328Y-146099104D01*
X156813153Y-145973335D01*
X156812984Y-145950763D01*
X156812424Y-145822838D01*
X156813614Y-145737306D01*
X156817537Y-145687491D01*
X156825177Y-145666712D01*
X156837517Y-145668292D01*
G37*
G36*
X166965010Y-148111404D02*
G01*
X166977290Y-148126395D01*
X167010353Y-148193762D01*
X167031340Y-148276248D01*
X167037107Y-148329213D01*
X167032762Y-148385275D01*
X167008737Y-148440238D01*
X166958979Y-148513982D01*
X166921967Y-148565816D01*
X166859821Y-148654339D01*
X166809769Y-148727319D01*
X166800729Y-148740252D01*
X166737531Y-148815554D01*
X166670834Y-148877467D01*
X166652028Y-148891976D01*
X166576016Y-148952266D01*
X166500058Y-149014363D01*
X166289847Y-149178063D01*
X165989330Y-149371547D01*
X165691148Y-149515509D01*
X165604528Y-149549902D01*
X165415277Y-149621170D01*
X165252585Y-149674697D01*
X165103368Y-149713592D01*
X164954547Y-149740967D01*
X164793039Y-149759931D01*
X164605764Y-149773597D01*
X164501488Y-149779523D01*
X164302224Y-149789119D01*
X164146955Y-149793653D01*
X164031677Y-149793146D01*
X163952385Y-149787617D01*
X163905074Y-149777086D01*
X163906482Y-149770858D01*
X163949805Y-149762985D01*
X164034071Y-149755188D01*
X164154289Y-149747910D01*
X164305468Y-149741592D01*
X164456465Y-149736065D01*
X164653214Y-149726814D01*
X164816151Y-149714922D01*
X164955108Y-149698453D01*
X165079916Y-149675466D01*
X165200406Y-149644025D01*
X165326410Y-149602189D01*
X165467760Y-149548022D01*
X165634285Y-149479583D01*
X165724902Y-149441124D01*
X165842027Y-149387818D01*
X165942709Y-149335219D01*
X166045713Y-149273243D01*
X166169803Y-149191806D01*
X166236523Y-149146523D01*
X166448462Y-148993524D01*
X166619599Y-148852919D01*
X166754546Y-148720304D01*
X166857913Y-148591273D01*
X166934310Y-148461422D01*
X166974977Y-148350020D01*
X166979256Y-148232623D01*
X166939197Y-148111404D01*
X166914851Y-148061354D01*
X166965010Y-148111404D01*
G37*
G36*
X158452751Y-139502028D02*
G01*
X158433179Y-139530277D01*
X158392968Y-139575666D01*
X158339125Y-139630619D01*
X158278662Y-139687556D01*
X158218588Y-139738898D01*
X158169863Y-139780358D01*
X158085113Y-139858032D01*
X157988715Y-139950810D01*
X157893509Y-140046541D01*
X157890717Y-140049425D01*
X157749239Y-140210040D01*
X157641941Y-140368323D01*
X157562778Y-140537117D01*
X157505704Y-140729264D01*
X157464675Y-140957609D01*
X157460545Y-140983044D01*
X157436618Y-141066052D01*
X157392036Y-141153394D01*
X157319378Y-141260545D01*
X157311810Y-141271020D01*
X157240388Y-141378106D01*
X157172750Y-141492000D01*
X157122617Y-141589742D01*
X157110394Y-141617148D01*
X157086821Y-141674320D01*
X157071440Y-141726031D01*
X157063065Y-141783374D01*
X157060515Y-141857440D01*
X157062606Y-141959320D01*
X157068153Y-142100106D01*
X157068950Y-142119577D01*
X157073108Y-142259024D01*
X157072902Y-142356432D01*
X157068403Y-142409188D01*
X157059680Y-142414680D01*
X157058663Y-142412621D01*
X157048574Y-142368195D01*
X157038206Y-142285922D01*
X157028725Y-142176799D01*
X157021294Y-142051823D01*
X157006311Y-141730123D01*
X157108524Y-141529926D01*
X157119869Y-141508039D01*
X157182002Y-141396319D01*
X157247727Y-141288628D01*
X157304578Y-141205588D01*
X157361127Y-141121633D01*
X157396418Y-141036108D01*
X157414740Y-140930317D01*
X157423735Y-140859780D01*
X157478776Y-140619872D01*
X157571819Y-140400413D01*
X157706844Y-140193504D01*
X157887833Y-139991243D01*
X157968250Y-139912993D01*
X158086207Y-139801679D01*
X158199856Y-139698061D01*
X158301421Y-139609056D01*
X158383125Y-139541583D01*
X158437192Y-139502557D01*
X158444671Y-139498500D01*
X158452751Y-139502028D01*
G37*
G36*
X156677610Y-146975783D02*
G01*
X156659620Y-147044966D01*
X156629406Y-147136735D01*
X156591518Y-147238897D01*
X156550506Y-147339256D01*
X156510918Y-147425618D01*
X156477305Y-147485788D01*
X156438913Y-147538491D01*
X156378451Y-147616011D01*
X156312083Y-147697190D01*
X156237378Y-147789481D01*
X156183324Y-147869507D01*
X156152509Y-147941600D01*
X156138856Y-148020393D01*
X156136287Y-148120520D01*
X156138136Y-148186144D01*
X156156773Y-148328147D01*
X156200223Y-148439710D01*
X156274554Y-148532984D01*
X156385836Y-148620121D01*
X156482078Y-148680518D01*
X156599875Y-148747536D01*
X156704237Y-148800503D01*
X156706546Y-148801570D01*
X156784261Y-148841067D01*
X156839572Y-148875898D01*
X156860641Y-148898633D01*
X156860496Y-148903439D01*
X156854146Y-148918637D01*
X156833006Y-148919995D01*
X156789697Y-148905151D01*
X156716844Y-148871740D01*
X156607069Y-148817400D01*
X156578590Y-148802975D01*
X156405535Y-148706885D01*
X156274687Y-148614466D01*
X156180388Y-148518726D01*
X156116979Y-148412674D01*
X156078804Y-148289320D01*
X156060204Y-148141671D01*
X156047340Y-147946718D01*
X155933319Y-148019180D01*
X155930058Y-148021285D01*
X155856511Y-148080160D01*
X155773549Y-148162678D01*
X155698513Y-148251671D01*
X155677597Y-148278923D01*
X155628295Y-148337938D01*
X155600198Y-148362477D01*
X155596852Y-148349138D01*
X155606997Y-148322002D01*
X155663804Y-148225812D01*
X155749680Y-148121541D01*
X155853117Y-148020777D01*
X155962603Y-147935110D01*
X156066630Y-147876128D01*
X156092914Y-147863828D01*
X156156365Y-147821385D01*
X156217528Y-147756601D01*
X156288098Y-147657956D01*
X156288331Y-147657604D01*
X156377118Y-147517286D01*
X156462713Y-147370543D01*
X156538738Y-147229231D01*
X156598813Y-147105204D01*
X156636561Y-147010320D01*
X156646397Y-146982561D01*
X156666625Y-146943554D01*
X156679709Y-146943242D01*
X156677610Y-146975783D01*
G37*
G36*
X155602549Y-148572206D02*
G01*
X155621230Y-148642036D01*
X155635552Y-148703008D01*
X155674157Y-148801205D01*
X155737051Y-148904009D01*
X155831587Y-149024803D01*
X155859442Y-149057797D01*
X155931969Y-149140031D01*
X155994483Y-149200534D01*
X156060794Y-149250096D01*
X156144712Y-149299507D01*
X156260050Y-149359558D01*
X156261352Y-149360220D01*
X156523816Y-149474044D01*
X156827089Y-149571220D01*
X157164361Y-149650397D01*
X157528822Y-149710225D01*
X157913661Y-149749352D01*
X158312069Y-149766430D01*
X158317654Y-149766505D01*
X158643000Y-149762798D01*
X158929580Y-149741633D01*
X159185872Y-149701694D01*
X159420354Y-149641666D01*
X159641504Y-149560235D01*
X159649685Y-149556760D01*
X159744768Y-149518611D01*
X159796939Y-149502772D01*
X159805617Y-149509341D01*
X159770223Y-149538416D01*
X159720871Y-149566816D01*
X159618941Y-149611519D01*
X159489566Y-149658591D01*
X159345349Y-149703865D01*
X159198896Y-149743174D01*
X159062808Y-149772349D01*
X158937718Y-149790312D01*
X158770334Y-149805835D01*
X158584998Y-149816360D01*
X158392985Y-149821744D01*
X158205572Y-149821838D01*
X158034034Y-149816497D01*
X157889648Y-149805574D01*
X157783689Y-149788925D01*
X157705639Y-149772855D01*
X157601399Y-149757120D01*
X157519090Y-149750887D01*
X157486432Y-149749985D01*
X157431705Y-149745084D01*
X157363339Y-149734689D01*
X157274367Y-149717409D01*
X157157819Y-149691858D01*
X157006729Y-149656645D01*
X156814128Y-149610382D01*
X156790822Y-149604702D01*
X156607809Y-149556647D01*
X156460055Y-149509521D01*
X156334669Y-149458118D01*
X156218761Y-149397229D01*
X156099442Y-149321646D01*
X155989748Y-149240068D01*
X155850722Y-149113057D01*
X155732203Y-148977108D01*
X155640158Y-148840241D01*
X155580554Y-148710476D01*
X155559360Y-148595832D01*
X155559370Y-148593160D01*
X155566297Y-148543794D01*
X155582464Y-148538134D01*
X155602549Y-148572206D01*
G37*
G36*
X161802191Y-138820316D02*
G01*
X161856487Y-138853004D01*
X161895184Y-138877791D01*
X161942773Y-138902268D01*
X162000250Y-138923339D01*
X162077474Y-138943976D01*
X162184305Y-138967148D01*
X162330602Y-138995826D01*
X162486953Y-139033079D01*
X162683083Y-139107669D01*
X162856202Y-139212494D01*
X163012600Y-139352496D01*
X163158567Y-139532617D01*
X163300393Y-139757799D01*
X163310036Y-139774824D01*
X163374711Y-139892783D01*
X163431420Y-140002349D01*
X163474343Y-140091949D01*
X163497660Y-140150012D01*
X163535449Y-140228813D01*
X163618001Y-140304167D01*
X163648373Y-140327321D01*
X163714732Y-140386692D01*
X163802998Y-140471322D01*
X163906447Y-140574248D01*
X164018357Y-140688507D01*
X164132003Y-140807135D01*
X164240662Y-140923168D01*
X164337611Y-141029642D01*
X164416125Y-141119594D01*
X164469482Y-141186060D01*
X164500375Y-141226167D01*
X164542111Y-141273670D01*
X164566285Y-141292192D01*
X164579642Y-141297058D01*
X164627030Y-141327111D01*
X164695330Y-141377472D01*
X164773905Y-141439849D01*
X164852115Y-141505944D01*
X164919323Y-141567463D01*
X164982391Y-141630331D01*
X165134223Y-141800310D01*
X165263854Y-141978943D01*
X165380542Y-142179925D01*
X165493544Y-142416951D01*
X165527808Y-142496474D01*
X165566739Y-142593468D01*
X165602817Y-142693650D01*
X165639848Y-142808347D01*
X165681640Y-142948886D01*
X165731997Y-143126595D01*
X165745001Y-143164984D01*
X165792392Y-143264080D01*
X165850246Y-143351817D01*
X165851389Y-143353242D01*
X165897364Y-143417284D01*
X165959157Y-143512244D01*
X166028821Y-143625544D01*
X166098409Y-143744606D01*
X166152607Y-143841381D01*
X166209162Y-143948976D01*
X166254513Y-144047544D01*
X166294598Y-144151454D01*
X166335353Y-144275077D01*
X166382714Y-144432783D01*
X166408422Y-144533764D01*
X166439034Y-144680506D01*
X166469627Y-144851005D01*
X166497761Y-145031579D01*
X166520999Y-145208546D01*
X166522653Y-145222580D01*
X166536043Y-145330791D01*
X166549119Y-145428597D01*
X166559266Y-145496330D01*
X166561564Y-145511026D01*
X166563461Y-145556884D01*
X166550673Y-145558891D01*
X166539381Y-145536833D01*
X166519299Y-145464473D01*
X166495950Y-145347923D01*
X166469990Y-145190579D01*
X166442074Y-144995837D01*
X166429480Y-144904524D01*
X166407496Y-144760066D01*
X166385592Y-144643676D01*
X166360506Y-144541081D01*
X166328979Y-144438004D01*
X166287749Y-144320172D01*
X166264238Y-144256546D01*
X166173066Y-144029791D01*
X166080258Y-143828326D01*
X165988910Y-143658048D01*
X165902118Y-143524856D01*
X165822978Y-143434648D01*
X165822325Y-143434061D01*
X165791264Y-143409808D01*
X165770392Y-143408445D01*
X165756296Y-143436733D01*
X165745563Y-143501431D01*
X165734780Y-143609299D01*
X165726167Y-143674043D01*
X165702558Y-143782864D01*
X165673052Y-143872057D01*
X165661976Y-143896044D01*
X165617636Y-143975159D01*
X165567422Y-144047233D01*
X165520762Y-144099694D01*
X165487085Y-144119975D01*
X165483324Y-144119613D01*
X165469020Y-144098765D01*
X165476542Y-144063330D01*
X165501571Y-144037801D01*
X165504605Y-144036091D01*
X165531209Y-144001633D01*
X165567074Y-143934827D01*
X165605333Y-143848223D01*
X165621603Y-143807458D01*
X165644291Y-143745351D01*
X165659037Y-143689280D01*
X165666996Y-143628037D01*
X165669322Y-143550415D01*
X165667170Y-143445206D01*
X165661695Y-143301203D01*
X165658730Y-143235642D01*
X165645481Y-143056182D01*
X165623670Y-142907335D01*
X165589845Y-142774458D01*
X165540554Y-142642913D01*
X165472346Y-142498059D01*
X165449776Y-142452746D01*
X165405127Y-142361596D01*
X165360032Y-142268152D01*
X165319963Y-142190475D01*
X165222278Y-142031308D01*
X165106402Y-141871780D01*
X164980239Y-141721017D01*
X164851695Y-141588148D01*
X164728675Y-141482299D01*
X164619082Y-141412598D01*
X164579355Y-141386393D01*
X164513906Y-141329323D01*
X164447282Y-141259501D01*
X164399538Y-141207503D01*
X164314563Y-141124479D01*
X164236748Y-141058031D01*
X164196104Y-141024924D01*
X164148748Y-140978769D01*
X164130296Y-140949178D01*
X164125902Y-140935401D01*
X164094641Y-140892165D01*
X164044142Y-140838607D01*
X163987278Y-140786875D01*
X163936922Y-140749116D01*
X163905949Y-140737479D01*
X163897487Y-140739230D01*
X163898873Y-140726998D01*
X163901696Y-140702247D01*
X163878370Y-140665544D01*
X163842380Y-140636804D01*
X163810277Y-140633496D01*
X163799486Y-140637806D01*
X163802760Y-140620112D01*
X163803651Y-140603818D01*
X163778539Y-140556558D01*
X163725296Y-140494644D01*
X163627541Y-140406535D01*
X163544493Y-140356756D01*
X163468788Y-140341256D01*
X163455256Y-140339428D01*
X163422654Y-140311182D01*
X163416450Y-140266551D01*
X163442119Y-140228645D01*
X163448755Y-140223548D01*
X163467143Y-140185460D01*
X163466003Y-140176482D01*
X163450703Y-140174182D01*
X163435876Y-140164712D01*
X163408612Y-140119227D01*
X163376088Y-140047484D01*
X163348091Y-139983448D01*
X163304851Y-139897382D01*
X163267405Y-139836032D01*
X163263874Y-139831200D01*
X163230580Y-139778932D01*
X163216897Y-139744742D01*
X163210847Y-139727252D01*
X163179360Y-139690615D01*
X163160004Y-139667757D01*
X163141823Y-139612336D01*
X163134046Y-139590332D01*
X163099259Y-139537077D01*
X163045407Y-139468699D01*
X162982271Y-139396260D01*
X162919629Y-139330822D01*
X162867260Y-139283447D01*
X162834944Y-139265197D01*
X162833280Y-139265092D01*
X162796285Y-139249704D01*
X162742813Y-139216133D01*
X162663448Y-139171043D01*
X162533217Y-139119194D01*
X162378450Y-139073896D01*
X162213096Y-139039128D01*
X162051102Y-139018867D01*
X162026216Y-139011625D01*
X161968580Y-138981245D01*
X161900100Y-138936276D01*
X161834363Y-138886550D01*
X161784957Y-138841900D01*
X161765468Y-138812160D01*
X161769633Y-138808742D01*
X161802191Y-138820316D01*
G37*
G36*
X160856043Y-138466046D02*
G01*
X160879651Y-138475958D01*
X160859593Y-138493021D01*
X160799230Y-138515113D01*
X160701922Y-138540111D01*
X160633619Y-138557597D01*
X160550388Y-138584680D01*
X160495468Y-138609580D01*
X160477250Y-138623097D01*
X160445418Y-138663965D01*
X160441647Y-138699483D01*
X160469626Y-138714655D01*
X160479519Y-138717198D01*
X160529133Y-138739501D01*
X160610684Y-138781243D01*
X160716583Y-138838102D01*
X160839242Y-138905756D01*
X160971073Y-138979883D01*
X161104489Y-139056160D01*
X161231901Y-139130265D01*
X161345722Y-139197876D01*
X161438365Y-139254671D01*
X161502240Y-139296329D01*
X161529761Y-139318525D01*
X161529769Y-139318537D01*
X161556140Y-139342898D01*
X161612153Y-139385588D01*
X161685690Y-139437374D01*
X161758878Y-139489407D01*
X161836671Y-139549376D01*
X161890591Y-139596233D01*
X161908267Y-139612687D01*
X161978354Y-139669012D01*
X162055800Y-139722446D01*
X162144028Y-139789873D01*
X162261339Y-139919566D01*
X162360509Y-140078497D01*
X162369824Y-140095859D01*
X162426398Y-140184508D01*
X162488962Y-140264433D01*
X162511562Y-140290595D01*
X162550750Y-140342782D01*
X162566256Y-140374540D01*
X162566528Y-140376353D01*
X162587292Y-140407775D01*
X162634611Y-140461298D01*
X162699301Y-140526436D01*
X162711443Y-140538225D01*
X162881100Y-140734707D01*
X163034283Y-140972555D01*
X163167226Y-141245113D01*
X163276164Y-141545729D01*
X163286405Y-141581880D01*
X163314266Y-141701774D01*
X163343251Y-141852613D01*
X163370885Y-142020884D01*
X163394694Y-142193078D01*
X163414691Y-142360451D01*
X163428101Y-142493690D01*
X163435023Y-142602342D01*
X163435932Y-142698957D01*
X163431301Y-142796086D01*
X163421603Y-142906280D01*
X163398924Y-143082769D01*
X163357600Y-143278201D01*
X163297301Y-143459366D01*
X163213744Y-143635024D01*
X163102641Y-143813938D01*
X162959707Y-144004869D01*
X162780657Y-144216578D01*
X162768062Y-144230859D01*
X162596604Y-144426649D01*
X162451849Y-144594672D01*
X162335272Y-144733151D01*
X162248347Y-144840306D01*
X162192550Y-144914361D01*
X162169356Y-144953537D01*
X162165167Y-144961348D01*
X162132405Y-145001520D01*
X162075380Y-145062166D01*
X162003157Y-145133473D01*
X161904324Y-145237437D01*
X161769670Y-145410336D01*
X161654791Y-145594676D01*
X161571710Y-145772647D01*
X161562910Y-145795513D01*
X161522413Y-145893210D01*
X161471283Y-146009132D01*
X161418457Y-146122859D01*
X161370263Y-146233730D01*
X161320269Y-146377778D01*
X161290604Y-146502940D01*
X161275395Y-146590023D01*
X161257529Y-146674461D01*
X161242427Y-146728536D01*
X161234995Y-146752255D01*
X161217885Y-146838438D01*
X161202805Y-146954520D01*
X161190647Y-147087266D01*
X161182302Y-147223445D01*
X161178663Y-147349822D01*
X161180622Y-147453163D01*
X161189070Y-147520237D01*
X161195707Y-147547074D01*
X161206244Y-147610273D01*
X161204349Y-147645317D01*
X161202219Y-147664452D01*
X161210612Y-147721848D01*
X161228975Y-147799619D01*
X161252949Y-147881840D01*
X161278176Y-147952586D01*
X161300298Y-147995930D01*
X161320587Y-148026428D01*
X161358638Y-148090657D01*
X161402611Y-148169724D01*
X161486842Y-148292276D01*
X161627833Y-148428235D01*
X161635973Y-148434702D01*
X161778793Y-148545357D01*
X161898707Y-148630107D01*
X162009231Y-148696257D01*
X162123883Y-148751113D01*
X162256177Y-148801978D01*
X162419630Y-148856159D01*
X162591020Y-148909830D01*
X162742499Y-148954068D01*
X162871372Y-148985777D01*
X162989736Y-149006557D01*
X163109684Y-149018009D01*
X163243312Y-149021734D01*
X163402714Y-149019334D01*
X163599985Y-149012410D01*
X163797817Y-149004573D01*
X163974568Y-148997307D01*
X164113179Y-148991116D01*
X164219887Y-148985589D01*
X164300928Y-148980314D01*
X164362539Y-148974880D01*
X164410955Y-148968876D01*
X164452415Y-148961891D01*
X164493153Y-148953513D01*
X164518443Y-148948021D01*
X164683900Y-148911723D01*
X164808440Y-148883471D01*
X164899223Y-148861451D01*
X164963406Y-148843845D01*
X165008146Y-148828837D01*
X165040603Y-148814612D01*
X165101482Y-148788787D01*
X165181330Y-148763659D01*
X165210592Y-148754567D01*
X165287982Y-148721173D01*
X165369015Y-148677306D01*
X165426839Y-148645439D01*
X165522019Y-148603986D01*
X165645175Y-148561577D01*
X165806946Y-148514250D01*
X165813848Y-148512491D01*
X165862590Y-148501649D01*
X165932069Y-148487325D01*
X165978437Y-148474597D01*
X166060467Y-148439571D01*
X166139726Y-148393652D01*
X166205351Y-148344360D01*
X166246477Y-148299214D01*
X166252241Y-148265733D01*
X166248444Y-148256310D01*
X166265076Y-148258569D01*
X166268408Y-148260088D01*
X166296773Y-148245080D01*
X166331198Y-148191345D01*
X166368648Y-148108006D01*
X166406090Y-148004188D01*
X166440492Y-147889013D01*
X166468821Y-147771607D01*
X166488042Y-147661092D01*
X166495123Y-147566594D01*
X166502526Y-147483792D01*
X166520415Y-147398036D01*
X166544091Y-147307064D01*
X166589558Y-147042998D01*
X166612452Y-146738619D01*
X166612473Y-146397216D01*
X166608932Y-146305510D01*
X166601362Y-146168338D01*
X166592147Y-146050520D01*
X166582141Y-145962286D01*
X166572196Y-145913863D01*
X166563967Y-145885902D01*
X166551115Y-145804397D01*
X166546759Y-145713666D01*
X166547674Y-145678398D01*
X166553344Y-145626985D01*
X166563485Y-145622777D01*
X166577585Y-145663948D01*
X166595133Y-145748674D01*
X166615619Y-145875130D01*
X166638533Y-146041492D01*
X166658523Y-146211314D01*
X166677274Y-146439290D01*
X166683201Y-146654664D01*
X166675772Y-146869474D01*
X166654450Y-147095760D01*
X166618703Y-147345560D01*
X166567995Y-147630911D01*
X166556135Y-147696225D01*
X166549358Y-147767337D01*
X166562001Y-147811755D01*
X166599636Y-147843101D01*
X166667834Y-147874996D01*
X166710118Y-147895094D01*
X166790395Y-147942601D01*
X166847368Y-147988303D01*
X166848026Y-147989004D01*
X166882809Y-148032464D01*
X166880900Y-148046692D01*
X166846156Y-148031729D01*
X166782433Y-147987616D01*
X166719973Y-147946069D01*
X166630991Y-147910366D01*
X166559682Y-147910972D01*
X166512306Y-147947216D01*
X166495123Y-148018427D01*
X166493634Y-148034221D01*
X166471888Y-148104283D01*
X166430641Y-148192591D01*
X166378165Y-148282819D01*
X166322734Y-148358640D01*
X166277273Y-148402840D01*
X166170145Y-148473913D01*
X166019820Y-148544497D01*
X165822916Y-148616334D01*
X165730814Y-148647388D01*
X165573886Y-148702159D01*
X165409942Y-148761103D01*
X165262388Y-148815885D01*
X165146626Y-148857566D01*
X165015962Y-148900000D01*
X164899686Y-148933240D01*
X164813773Y-148952423D01*
X164740652Y-148965047D01*
X164674753Y-148978361D01*
X164643144Y-148987363D01*
X164603392Y-149000406D01*
X164518557Y-149015287D01*
X164398543Y-149029767D01*
X164251178Y-149043046D01*
X164084290Y-149054321D01*
X163905709Y-149062794D01*
X163817851Y-149066282D01*
X163692861Y-149072014D01*
X163592044Y-149077593D01*
X163524018Y-149082522D01*
X163497397Y-149086306D01*
X163479893Y-149088610D01*
X163421138Y-149089740D01*
X163331444Y-149088863D01*
X163221491Y-149085992D01*
X163154480Y-149083187D01*
X162973780Y-149067926D01*
X162802350Y-149039451D01*
X162622392Y-148994290D01*
X162416109Y-148928975D01*
X162412439Y-148927728D01*
X162256223Y-148873577D01*
X162132031Y-148826577D01*
X162028024Y-148780312D01*
X161932363Y-148728364D01*
X161833207Y-148664317D01*
X161718715Y-148581755D01*
X161577048Y-148474261D01*
X161503278Y-148411466D01*
X161385420Y-148275778D01*
X161288020Y-148108955D01*
X161207934Y-147905103D01*
X161142020Y-147658325D01*
X161137074Y-147635959D01*
X161116244Y-147537477D01*
X161103480Y-147459351D01*
X161098375Y-147387573D01*
X161100522Y-147308135D01*
X161109515Y-147207029D01*
X161124947Y-147070247D01*
X161133559Y-146998233D01*
X161168905Y-146744150D01*
X161207353Y-146533969D01*
X161250072Y-146362809D01*
X161298232Y-146225787D01*
X161353002Y-146118022D01*
X161390997Y-146050066D01*
X161447316Y-145929735D01*
X161489822Y-145816245D01*
X161505309Y-145770138D01*
X161586601Y-145587682D01*
X161699705Y-145395330D01*
X161836278Y-145206191D01*
X161987980Y-145033374D01*
X162050687Y-144967767D01*
X162132576Y-144878021D01*
X162199495Y-144800059D01*
X162241142Y-144745591D01*
X162264191Y-144712925D01*
X162326991Y-144633919D01*
X162394717Y-144557906D01*
X162399668Y-144552737D01*
X162467667Y-144481783D01*
X162551710Y-144394144D01*
X162634773Y-144307572D01*
X162684862Y-144253435D01*
X162818616Y-144093494D01*
X162958942Y-143906385D01*
X163095814Y-143705209D01*
X163114786Y-143673739D01*
X163169642Y-143566207D01*
X163230933Y-143427169D01*
X163293584Y-143268543D01*
X163352519Y-143102251D01*
X163352848Y-143101260D01*
X163368998Y-143046969D01*
X163379303Y-142992737D01*
X163384058Y-142928581D01*
X163383554Y-142844517D01*
X163378086Y-142730562D01*
X163367946Y-142576733D01*
X163367840Y-142575208D01*
X163353700Y-142391052D01*
X163338234Y-142234903D01*
X163318929Y-142087575D01*
X163293273Y-141929882D01*
X163258756Y-141742635D01*
X163258084Y-141739237D01*
X163244227Y-141681151D01*
X163221152Y-141594230D01*
X163193481Y-141495941D01*
X163176049Y-141441313D01*
X163124627Y-141309983D01*
X163058605Y-141167465D01*
X162983437Y-141023398D01*
X162904578Y-140887423D01*
X162827482Y-140769179D01*
X162757604Y-140678308D01*
X162700396Y-140624447D01*
X162682531Y-140610492D01*
X162632147Y-140558881D01*
X162561133Y-140474080D01*
X162467783Y-140353925D01*
X162350391Y-140196252D01*
X162207249Y-139998897D01*
X162152905Y-139931748D01*
X162043699Y-139819245D01*
X161906847Y-139695227D01*
X161751907Y-139567185D01*
X161588440Y-139442610D01*
X161426004Y-139328990D01*
X161274159Y-139233817D01*
X161142464Y-139164581D01*
X161112379Y-139150268D01*
X161026359Y-139106225D01*
X160921392Y-139049739D01*
X160813773Y-138989491D01*
X160774283Y-138967298D01*
X160647873Y-138900107D01*
X160519194Y-138836293D01*
X160410768Y-138787162D01*
X160244800Y-138732748D01*
X160059712Y-138707892D01*
X159858631Y-138717961D01*
X159631321Y-138762634D01*
X159577799Y-138775638D01*
X159484374Y-138795090D01*
X159416945Y-138805026D01*
X159380192Y-138805718D01*
X159378788Y-138797437D01*
X159417412Y-138780455D01*
X159500739Y-138755045D01*
X159568462Y-138735828D01*
X159664985Y-138706819D01*
X159738473Y-138682893D01*
X159767434Y-138675378D01*
X159850953Y-138663356D01*
X159959766Y-138655014D01*
X160077820Y-138651823D01*
X160145928Y-138651180D01*
X160261847Y-138645503D01*
X160340545Y-138633085D01*
X160390627Y-138612853D01*
X160444567Y-138583224D01*
X160542638Y-138540514D01*
X160650163Y-138502354D01*
X160749189Y-138474925D01*
X160821764Y-138464409D01*
X160856043Y-138466046D01*
G37*
G36*
X161954390Y-140363847D02*
G01*
X161994212Y-140404505D01*
X162120792Y-140543884D01*
X162232459Y-140678370D01*
X162321229Y-140800002D01*
X162323905Y-140804039D01*
X162397583Y-140917844D01*
X162463745Y-141024745D01*
X162517303Y-141116074D01*
X162553170Y-141183165D01*
X162566256Y-141217350D01*
X162566861Y-141221892D01*
X162582829Y-141262867D01*
X162613716Y-141322042D01*
X162632010Y-141357331D01*
X162678623Y-141474137D01*
X162691900Y-141517413D01*
X162722739Y-141617929D01*
X162759055Y-141767660D01*
X162760177Y-141772286D01*
X162786756Y-141920784D01*
X162798294Y-142047002D01*
X162797000Y-142148890D01*
X162796195Y-142155542D01*
X162785555Y-142243446D01*
X162760688Y-142348143D01*
X162719136Y-142480862D01*
X162714514Y-142494650D01*
X162679760Y-142593683D01*
X162654313Y-142658038D01*
X162644340Y-142683261D01*
X162603238Y-142773858D01*
X162551439Y-142875951D01*
X162507701Y-142956330D01*
X162483930Y-143000015D01*
X162395695Y-143156527D01*
X162384090Y-143177459D01*
X162341468Y-143258656D01*
X162289601Y-143361683D01*
X162237207Y-143469335D01*
X162227945Y-143488726D01*
X162165188Y-143619729D01*
X162097756Y-143759974D01*
X162038732Y-143882241D01*
X162032240Y-143895730D01*
X161976003Y-144017895D01*
X161920054Y-144147131D01*
X161875615Y-144257611D01*
X161871800Y-144267538D01*
X161822714Y-144380120D01*
X161759856Y-144506255D01*
X161758958Y-144507857D01*
X161695847Y-144620468D01*
X161642046Y-144704784D01*
X161573612Y-144804196D01*
X161500471Y-144904585D01*
X161429159Y-144997454D01*
X161366210Y-145074307D01*
X161318163Y-145126650D01*
X161291551Y-145145985D01*
X161275695Y-145154942D01*
X161234761Y-145196628D01*
X161180184Y-145262755D01*
X161119891Y-145342685D01*
X161061807Y-145425777D01*
X161013857Y-145501392D01*
X160983968Y-145558891D01*
X160957270Y-145629464D01*
X160922035Y-145729978D01*
X160887657Y-145834162D01*
X160856113Y-145932165D01*
X160824631Y-146027858D01*
X160801179Y-146096921D01*
X160761400Y-146218073D01*
X160726775Y-146349740D01*
X160702589Y-146484304D01*
X160687264Y-146633510D01*
X160679226Y-146809105D01*
X160676897Y-147022832D01*
X160677286Y-147146461D01*
X160679657Y-147296058D01*
X160684814Y-147411526D01*
X160693477Y-147502393D01*
X160706367Y-147578191D01*
X160724205Y-147648448D01*
X160747355Y-147725864D01*
X160786356Y-147849046D01*
X160826061Y-147967389D01*
X160862706Y-148070114D01*
X160892529Y-148146445D01*
X160911765Y-148185605D01*
X160925563Y-148209969D01*
X160954329Y-148270638D01*
X160988333Y-148349138D01*
X161066297Y-148514205D01*
X161200421Y-148734625D01*
X161352441Y-148924704D01*
X161359535Y-148932329D01*
X161449118Y-149030744D01*
X161502838Y-149094647D01*
X161520839Y-149124268D01*
X161503264Y-149119834D01*
X161450253Y-149081574D01*
X161414440Y-149052884D01*
X161353748Y-149000677D01*
X161315810Y-148963187D01*
X161308330Y-148954546D01*
X161271951Y-148928830D01*
X161228557Y-148935465D01*
X161163635Y-148975638D01*
X161158466Y-148979095D01*
X161107289Y-149006206D01*
X161027671Y-149042334D01*
X160930228Y-149083333D01*
X160825579Y-149125059D01*
X160724340Y-149163365D01*
X160637128Y-149194106D01*
X160574561Y-149213136D01*
X160547255Y-149216310D01*
X160547070Y-149216046D01*
X160565422Y-149201630D01*
X160618432Y-149173890D01*
X160695145Y-149138583D01*
X160791380Y-149095680D01*
X160960343Y-149014971D01*
X161081946Y-148948087D01*
X161155867Y-148895198D01*
X161209419Y-148846080D01*
X161146248Y-148733056D01*
X161109717Y-148670658D01*
X161077706Y-148636571D01*
X161036176Y-148627224D01*
X160967574Y-148632764D01*
X160915382Y-148642129D01*
X160813134Y-148668346D01*
X160684628Y-148706717D01*
X160541406Y-148753440D01*
X160395010Y-148804715D01*
X160256983Y-148856739D01*
X160138867Y-148905710D01*
X160106183Y-148919703D01*
X160005031Y-148960122D01*
X159884297Y-149005632D01*
X159763498Y-149048794D01*
X159696608Y-149072300D01*
X159603024Y-149106646D01*
X159533905Y-149133858D01*
X159500739Y-149149530D01*
X159460859Y-149167808D01*
X159378824Y-149191638D01*
X159269474Y-149216241D01*
X159144800Y-149239209D01*
X159016794Y-149258137D01*
X158897447Y-149270617D01*
X158857974Y-149273298D01*
X158720381Y-149279202D01*
X158561741Y-149282071D01*
X158392209Y-149282112D01*
X158221937Y-149279530D01*
X158061077Y-149274530D01*
X157919783Y-149267320D01*
X157808207Y-149258103D01*
X157736503Y-149247087D01*
X157659659Y-149225842D01*
X157554571Y-149193188D01*
X157448720Y-149157429D01*
X157349143Y-149123113D01*
X157254362Y-149092114D01*
X157185961Y-149071516D01*
X157163039Y-149065015D01*
X157071233Y-149034156D01*
X156990307Y-149000251D01*
X156932661Y-148968957D01*
X156910690Y-148945928D01*
X156911484Y-148937109D01*
X156924722Y-148926532D01*
X156961801Y-148937201D01*
X157032406Y-148971121D01*
X157236643Y-149059140D01*
X157480284Y-149131229D01*
X157758928Y-149183822D01*
X158076567Y-149217664D01*
X158437192Y-149233500D01*
X158579684Y-149235198D01*
X158713959Y-149234907D01*
X158824149Y-149232672D01*
X158901608Y-149228672D01*
X158937685Y-149223087D01*
X158940582Y-149221765D01*
X158987746Y-149208084D01*
X159067012Y-149191055D01*
X159162907Y-149174047D01*
X159170160Y-149172851D01*
X159291155Y-149146279D01*
X159427407Y-149107176D01*
X159550789Y-149063556D01*
X159563393Y-149058500D01*
X159681846Y-149011523D01*
X159802523Y-148964430D01*
X159901133Y-148926709D01*
X159973802Y-148898929D01*
X160051744Y-148868046D01*
X160101330Y-148847086D01*
X160112295Y-148842464D01*
X160169114Y-148821088D01*
X160259569Y-148788702D01*
X160373744Y-148748824D01*
X160501724Y-148704975D01*
X160551881Y-148687755D01*
X160676393Y-148643301D01*
X160783541Y-148602691D01*
X160863256Y-148569827D01*
X160905466Y-148548607D01*
X160958864Y-148511160D01*
X160909974Y-148380099D01*
X160887577Y-148326010D01*
X160857894Y-148270539D01*
X160836331Y-148249039D01*
X160829623Y-148248128D01*
X160824287Y-148228476D01*
X160823858Y-148196635D01*
X160803775Y-148143880D01*
X160774994Y-148078092D01*
X160738706Y-147979560D01*
X160702271Y-147869310D01*
X160671901Y-147766179D01*
X160653804Y-147689002D01*
X160648590Y-147660265D01*
X160632443Y-147578660D01*
X160613451Y-147488805D01*
X160608608Y-147463727D01*
X160596106Y-147347405D01*
X160591701Y-147202313D01*
X160594581Y-147038301D01*
X160603930Y-146865216D01*
X160618935Y-146692910D01*
X160638782Y-146531230D01*
X160662658Y-146390027D01*
X160689748Y-146279149D01*
X160719240Y-146208446D01*
X160726791Y-146185206D01*
X160736782Y-146122216D01*
X160743851Y-146039530D01*
X160748739Y-145978089D01*
X160757589Y-145919401D01*
X160767195Y-145896724D01*
X160770585Y-145894936D01*
X160790460Y-145862210D01*
X160818284Y-145798170D01*
X160848782Y-145715760D01*
X160876681Y-145627930D01*
X160892839Y-145571845D01*
X160767017Y-145635042D01*
X160715010Y-145658466D01*
X160539662Y-145705026D01*
X160335500Y-145714972D01*
X160099622Y-145688538D01*
X160031083Y-145677222D01*
X159888742Y-145656508D01*
X159733423Y-145636520D01*
X159588325Y-145620350D01*
X159419731Y-145598364D01*
X159256443Y-145566634D01*
X159125370Y-145529547D01*
X159034378Y-145497650D01*
X158894678Y-145450685D01*
X158791408Y-145419442D01*
X158718018Y-145402016D01*
X158667957Y-145396502D01*
X158616350Y-145388026D01*
X158515906Y-145347658D01*
X158391522Y-145277958D01*
X158249234Y-145183281D01*
X158095080Y-145067981D01*
X157935093Y-144936411D01*
X157775311Y-144792924D01*
X157621769Y-144641876D01*
X157576000Y-144593014D01*
X157448317Y-144436582D01*
X157349573Y-144282789D01*
X157284333Y-144139490D01*
X157257165Y-144014544D01*
X157247797Y-143944630D01*
X157231605Y-143890016D01*
X157223674Y-143864433D01*
X157231974Y-143834686D01*
X157241679Y-143841411D01*
X157265428Y-143885264D01*
X157296811Y-143961074D01*
X157331647Y-144059412D01*
X157351573Y-144116694D01*
X157395253Y-144227163D01*
X157438872Y-144321086D01*
X157475430Y-144382720D01*
X157476682Y-144384357D01*
X157558416Y-144481212D01*
X157668376Y-144597881D01*
X157795470Y-144723697D01*
X157928608Y-144847996D01*
X158056699Y-144960110D01*
X158168652Y-145049374D01*
X158186604Y-145062624D01*
X158348994Y-145175290D01*
X158493241Y-145259344D01*
X158633633Y-145322260D01*
X158784461Y-145371515D01*
X158790160Y-145373109D01*
X158900958Y-145404813D01*
X159030922Y-145442949D01*
X159153105Y-145479617D01*
X159190999Y-145490309D01*
X159330457Y-145521325D01*
X159512129Y-145552542D01*
X159730229Y-145583121D01*
X159978971Y-145612222D01*
X160252568Y-145639007D01*
X160294656Y-145640999D01*
X160410482Y-145634325D01*
X160539913Y-145614054D01*
X160672379Y-145583253D01*
X160797308Y-145544987D01*
X160904132Y-145502324D01*
X160982278Y-145458328D01*
X161021176Y-145416066D01*
X161041524Y-145384996D01*
X161087206Y-145324819D01*
X161150903Y-145244470D01*
X161225310Y-145152855D01*
X161303123Y-145058881D01*
X161377037Y-144971455D01*
X161439744Y-144899482D01*
X161483941Y-144851870D01*
X161502666Y-144830810D01*
X161533067Y-144779259D01*
X161540089Y-144737663D01*
X161519764Y-144720566D01*
X161498992Y-144724525D01*
X161440976Y-144740431D01*
X161363360Y-144764359D01*
X161310863Y-144778914D01*
X161244449Y-144790960D01*
X161161132Y-144799336D01*
X161052631Y-144804614D01*
X160910663Y-144807363D01*
X160726946Y-144808152D01*
X160604479Y-144807382D01*
X160215017Y-144793038D01*
X159870906Y-144760447D01*
X159571112Y-144709447D01*
X159314603Y-144639874D01*
X159100345Y-144551565D01*
X159067403Y-144534223D01*
X158966281Y-144475826D01*
X158848393Y-144402535D01*
X158725766Y-144322326D01*
X158610425Y-144243177D01*
X158514396Y-144173064D01*
X158449705Y-144119966D01*
X158407213Y-144083754D01*
X158330302Y-144023072D01*
X158234087Y-143950206D01*
X158130081Y-143874015D01*
X158099879Y-143852165D01*
X157959807Y-143746344D01*
X157855212Y-143657143D01*
X157779345Y-143577651D01*
X157725454Y-143500957D01*
X157686792Y-143420150D01*
X157686168Y-143418559D01*
X157651821Y-143347301D01*
X157609111Y-143306972D01*
X157539452Y-143279878D01*
X157485245Y-143262294D01*
X157386539Y-143214447D01*
X157319799Y-143149461D01*
X157272333Y-143056731D01*
X157253539Y-143001188D01*
X157313430Y-143001188D01*
X157347660Y-143092106D01*
X157390019Y-143144203D01*
X157474839Y-143197747D01*
X157578186Y-143230130D01*
X157682767Y-143234027D01*
X157700324Y-143231754D01*
X157779816Y-143221330D01*
X157885062Y-143207406D01*
X157998138Y-143192351D01*
X158017111Y-143189950D01*
X158152039Y-143178367D01*
X158292942Y-143173732D01*
X158412216Y-143177063D01*
X158502105Y-143181683D01*
X158617450Y-143176103D01*
X158713437Y-143153388D01*
X158774070Y-143136329D01*
X158880256Y-143115215D01*
X158987536Y-143101542D01*
X159013130Y-143099638D01*
X159094160Y-143097815D01*
X159173543Y-143104950D01*
X159260718Y-143123399D01*
X159365126Y-143155516D01*
X159496207Y-143203658D01*
X159663399Y-143270180D01*
X159771587Y-143313113D01*
X159858818Y-143343627D01*
X159938549Y-143364333D01*
X160025156Y-143378216D01*
X160133016Y-143388260D01*
X160276503Y-143397448D01*
X160379909Y-143402503D01*
X160560702Y-143403769D01*
X160706695Y-143391270D01*
X160827313Y-143363201D01*
X160931976Y-143317759D01*
X161030108Y-143253140D01*
X161064109Y-143229221D01*
X161121848Y-143200138D01*
X161155981Y-143198209D01*
X161159623Y-143222166D01*
X161125885Y-143270745D01*
X161115440Y-143281451D01*
X161029303Y-143341711D01*
X160905344Y-143397849D01*
X160753958Y-143445809D01*
X160585542Y-143481535D01*
X160546290Y-143488128D01*
X160421209Y-143511278D01*
X160303381Y-143535834D01*
X160213941Y-143557475D01*
X160130652Y-143577480D01*
X160011231Y-143600953D01*
X159895336Y-143619232D01*
X159831003Y-143626858D01*
X159737594Y-143631030D01*
X159654671Y-143621050D01*
X159557504Y-143595153D01*
X159554582Y-143594261D01*
X159448324Y-143562948D01*
X159321327Y-143527111D01*
X159200444Y-143494334D01*
X159075935Y-143455770D01*
X158935543Y-143403286D01*
X158812562Y-143349074D01*
X158624877Y-143256625D01*
X158230314Y-143259136D01*
X158148398Y-143260032D01*
X158022096Y-143263020D01*
X157919017Y-143267484D01*
X157848101Y-143272990D01*
X157818293Y-143279105D01*
X157809184Y-143306338D01*
X157834450Y-143344333D01*
X157891283Y-143379723D01*
X157970207Y-143404674D01*
X158029007Y-143413217D01*
X158123258Y-143410645D01*
X158236421Y-143385906D01*
X158289737Y-143371796D01*
X158416809Y-143348080D01*
X158521230Y-143349605D01*
X158619082Y-143377977D01*
X158726448Y-143434799D01*
X158740275Y-143443149D01*
X158841629Y-143501731D01*
X158960973Y-143567539D01*
X159075321Y-143627851D01*
X159157546Y-143669270D01*
X159225054Y-143699042D01*
X159286644Y-143717504D01*
X159356307Y-143727651D01*
X159448033Y-143732478D01*
X159575813Y-143734979D01*
X159632791Y-143735345D01*
X159767863Y-143734094D01*
X159935034Y-143730646D01*
X160122813Y-143725307D01*
X160319711Y-143718379D01*
X160514237Y-143710166D01*
X161152365Y-143680691D01*
X161304988Y-143598566D01*
X161378887Y-143553813D01*
X161484469Y-143458541D01*
X161545580Y-143346809D01*
X161565271Y-143214107D01*
X161563978Y-143185616D01*
X161531146Y-143082201D01*
X161453975Y-143001843D01*
X161332363Y-142944423D01*
X161278155Y-142932710D01*
X161201495Y-142933648D01*
X161107201Y-142953810D01*
X160986722Y-142995163D01*
X160831508Y-143059673D01*
X160822558Y-143063569D01*
X160763752Y-143087244D01*
X160708258Y-143103709D01*
X160645407Y-143114257D01*
X160564526Y-143120180D01*
X160454944Y-143122772D01*
X160305990Y-143123323D01*
X160180976Y-143122989D01*
X160058887Y-143120343D01*
X159962803Y-143112843D01*
X159879353Y-143097942D01*
X159795163Y-143073096D01*
X159696862Y-143035756D01*
X159571075Y-142983376D01*
X159527611Y-142965993D01*
X159466027Y-142945896D01*
X159399523Y-142931269D01*
X159321672Y-142921872D01*
X159226048Y-142917468D01*
X159106224Y-142917817D01*
X158955774Y-142922682D01*
X158768272Y-142931823D01*
X158537291Y-142945002D01*
X158404910Y-142952107D01*
X158147658Y-142961139D01*
X157920222Y-142962423D01*
X157727527Y-142956069D01*
X157574496Y-142942189D01*
X157466054Y-142920892D01*
X157439444Y-142913940D01*
X157360799Y-142909969D01*
X157318302Y-142939764D01*
X157313430Y-143001188D01*
X157253539Y-143001188D01*
X157250975Y-142993612D01*
X157242851Y-142932368D01*
X157256817Y-142880519D01*
X157282418Y-142838975D01*
X157310548Y-142818694D01*
X157318065Y-142813733D01*
X157330994Y-142773815D01*
X157336109Y-142706964D01*
X157333059Y-142644666D01*
X157316603Y-142595491D01*
X157279803Y-142565582D01*
X157276288Y-142563722D01*
X157231564Y-142535356D01*
X157206298Y-142500688D01*
X157194238Y-142445136D01*
X157189133Y-142354120D01*
X157186097Y-142303246D01*
X157175193Y-142216005D01*
X157160298Y-142153863D01*
X157153933Y-142134362D01*
X157139567Y-142040083D01*
X157141921Y-141937849D01*
X157160936Y-141855246D01*
X157173330Y-141833593D01*
X157181333Y-141846802D01*
X157184799Y-141905295D01*
X157199089Y-142049269D01*
X157243873Y-142185074D01*
X157324488Y-142308411D01*
X157370364Y-142360813D01*
X157431412Y-142418045D01*
X157476255Y-142445715D01*
X157499805Y-142442666D01*
X157496974Y-142407744D01*
X157462674Y-142339792D01*
X157425437Y-142248136D01*
X157418430Y-142122119D01*
X157451929Y-141989402D01*
X157484172Y-141930482D01*
X157593326Y-141930482D01*
X157621162Y-142000236D01*
X157687295Y-142055878D01*
X157700363Y-142062582D01*
X157756033Y-142086207D01*
X157798685Y-142085988D01*
X157854049Y-142063027D01*
X157910424Y-142017401D01*
X157941956Y-141945112D01*
X157939355Y-141865339D01*
X157903482Y-141792761D01*
X157835200Y-141742055D01*
X157762929Y-141726802D01*
X157688587Y-141744777D01*
X157632138Y-141791931D01*
X157598684Y-141857440D01*
X157593326Y-141930482D01*
X157484172Y-141930482D01*
X157523541Y-141858541D01*
X157630873Y-141738097D01*
X157696406Y-141686591D01*
X157778238Y-141647369D01*
X157886979Y-141621379D01*
X157953257Y-141610746D01*
X158026293Y-141605887D01*
X158086392Y-141615882D01*
X158154956Y-141642412D01*
X158206706Y-141670120D01*
X158304545Y-141741092D01*
X158404739Y-141831972D01*
X158496063Y-141931193D01*
X158506391Y-141945112D01*
X158567291Y-142027190D01*
X158607198Y-142108396D01*
X158631191Y-142218580D01*
X158629695Y-142350864D01*
X158587158Y-142462844D01*
X158558265Y-142514851D01*
X158553858Y-142544215D01*
X158575402Y-142559619D01*
X158615028Y-142561705D01*
X158692538Y-142551746D01*
X158793438Y-142531929D01*
X158905105Y-142505285D01*
X159014914Y-142474849D01*
X159110240Y-142443653D01*
X159178459Y-142414730D01*
X159197073Y-142405637D01*
X159278697Y-142373089D01*
X159384929Y-142337467D01*
X159497672Y-142304993D01*
X159546413Y-142291789D01*
X159640291Y-142263739D01*
X159710337Y-142239236D01*
X159744156Y-142222431D01*
X159761108Y-142216749D01*
X159820495Y-142229605D01*
X159914736Y-142270664D01*
X159988254Y-142305097D01*
X160056149Y-142332659D01*
X160095144Y-142343226D01*
X160127170Y-142351871D01*
X160177877Y-142382468D01*
X160206852Y-142407803D01*
X160200856Y-142415039D01*
X160151380Y-142406519D01*
X160119316Y-142397892D01*
X160039721Y-142368419D01*
X159955129Y-142329740D01*
X159928453Y-142316411D01*
X159847559Y-142280534D01*
X159806182Y-142271266D01*
X159805296Y-142288582D01*
X159845873Y-142332459D01*
X159849546Y-142335708D01*
X159902123Y-142371276D01*
X159981919Y-142415392D01*
X160074810Y-142461362D01*
X160166675Y-142502487D01*
X160243388Y-142532073D01*
X160290828Y-142543423D01*
X160322802Y-142550399D01*
X160378443Y-142569148D01*
X160410842Y-142582751D01*
X160437189Y-142600424D01*
X160425229Y-142606960D01*
X160382063Y-142601011D01*
X160314797Y-142581227D01*
X160287878Y-142572283D01*
X160210142Y-142551661D01*
X160152572Y-142543423D01*
X160134920Y-142540563D01*
X160072841Y-142518914D01*
X159986703Y-142480642D01*
X159889518Y-142431296D01*
X159681540Y-142319169D01*
X159503553Y-142359489D01*
X159407734Y-142384498D01*
X159287634Y-142422634D01*
X159187931Y-142461146D01*
X159135150Y-142484337D01*
X158990637Y-142542475D01*
X158861330Y-142583104D01*
X158730936Y-142609854D01*
X158583166Y-142626351D01*
X158401727Y-142636224D01*
X158309520Y-142639263D01*
X158154385Y-142640359D01*
X158023051Y-142633134D01*
X157898218Y-142615535D01*
X157762590Y-142585512D01*
X157598867Y-142541014D01*
X157597412Y-142540598D01*
X157501112Y-142514882D01*
X157416281Y-142495250D01*
X157361133Y-142485922D01*
X157312577Y-142469770D01*
X157295652Y-142422888D01*
X157295132Y-142415387D01*
X157282931Y-142363892D01*
X157262954Y-142333566D01*
X157244381Y-142332679D01*
X157236393Y-142369502D01*
X157240550Y-142413111D01*
X157255162Y-142458352D01*
X157266304Y-142471486D01*
X157322963Y-142515737D01*
X157408209Y-142567262D01*
X157508772Y-142618481D01*
X157611380Y-142661812D01*
X157670525Y-142680655D01*
X157790724Y-142709300D01*
X157929345Y-142734465D01*
X158069736Y-142753641D01*
X158195244Y-142764316D01*
X158289216Y-142763982D01*
X158297477Y-142763343D01*
X158356298Y-142766363D01*
X158387143Y-142781157D01*
X158388525Y-142786510D01*
X158366302Y-142803073D01*
X158305593Y-142811388D01*
X158215017Y-142812229D01*
X158103192Y-142806373D01*
X157978734Y-142794595D01*
X157850261Y-142777669D01*
X157726390Y-142756372D01*
X157615739Y-142731478D01*
X157526926Y-142703763D01*
X157477616Y-142686203D01*
X157429125Y-142678667D01*
X157412758Y-142700091D01*
X157420941Y-142754070D01*
X157429326Y-142777423D01*
X157467519Y-142817488D01*
X157542814Y-142847524D01*
X157580066Y-142855006D01*
X157675187Y-142864876D01*
X157808213Y-142872292D01*
X157971739Y-142877183D01*
X158158362Y-142879478D01*
X158360677Y-142879106D01*
X158571280Y-142875999D01*
X158782768Y-142870083D01*
X158987734Y-142861290D01*
X159106394Y-142855154D01*
X159219601Y-142850698D01*
X159309189Y-142851527D01*
X159386893Y-142859723D01*
X159464447Y-142877367D01*
X159553585Y-142906543D01*
X159666040Y-142949332D01*
X159813547Y-143007816D01*
X159867094Y-143023718D01*
X159981633Y-143042171D01*
X160123375Y-143053232D01*
X160279524Y-143056992D01*
X160437283Y-143053541D01*
X160583854Y-143042972D01*
X160706440Y-143025374D01*
X160792245Y-143000840D01*
X160793215Y-143000411D01*
X160877516Y-142968590D01*
X160987052Y-142934256D01*
X161098373Y-142904768D01*
X161289154Y-142859792D01*
X161417048Y-142919694D01*
X161417831Y-142920061D01*
X161517915Y-142975208D01*
X161578110Y-143034420D01*
X161607538Y-143111528D01*
X161614873Y-143214107D01*
X161615321Y-143220366D01*
X161610732Y-143307269D01*
X161588701Y-143388406D01*
X161540678Y-143473344D01*
X161534867Y-143481969D01*
X161442115Y-143586906D01*
X161324054Y-143663401D01*
X161173555Y-143714929D01*
X160983492Y-143744966D01*
X160956974Y-143747419D01*
X160827259Y-143757460D01*
X160670816Y-143767164D01*
X160495313Y-143776284D01*
X160308422Y-143784572D01*
X160117812Y-143791780D01*
X159931153Y-143797661D01*
X159756115Y-143801968D01*
X159600367Y-143804452D01*
X159471580Y-143804866D01*
X159377423Y-143802963D01*
X159325567Y-143798494D01*
X159322120Y-143797760D01*
X159218573Y-143764466D01*
X159082875Y-143703994D01*
X158922074Y-143619774D01*
X158743221Y-143515235D01*
X158696698Y-143487675D01*
X158586832Y-143434967D01*
X158487403Y-143413221D01*
X158380332Y-143420191D01*
X158247542Y-143453629D01*
X158096571Y-143499339D01*
X158181766Y-143670574D01*
X158235975Y-143767384D01*
X158319842Y-143877510D01*
X158433407Y-143988113D01*
X158588363Y-144119104D01*
X158831220Y-144300058D01*
X159066100Y-144441634D01*
X159300818Y-144547723D01*
X159543191Y-144622217D01*
X159801035Y-144669007D01*
X159824687Y-144672058D01*
X159955096Y-144689734D01*
X160086040Y-144708638D01*
X160192406Y-144725166D01*
X160268740Y-144733722D01*
X160384144Y-144739661D01*
X160520728Y-144741938D01*
X160668321Y-144740848D01*
X160816750Y-144736688D01*
X160955844Y-144729755D01*
X161075430Y-144720348D01*
X161165336Y-144708761D01*
X161215389Y-144695294D01*
X161252125Y-144679884D01*
X161254006Y-144693045D01*
X161252648Y-144695311D01*
X161250195Y-144718044D01*
X161279847Y-144713423D01*
X161333109Y-144682572D01*
X161373985Y-144658866D01*
X161407495Y-144650114D01*
X161433109Y-144649671D01*
X161487039Y-144634215D01*
X161545642Y-144608588D01*
X161591341Y-144580836D01*
X161606555Y-144559003D01*
X161603887Y-144547115D01*
X161612261Y-144507857D01*
X161640345Y-144507857D01*
X161652857Y-144520369D01*
X161665370Y-144507857D01*
X161652857Y-144495344D01*
X161640345Y-144507857D01*
X161612261Y-144507857D01*
X161613792Y-144500679D01*
X161643326Y-144463086D01*
X161678527Y-144454592D01*
X161697451Y-144457143D01*
X161699202Y-144432152D01*
X161698095Y-144404965D01*
X161722485Y-144359580D01*
X161727347Y-144354088D01*
X161756134Y-144299863D01*
X161777262Y-144227615D01*
X161780638Y-144210784D01*
X161796708Y-144150677D01*
X161811558Y-144120032D01*
X161822371Y-144106484D01*
X161852130Y-144057959D01*
X161889739Y-143989199D01*
X161914959Y-143944406D01*
X161954513Y-143886457D01*
X161983581Y-143858606D01*
X162003870Y-143837207D01*
X162015715Y-143786042D01*
X162019540Y-143758389D01*
X162039116Y-143689860D01*
X162071039Y-143600906D01*
X162110489Y-143502802D01*
X162152649Y-143406824D01*
X162192698Y-143324247D01*
X162225819Y-143266347D01*
X162247192Y-143244400D01*
X162256109Y-143239549D01*
X162265961Y-143205099D01*
X162262360Y-143187224D01*
X162240936Y-143181551D01*
X162231085Y-143185270D01*
X162215912Y-143167839D01*
X162220628Y-143155189D01*
X162251560Y-143152339D01*
X162288106Y-143147894D01*
X162323632Y-143111635D01*
X162343551Y-143059923D01*
X162336991Y-143010776D01*
X162330912Y-142989481D01*
X162332166Y-142956330D01*
X162391084Y-142956330D01*
X162403596Y-142968842D01*
X162416109Y-142956330D01*
X162403596Y-142943817D01*
X162391084Y-142956330D01*
X162332166Y-142956330D01*
X162333067Y-142932502D01*
X162347868Y-142868124D01*
X162349899Y-142863338D01*
X162430440Y-142863338D01*
X162441068Y-142861315D01*
X162462116Y-142815909D01*
X162471338Y-142790975D01*
X162499866Y-142705322D01*
X162508377Y-142658038D01*
X162498039Y-142643522D01*
X162490978Y-142647671D01*
X162469751Y-142685388D01*
X162448169Y-142749657D01*
X162445342Y-142760483D01*
X162431457Y-142827789D01*
X162430440Y-142863338D01*
X162349899Y-142863338D01*
X162370208Y-142815471D01*
X162394977Y-142793670D01*
X162397762Y-142792816D01*
X162414786Y-142763630D01*
X162430324Y-142705807D01*
X162432324Y-142695811D01*
X162449945Y-142635974D01*
X162468995Y-142604232D01*
X162483044Y-142581652D01*
X162491183Y-142529434D01*
X162491346Y-142520547D01*
X162502865Y-142475758D01*
X162528092Y-142476983D01*
X162560739Y-142524655D01*
X162561293Y-142525804D01*
X162579380Y-142558780D01*
X162587101Y-142551134D01*
X162589587Y-142498153D01*
X162589934Y-142488658D01*
X162598318Y-142441171D01*
X162613684Y-142429192D01*
X162627859Y-142432616D01*
X162646068Y-142411646D01*
X162660188Y-142354443D01*
X162671181Y-142256408D01*
X162677392Y-142155542D01*
X162691380Y-142155542D01*
X162703892Y-142168054D01*
X162716404Y-142155542D01*
X162703892Y-142143029D01*
X162691380Y-142155542D01*
X162677392Y-142155542D01*
X162680015Y-142112938D01*
X162682821Y-142049250D01*
X162684747Y-141955112D01*
X162680975Y-141896914D01*
X162670525Y-141865381D01*
X162652422Y-141851238D01*
X162643779Y-141846902D01*
X162622072Y-141810891D01*
X162620321Y-141747706D01*
X162646476Y-141747706D01*
X162649782Y-141798941D01*
X162658471Y-141803185D01*
X162662404Y-141767660D01*
X162658915Y-141733235D01*
X162649782Y-141736379D01*
X162646476Y-141747706D01*
X162620321Y-141747706D01*
X162620049Y-141737884D01*
X162620909Y-141718959D01*
X162615865Y-141656274D01*
X162600444Y-141622337D01*
X162591886Y-141615847D01*
X162560734Y-141578026D01*
X162535140Y-141529410D01*
X162526861Y-141504398D01*
X162571603Y-141504398D01*
X162574598Y-141534097D01*
X162582125Y-141538012D01*
X162591281Y-141517413D01*
X162589475Y-141504165D01*
X162574598Y-141500730D01*
X162571603Y-141504398D01*
X162526861Y-141504398D01*
X162519958Y-141483544D01*
X162520037Y-141453970D01*
X162540229Y-141454232D01*
X162542248Y-141455300D01*
X162550134Y-141442204D01*
X162537781Y-141393147D01*
X162510969Y-141336634D01*
X162482471Y-141318788D01*
X162458085Y-141348497D01*
X162457083Y-141350835D01*
X162450363Y-141347271D01*
X162449744Y-141304704D01*
X162444992Y-141252558D01*
X162423960Y-141235355D01*
X162407554Y-141230026D01*
X162397827Y-141193921D01*
X162393117Y-141164146D01*
X162370475Y-141097760D01*
X162335820Y-141016962D01*
X162296513Y-140938541D01*
X162259911Y-140879285D01*
X162257613Y-140876216D01*
X162224992Y-140833712D01*
X162174967Y-140769365D01*
X162119547Y-140698528D01*
X162070742Y-140636560D01*
X162040562Y-140598814D01*
X162030135Y-140583790D01*
X162015715Y-140543390D01*
X162015695Y-140541781D01*
X162001077Y-140507411D01*
X161956118Y-140485718D01*
X161876163Y-140476122D01*
X161756557Y-140478047D01*
X161592642Y-140490914D01*
X161516831Y-140498569D01*
X161355447Y-140518352D01*
X161217910Y-140542042D01*
X161085540Y-140573201D01*
X160939656Y-140615390D01*
X160902635Y-140623077D01*
X160815664Y-140632333D01*
X160703985Y-140638089D01*
X160582728Y-140639331D01*
X160313386Y-140636318D01*
X160292335Y-140655012D01*
X160218853Y-140720265D01*
X160192658Y-140743169D01*
X160113781Y-140809255D01*
X160044258Y-140864068D01*
X159991152Y-140912740D01*
X159923248Y-140988444D01*
X159857591Y-141072838D01*
X159798130Y-141154305D01*
X159727406Y-141248169D01*
X159668835Y-141322883D01*
X159647832Y-141349781D01*
X159611047Y-141406485D01*
X159602480Y-141436946D01*
X159622070Y-141436090D01*
X159669754Y-141398844D01*
X159681856Y-141388239D01*
X159774791Y-141325682D01*
X159904022Y-141259453D01*
X160058569Y-141193898D01*
X160227449Y-141133364D01*
X160399682Y-141082199D01*
X160564286Y-141044748D01*
X160794478Y-141011544D01*
X161091725Y-141001538D01*
X161383767Y-141032791D01*
X161685029Y-141106093D01*
X161845547Y-141149911D01*
X162058155Y-141193574D01*
X162303498Y-141229129D01*
X162359736Y-141236962D01*
X162391084Y-141243180D01*
X162392402Y-141243633D01*
X162426601Y-141243694D01*
X162434223Y-141248389D01*
X162418908Y-141276307D01*
X162415368Y-141281020D01*
X162412607Y-141292192D01*
X162404395Y-141325417D01*
X162418503Y-141368939D01*
X162448176Y-141395235D01*
X162483895Y-141387954D01*
X162504931Y-141374404D01*
X162516207Y-141387749D01*
X162515294Y-141395426D01*
X162491183Y-141429827D01*
X162474939Y-141455356D01*
X162466158Y-141509611D01*
X162458353Y-141550447D01*
X162427752Y-141631899D01*
X162379603Y-141734753D01*
X162319945Y-141847712D01*
X162254815Y-141959477D01*
X162190254Y-142058751D01*
X162132298Y-142134236D01*
X162012317Y-142248958D01*
X161827327Y-142378080D01*
X161600930Y-142496044D01*
X161428178Y-142574374D01*
X160989976Y-142563027D01*
X160896668Y-142560276D01*
X160730932Y-142552878D01*
X160607209Y-142543009D01*
X160520040Y-142530158D01*
X160463967Y-142513814D01*
X160411575Y-142482245D01*
X160331032Y-142404154D01*
X160261469Y-142304638D01*
X160216009Y-142200290D01*
X160204676Y-142089952D01*
X160228793Y-141957654D01*
X160281703Y-141830729D01*
X160389114Y-141830729D01*
X160400856Y-141885260D01*
X160433920Y-141952607D01*
X160474190Y-141998754D01*
X160490355Y-142007690D01*
X160567479Y-142020243D01*
X160649253Y-141999608D01*
X160714032Y-141950171D01*
X160746741Y-141890298D01*
X160752150Y-141814320D01*
X160723606Y-141747869D01*
X160670139Y-141698528D01*
X160600784Y-141673879D01*
X160524573Y-141681504D01*
X160450538Y-141728985D01*
X160446322Y-141733296D01*
X160405779Y-141786522D01*
X160389114Y-141830729D01*
X160281703Y-141830729D01*
X160284684Y-141823577D01*
X160366063Y-141699345D01*
X160466645Y-141596583D01*
X160580142Y-141526916D01*
X160646073Y-141506950D01*
X160776302Y-141494108D01*
X160912887Y-141505891D01*
X161033045Y-141541562D01*
X161132365Y-141602169D01*
X161243200Y-141699304D01*
X161342677Y-141814291D01*
X161342695Y-141814320D01*
X161415917Y-141931959D01*
X161440016Y-141990464D01*
X161463843Y-142132365D01*
X161438473Y-142269621D01*
X161364388Y-142397873D01*
X161281421Y-142501115D01*
X161386095Y-142487075D01*
X161474201Y-142466179D01*
X161599537Y-142419002D01*
X161735045Y-142354605D01*
X161866129Y-142280656D01*
X161978194Y-142204822D01*
X162056647Y-142134772D01*
X162094608Y-142088781D01*
X162172792Y-141979174D01*
X162247973Y-141856895D01*
X162313020Y-141734830D01*
X162360802Y-141625866D01*
X162384188Y-141542886D01*
X162385484Y-141466907D01*
X162357236Y-141398549D01*
X162291019Y-141346792D01*
X162180823Y-141304594D01*
X162094347Y-141279176D01*
X162346381Y-141279176D01*
X162349376Y-141308875D01*
X162356903Y-141312790D01*
X162366059Y-141292192D01*
X162364253Y-141278944D01*
X162349376Y-141275509D01*
X162346381Y-141279176D01*
X162094347Y-141279176D01*
X162039769Y-141263134D01*
X161854706Y-141210031D01*
X161704925Y-141168772D01*
X161594557Y-141140483D01*
X161527734Y-141126294D01*
X161515816Y-141124389D01*
X161445909Y-141112418D01*
X161348670Y-141095053D01*
X161241316Y-141075357D01*
X161172253Y-141062929D01*
X161095348Y-141052125D01*
X161026894Y-141049127D01*
X160952497Y-141054386D01*
X160857767Y-141068356D01*
X160728311Y-141091489D01*
X160626886Y-141111071D01*
X160356221Y-141173733D01*
X160118660Y-141244825D01*
X159917589Y-141322907D01*
X159756395Y-141406542D01*
X159638463Y-141494292D01*
X159567179Y-141584717D01*
X159549745Y-141618277D01*
X159526015Y-141654973D01*
X159508273Y-141654630D01*
X159485439Y-141622348D01*
X159452306Y-141587116D01*
X159403745Y-141567463D01*
X159377210Y-141562653D01*
X159309196Y-141542177D01*
X159215704Y-141509322D01*
X159108733Y-141468128D01*
X159072352Y-141454852D01*
X159237981Y-141454852D01*
X159250493Y-141467364D01*
X159263005Y-141454852D01*
X159250493Y-141442340D01*
X159237981Y-141454852D01*
X159072352Y-141454852D01*
X158897935Y-141391204D01*
X158672262Y-141330967D01*
X158937685Y-141330967D01*
X158942042Y-141336177D01*
X158977775Y-141359615D01*
X159037784Y-141392290D01*
X159068840Y-141406942D01*
X159118351Y-141423570D01*
X159137882Y-141419300D01*
X159136740Y-141411535D01*
X159112042Y-141379274D01*
X159106245Y-141375997D01*
X159061657Y-141357733D01*
X159005742Y-141340550D01*
X158957939Y-141329832D01*
X158937685Y-141330967D01*
X158672262Y-141330967D01*
X158541565Y-141296081D01*
X158164790Y-141238901D01*
X158113540Y-141234010D01*
X158043049Y-141229630D01*
X158637389Y-141229630D01*
X158649902Y-141242143D01*
X158662414Y-141229630D01*
X158649902Y-141217118D01*
X158637389Y-141229630D01*
X158043049Y-141229630D01*
X157945472Y-141223567D01*
X157811808Y-141226633D01*
X157701427Y-141243948D01*
X157603210Y-141276252D01*
X157513204Y-141313859D01*
X157528190Y-141234208D01*
X157537059Y-141198095D01*
X157555744Y-141164707D01*
X157586355Y-141164707D01*
X157595096Y-141177933D01*
X157634671Y-141185343D01*
X157660446Y-141178849D01*
X157669074Y-141159193D01*
X157670236Y-141148399D01*
X157702088Y-141150327D01*
X157717275Y-141153088D01*
X157779621Y-141159355D01*
X157876959Y-141166247D01*
X157999361Y-141173101D01*
X158136897Y-141179259D01*
X158239428Y-141183067D01*
X158356706Y-141186222D01*
X158433291Y-141185980D01*
X158474768Y-141182059D01*
X158486720Y-141174174D01*
X158474729Y-141162039D01*
X158432626Y-141147466D01*
X158354965Y-141137754D01*
X158237160Y-141132723D01*
X158074335Y-141132008D01*
X158030787Y-141132176D01*
X157908739Y-141131046D01*
X157808583Y-141127769D01*
X157739702Y-141122749D01*
X157711478Y-141116390D01*
X157694074Y-141109225D01*
X157650282Y-141117139D01*
X157606350Y-141138733D01*
X157586355Y-141164707D01*
X157555744Y-141164707D01*
X157590635Y-141102362D01*
X157590988Y-141102109D01*
X157785708Y-141102109D01*
X157791074Y-141108605D01*
X157836601Y-141111214D01*
X157853580Y-141110972D01*
X157888183Y-141107023D01*
X157880394Y-141099769D01*
X157856276Y-141095877D01*
X157792808Y-141099769D01*
X157785708Y-141102109D01*
X157590988Y-141102109D01*
X157684864Y-141034818D01*
X157729336Y-140997940D01*
X157730987Y-140995566D01*
X157851381Y-140995566D01*
X157852165Y-140996665D01*
X157886214Y-141007541D01*
X157944907Y-141003762D01*
X157992351Y-140999933D01*
X158101405Y-141006995D01*
X158243629Y-141028891D01*
X158410570Y-141063978D01*
X158579681Y-141107023D01*
X158593777Y-141110611D01*
X158784797Y-141167147D01*
X158805485Y-141174174D01*
X158917329Y-141212164D01*
X158960339Y-141229630D01*
X159129036Y-141298137D01*
X159304411Y-141388621D01*
X159355989Y-141419300D01*
X159415759Y-141454852D01*
X159508478Y-141510002D01*
X159521568Y-141444548D01*
X159544908Y-141383220D01*
X159587649Y-141317996D01*
X159593916Y-141310594D01*
X159644480Y-141243156D01*
X159693256Y-141168190D01*
X159720504Y-141129201D01*
X159780386Y-141055736D01*
X159858524Y-140967539D01*
X159944992Y-140876127D01*
X159999983Y-140818712D01*
X160073029Y-140735867D01*
X160112166Y-140680428D01*
X160115377Y-140655012D01*
X160092165Y-140648105D01*
X160026401Y-140636926D01*
X159931349Y-140624858D01*
X159818715Y-140613536D01*
X159735083Y-140605274D01*
X159625591Y-140591801D01*
X159538764Y-140578013D01*
X159488227Y-140565875D01*
X159481920Y-140563580D01*
X159419448Y-140547769D01*
X159324512Y-140532976D01*
X159193596Y-140518869D01*
X159023183Y-140505116D01*
X158809758Y-140491385D01*
X158549803Y-140477344D01*
X158224483Y-140460980D01*
X158111256Y-140560941D01*
X158101010Y-140570348D01*
X158041566Y-140636144D01*
X157980373Y-140718830D01*
X157924094Y-140807260D01*
X157879393Y-140890290D01*
X157852934Y-140956773D01*
X157851381Y-140995566D01*
X157730987Y-140995566D01*
X157785472Y-140917204D01*
X157851893Y-140791065D01*
X157923359Y-140659171D01*
X158012303Y-140541446D01*
X158113192Y-140458484D01*
X158234139Y-140402026D01*
X158280490Y-140383356D01*
X158312693Y-140355997D01*
X158332843Y-140308008D01*
X158350438Y-140224921D01*
X158377814Y-140106357D01*
X158427851Y-139982305D01*
X158503812Y-139875647D01*
X158616051Y-139768596D01*
X158677273Y-139719182D01*
X158889666Y-139581094D01*
X159108999Y-139487115D01*
X159329135Y-139440074D01*
X159340849Y-139438892D01*
X159495915Y-139427936D01*
X159667473Y-139422950D01*
X159844458Y-139423569D01*
X160015801Y-139429429D01*
X160170438Y-139440167D01*
X160297302Y-139455419D01*
X160385326Y-139474819D01*
X160441743Y-139494461D01*
X160493810Y-139515655D01*
X160510449Y-139527179D01*
X160510178Y-139527358D01*
X160480949Y-139527845D01*
X160412393Y-139523617D01*
X160314389Y-139515405D01*
X160196815Y-139503942D01*
X160063634Y-139492640D01*
X159839119Y-139483050D01*
X159616100Y-139483910D01*
X159410434Y-139495018D01*
X159237981Y-139516171D01*
X159072737Y-139563008D01*
X158899006Y-139643940D01*
X158736184Y-139748834D01*
X158602106Y-139867827D01*
X158549279Y-139928440D01*
X158477329Y-140035315D01*
X158430107Y-140152912D01*
X158398458Y-140300687D01*
X158393543Y-140332557D01*
X158391790Y-140377468D01*
X158411254Y-140391083D01*
X158461276Y-140386105D01*
X158463735Y-140385755D01*
X158521243Y-140384222D01*
X158552382Y-140395477D01*
X158557176Y-140398834D01*
X158600303Y-140407765D01*
X158676719Y-140413991D01*
X158773850Y-140416330D01*
X158845707Y-140417163D01*
X159021352Y-140424781D01*
X159202269Y-140439156D01*
X159374632Y-140458818D01*
X159524610Y-140482301D01*
X159638375Y-140508134D01*
X159694862Y-140523585D01*
X159781571Y-140543871D01*
X159844263Y-140554396D01*
X159878608Y-140557833D01*
X159960565Y-140566994D01*
X160052469Y-140578055D01*
X160124556Y-140584446D01*
X160208378Y-140578618D01*
X160284512Y-140551970D01*
X160297043Y-140544753D01*
X160492893Y-140544753D01*
X160703707Y-140538153D01*
X160738536Y-140536822D01*
X160831924Y-140530692D01*
X160901179Y-140522364D01*
X160933345Y-140513243D01*
X160951464Y-140505881D01*
X161012026Y-140490816D01*
X161104597Y-140471701D01*
X161219018Y-140450339D01*
X161345126Y-140428536D01*
X161472763Y-140408096D01*
X161591767Y-140390822D01*
X161691978Y-140378520D01*
X161831197Y-140363847D01*
X161754539Y-140281080D01*
X161737159Y-140263059D01*
X161687235Y-140223775D01*
X161659497Y-140225991D01*
X161647451Y-140233018D01*
X161640728Y-140202369D01*
X161634889Y-140165608D01*
X161598746Y-140112108D01*
X161541498Y-140092768D01*
X161540349Y-140092825D01*
X161523201Y-140099587D01*
X161552759Y-140117581D01*
X161602808Y-140140634D01*
X161552759Y-140133683D01*
X161523502Y-140122629D01*
X161510063Y-140083846D01*
X161510250Y-140082707D01*
X161500735Y-140050382D01*
X161452281Y-140040960D01*
X161411557Y-140034412D01*
X161402611Y-140015936D01*
X161406628Y-140003734D01*
X161383571Y-139988446D01*
X161315025Y-139987218D01*
X161295753Y-139986391D01*
X161308769Y-139975585D01*
X161312079Y-139974057D01*
X161340261Y-139947707D01*
X161328068Y-139927913D01*
X161283744Y-139929772D01*
X161250954Y-139936415D01*
X161245517Y-139927977D01*
X161245479Y-139918669D01*
X161216041Y-139890980D01*
X161157931Y-139857447D01*
X161125394Y-139841107D01*
X161068071Y-139809375D01*
X161039754Y-139789226D01*
X161016490Y-139774070D01*
X160964680Y-139754911D01*
X160947761Y-139750384D01*
X160922521Y-139747541D01*
X160939656Y-139763667D01*
X160956902Y-139777315D01*
X160960830Y-139789474D01*
X160934908Y-139783462D01*
X160889891Y-139760060D01*
X160857856Y-139745261D01*
X160815809Y-139754403D01*
X160815055Y-139755199D01*
X160794405Y-139791502D01*
X160765048Y-139859063D01*
X160731633Y-139944967D01*
X160698811Y-140036301D01*
X160671232Y-140120152D01*
X160653545Y-140183607D01*
X160650401Y-140213752D01*
X160650771Y-140214622D01*
X160643185Y-140246331D01*
X160616779Y-140308167D01*
X160576834Y-140387645D01*
X160492893Y-140544753D01*
X160297043Y-140544753D01*
X160332655Y-140524242D01*
X160398415Y-140473728D01*
X160455199Y-140418176D01*
X160492144Y-140368563D01*
X160498391Y-140335862D01*
X160495889Y-140329453D01*
X160512760Y-140316231D01*
X160524968Y-140311984D01*
X160539261Y-140278694D01*
X160541774Y-140261465D01*
X160561639Y-140241157D01*
X160575652Y-140228822D01*
X160584361Y-140184852D01*
X160591240Y-140123595D01*
X160612788Y-140026043D01*
X160644011Y-139918706D01*
X160679779Y-139821146D01*
X160708362Y-139733942D01*
X160707684Y-139662083D01*
X160670641Y-139617546D01*
X160667298Y-139615582D01*
X160643666Y-139596958D01*
X160664385Y-139592074D01*
X160697444Y-139599777D01*
X160750498Y-139628850D01*
X160806358Y-139654209D01*
X160879392Y-139665591D01*
X160950056Y-139676560D01*
X161054014Y-139711538D01*
X161168409Y-139764284D01*
X161277488Y-139828357D01*
X161283431Y-139832286D01*
X161361258Y-139879650D01*
X161443029Y-139924322D01*
X161498409Y-139957242D01*
X161604817Y-140036600D01*
X161728242Y-140142903D01*
X161860701Y-140268191D01*
X161954390Y-140363847D01*
G37*
%TO.C,REF\u002A\u002A*%
G36*
X150301264Y-150168873D02*
G01*
X150318739Y-150200233D01*
X150319575Y-150236034D01*
X150299082Y-150267472D01*
X150294416Y-150271348D01*
X150284949Y-150276814D01*
X150271267Y-150281021D01*
X150250748Y-150284133D01*
X150220768Y-150286313D01*
X150178704Y-150287724D01*
X150121932Y-150288529D01*
X150047830Y-150288893D01*
X149953773Y-150288978D01*
X149632227Y-150288978D01*
X149610647Y-150262327D01*
X149595877Y-150238614D01*
X149589067Y-150215600D01*
X149594949Y-150194594D01*
X149610647Y-150168873D01*
X149632227Y-150142222D01*
X150279684Y-150142222D01*
X150301264Y-150168873D01*
G37*
D11*
X150301264Y-150168873D02*
X150318739Y-150200233D01*
X150319575Y-150236034D01*
X150299082Y-150267472D01*
X150294416Y-150271348D01*
X150284949Y-150276814D01*
X150271267Y-150281021D01*
X150250748Y-150284133D01*
X150220768Y-150286313D01*
X150178704Y-150287724D01*
X150121932Y-150288529D01*
X150047830Y-150288893D01*
X149953773Y-150288978D01*
X149632227Y-150288978D01*
X149610647Y-150262327D01*
X149595877Y-150238614D01*
X149589067Y-150215600D01*
X149594949Y-150194594D01*
X149610647Y-150168873D01*
X149632227Y-150142222D01*
X150279684Y-150142222D01*
X150301264Y-150168873D01*
G36*
X150041567Y-143002041D02*
G01*
X150115789Y-143002299D01*
X150172541Y-143002970D01*
X150214512Y-143004248D01*
X150244389Y-143006327D01*
X150264861Y-143009401D01*
X150278614Y-143013666D01*
X150288337Y-143019316D01*
X150296717Y-143026545D01*
X150318181Y-143058009D01*
X150319947Y-143093174D01*
X150300267Y-143126178D01*
X150294398Y-143131484D01*
X150285314Y-143136934D01*
X150271973Y-143141100D01*
X150251757Y-143144154D01*
X150222049Y-143146268D01*
X150180232Y-143147614D01*
X150123689Y-143148362D01*
X150049802Y-143148686D01*
X149955956Y-143148755D01*
X149880294Y-143148716D01*
X149802385Y-143148461D01*
X149742375Y-143147817D01*
X149697648Y-143146613D01*
X149665585Y-143144676D01*
X149643571Y-143141836D01*
X149628987Y-143137921D01*
X149619218Y-143132758D01*
X149611645Y-143126178D01*
X149592623Y-143096994D01*
X149593463Y-143063863D01*
X149616776Y-143029709D01*
X149644485Y-143002000D01*
X149957537Y-143002000D01*
X150041567Y-143002041D01*
G37*
X150041567Y-143002041D02*
X150115789Y-143002299D01*
X150172541Y-143002970D01*
X150214512Y-143004248D01*
X150244389Y-143006327D01*
X150264861Y-143009401D01*
X150278614Y-143013666D01*
X150288337Y-143019316D01*
X150296717Y-143026545D01*
X150318181Y-143058009D01*
X150319947Y-143093174D01*
X150300267Y-143126178D01*
X150294398Y-143131484D01*
X150285314Y-143136934D01*
X150271973Y-143141100D01*
X150251757Y-143144154D01*
X150222049Y-143146268D01*
X150180232Y-143147614D01*
X150123689Y-143148362D01*
X150049802Y-143148686D01*
X149955956Y-143148755D01*
X149880294Y-143148716D01*
X149802385Y-143148461D01*
X149742375Y-143147817D01*
X149697648Y-143146613D01*
X149665585Y-143144676D01*
X149643571Y-143141836D01*
X149628987Y-143137921D01*
X149619218Y-143132758D01*
X149611645Y-143126178D01*
X149592623Y-143096994D01*
X149593463Y-143063863D01*
X149616776Y-143029709D01*
X149644485Y-143002000D01*
X149957537Y-143002000D01*
X150041567Y-143002041D01*
G36*
X144854307Y-143245331D02*
G01*
X144895450Y-143247540D01*
X144927582Y-143253106D01*
X144958122Y-143263414D01*
X144994489Y-143279852D01*
X145021728Y-143293800D01*
X145107429Y-143352335D01*
X145176617Y-143424381D01*
X145227741Y-143508053D01*
X145259250Y-143601469D01*
X145266225Y-143634566D01*
X145273094Y-143675040D01*
X145274919Y-143708001D01*
X145271947Y-143742302D01*
X145264426Y-143786800D01*
X145252002Y-143838066D01*
X145214112Y-143928566D01*
X145159836Y-144007655D01*
X145091770Y-144073472D01*
X145012511Y-144124160D01*
X144924654Y-144157860D01*
X144830795Y-144172714D01*
X144733530Y-144166864D01*
X144637220Y-144140601D01*
X144548494Y-144095582D01*
X144473419Y-144034627D01*
X144413641Y-143959816D01*
X144370809Y-143873232D01*
X144346571Y-143776957D01*
X144342576Y-143673072D01*
X144352850Y-143595438D01*
X144380053Y-143512687D01*
X144425484Y-143437594D01*
X144491302Y-143365702D01*
X144535567Y-143327154D01*
X144593961Y-143287744D01*
X144654586Y-143262554D01*
X144723865Y-143249139D01*
X144808222Y-143245052D01*
X144854307Y-143245331D01*
G37*
X144854307Y-143245331D02*
X144895450Y-143247540D01*
X144927582Y-143253106D01*
X144958122Y-143263414D01*
X144994489Y-143279852D01*
X145021728Y-143293800D01*
X145107429Y-143352335D01*
X145176617Y-143424381D01*
X145227741Y-143508053D01*
X145259250Y-143601469D01*
X145266225Y-143634566D01*
X145273094Y-143675040D01*
X145274919Y-143708001D01*
X145271947Y-143742302D01*
X145264426Y-143786800D01*
X145252002Y-143838066D01*
X145214112Y-143928566D01*
X145159836Y-144007655D01*
X145091770Y-144073472D01*
X145012511Y-144124160D01*
X144924654Y-144157860D01*
X144830795Y-144172714D01*
X144733530Y-144166864D01*
X144637220Y-144140601D01*
X144548494Y-144095582D01*
X144473419Y-144034627D01*
X144413641Y-143959816D01*
X144370809Y-143873232D01*
X144346571Y-143776957D01*
X144342576Y-143673072D01*
X144352850Y-143595438D01*
X144380053Y-143512687D01*
X144425484Y-143437594D01*
X144491302Y-143365702D01*
X144535567Y-143327154D01*
X144593961Y-143287744D01*
X144654586Y-143262554D01*
X144723865Y-143249139D01*
X144808222Y-143245052D01*
X144854307Y-143245331D01*
G36*
X149715178Y-150539083D02*
G01*
X149716631Y-150540443D01*
X149724992Y-150551646D01*
X149730547Y-150568748D01*
X149733840Y-150595918D01*
X149735418Y-150637322D01*
X149735822Y-150697127D01*
X149735822Y-150836489D01*
X149999589Y-150836489D01*
X150075417Y-150836564D01*
X150142083Y-150836972D01*
X150191867Y-150837954D01*
X150227784Y-150839750D01*
X150252850Y-150842601D01*
X150270081Y-150846747D01*
X150282492Y-150852429D01*
X150293100Y-150859886D01*
X150295906Y-150862176D01*
X150318548Y-150893354D01*
X150320112Y-150927734D01*
X150300267Y-150960666D01*
X150292191Y-150967645D01*
X150281593Y-150973117D01*
X150265749Y-150977137D01*
X150241773Y-150979928D01*
X150206774Y-150981712D01*
X150157864Y-150982711D01*
X150092154Y-150983148D01*
X150006756Y-150983244D01*
X149735822Y-150983244D01*
X149735822Y-151129180D01*
X149735821Y-151140280D01*
X149735596Y-151196798D01*
X149734457Y-151235642D01*
X149731657Y-151261035D01*
X149726450Y-151277196D01*
X149718089Y-151288348D01*
X149705826Y-151298711D01*
X149675138Y-151314559D01*
X149641358Y-151311457D01*
X149608822Y-151285813D01*
X149605105Y-151280871D01*
X149600269Y-151270662D01*
X149596506Y-151255236D01*
X149593683Y-151232114D01*
X149591670Y-151198817D01*
X149590333Y-151152863D01*
X149589542Y-151091772D01*
X149589163Y-151013065D01*
X149589067Y-150914260D01*
X149589068Y-150894233D01*
X149589158Y-150800110D01*
X149589498Y-150725595D01*
X149590239Y-150668189D01*
X149591535Y-150625389D01*
X149593537Y-150594696D01*
X149596396Y-150573609D01*
X149600266Y-150559627D01*
X149605298Y-150550250D01*
X149611645Y-150542978D01*
X149644362Y-150524172D01*
X149681939Y-150522725D01*
X149715178Y-150539083D01*
G37*
X149715178Y-150539083D02*
X149716631Y-150540443D01*
X149724992Y-150551646D01*
X149730547Y-150568748D01*
X149733840Y-150595918D01*
X149735418Y-150637322D01*
X149735822Y-150697127D01*
X149735822Y-150836489D01*
X149999589Y-150836489D01*
X150075417Y-150836564D01*
X150142083Y-150836972D01*
X150191867Y-150837954D01*
X150227784Y-150839750D01*
X150252850Y-150842601D01*
X150270081Y-150846747D01*
X150282492Y-150852429D01*
X150293100Y-150859886D01*
X150295906Y-150862176D01*
X150318548Y-150893354D01*
X150320112Y-150927734D01*
X150300267Y-150960666D01*
X150292191Y-150967645D01*
X150281593Y-150973117D01*
X150265749Y-150977137D01*
X150241773Y-150979928D01*
X150206774Y-150981712D01*
X150157864Y-150982711D01*
X150092154Y-150983148D01*
X150006756Y-150983244D01*
X149735822Y-150983244D01*
X149735822Y-151129180D01*
X149735821Y-151140280D01*
X149735596Y-151196798D01*
X149734457Y-151235642D01*
X149731657Y-151261035D01*
X149726450Y-151277196D01*
X149718089Y-151288348D01*
X149705826Y-151298711D01*
X149675138Y-151314559D01*
X149641358Y-151311457D01*
X149608822Y-151285813D01*
X149605105Y-151280871D01*
X149600269Y-151270662D01*
X149596506Y-151255236D01*
X149593683Y-151232114D01*
X149591670Y-151198817D01*
X149590333Y-151152863D01*
X149589542Y-151091772D01*
X149589163Y-151013065D01*
X149589067Y-150914260D01*
X149589068Y-150894233D01*
X149589158Y-150800110D01*
X149589498Y-150725595D01*
X149590239Y-150668189D01*
X149591535Y-150625389D01*
X149593537Y-150594696D01*
X149596396Y-150573609D01*
X149600266Y-150559627D01*
X149605298Y-150550250D01*
X149611645Y-150542978D01*
X149644362Y-150524172D01*
X149681939Y-150522725D01*
X149715178Y-150539083D01*
G36*
X149997631Y-151546891D02*
G01*
X150114000Y-151547375D01*
X150128175Y-151547443D01*
X150189937Y-151548029D01*
X150233620Y-151549352D01*
X150263001Y-151551897D01*
X150281855Y-151556152D01*
X150293959Y-151562604D01*
X150303089Y-151571738D01*
X150320506Y-151605196D01*
X150317604Y-151640144D01*
X150293100Y-151671047D01*
X150279897Y-151680056D01*
X150261361Y-151687508D01*
X150235333Y-151691876D01*
X150196787Y-151693931D01*
X150140700Y-151694444D01*
X150018045Y-151694444D01*
X150018045Y-152191155D01*
X150152871Y-152191155D01*
X150188662Y-152191228D01*
X150234992Y-152191991D01*
X150265526Y-152194167D01*
X150284557Y-152198464D01*
X150296374Y-152205588D01*
X150305271Y-152216245D01*
X150320341Y-152248496D01*
X150317673Y-152283783D01*
X150293100Y-152314514D01*
X150286845Y-152319169D01*
X150276321Y-152325105D01*
X150262391Y-152329636D01*
X150242317Y-152332952D01*
X150213360Y-152335241D01*
X150172780Y-152336692D01*
X150117840Y-152337495D01*
X150045799Y-152337838D01*
X149953920Y-152337911D01*
X149644485Y-152337911D01*
X149616776Y-152310202D01*
X149594533Y-152278823D01*
X149591844Y-152245594D01*
X149611645Y-152213733D01*
X149621415Y-152205447D01*
X149637307Y-152198035D01*
X149661275Y-152193698D01*
X149698148Y-152191662D01*
X149752756Y-152191155D01*
X149871289Y-152191155D01*
X149871289Y-151694444D01*
X149755776Y-151694444D01*
X149704078Y-151694006D01*
X149669554Y-151692042D01*
X149646978Y-151687526D01*
X149631126Y-151679433D01*
X149616776Y-151666735D01*
X149594533Y-151635357D01*
X149591844Y-151602128D01*
X149611645Y-151570266D01*
X149617835Y-151564634D01*
X149626041Y-151559544D01*
X149637817Y-151555457D01*
X149655276Y-151552279D01*
X149680530Y-151549913D01*
X149715690Y-151548262D01*
X149762869Y-151547231D01*
X149824177Y-151546723D01*
X149901727Y-151546641D01*
X149997631Y-151546891D01*
G37*
X149997631Y-151546891D02*
X150114000Y-151547375D01*
X150128175Y-151547443D01*
X150189937Y-151548029D01*
X150233620Y-151549352D01*
X150263001Y-151551897D01*
X150281855Y-151556152D01*
X150293959Y-151562604D01*
X150303089Y-151571738D01*
X150320506Y-151605196D01*
X150317604Y-151640144D01*
X150293100Y-151671047D01*
X150279897Y-151680056D01*
X150261361Y-151687508D01*
X150235333Y-151691876D01*
X150196787Y-151693931D01*
X150140700Y-151694444D01*
X150018045Y-151694444D01*
X150018045Y-152191155D01*
X150152871Y-152191155D01*
X150188662Y-152191228D01*
X150234992Y-152191991D01*
X150265526Y-152194167D01*
X150284557Y-152198464D01*
X150296374Y-152205588D01*
X150305271Y-152216245D01*
X150320341Y-152248496D01*
X150317673Y-152283783D01*
X150293100Y-152314514D01*
X150286845Y-152319169D01*
X150276321Y-152325105D01*
X150262391Y-152329636D01*
X150242317Y-152332952D01*
X150213360Y-152335241D01*
X150172780Y-152336692D01*
X150117840Y-152337495D01*
X150045799Y-152337838D01*
X149953920Y-152337911D01*
X149644485Y-152337911D01*
X149616776Y-152310202D01*
X149594533Y-152278823D01*
X149591844Y-152245594D01*
X149611645Y-152213733D01*
X149621415Y-152205447D01*
X149637307Y-152198035D01*
X149661275Y-152193698D01*
X149698148Y-152191662D01*
X149752756Y-152191155D01*
X149871289Y-152191155D01*
X149871289Y-151694444D01*
X149755776Y-151694444D01*
X149704078Y-151694006D01*
X149669554Y-151692042D01*
X149646978Y-151687526D01*
X149631126Y-151679433D01*
X149616776Y-151666735D01*
X149594533Y-151635357D01*
X149591844Y-151602128D01*
X149611645Y-151570266D01*
X149617835Y-151564634D01*
X149626041Y-151559544D01*
X149637817Y-151555457D01*
X149655276Y-151552279D01*
X149680530Y-151549913D01*
X149715690Y-151548262D01*
X149762869Y-151547231D01*
X149824177Y-151546723D01*
X149901727Y-151546641D01*
X149997631Y-151546891D01*
G36*
X150176089Y-146864225D02*
G01*
X150200396Y-146864867D01*
X150233175Y-146866837D01*
X150256095Y-146869765D01*
X150271897Y-146873842D01*
X150283319Y-146879257D01*
X150293100Y-146886197D01*
X150322845Y-146909594D01*
X150322251Y-147075286D01*
X150321953Y-147110082D01*
X150318522Y-147208565D01*
X150310839Y-147289527D01*
X150298282Y-147356621D01*
X150280227Y-147413504D01*
X150256052Y-147463831D01*
X150254135Y-147467190D01*
X150217417Y-147525002D01*
X150180451Y-147567356D01*
X150136966Y-147600172D01*
X150080689Y-147629372D01*
X150071073Y-147633654D01*
X150007887Y-147656231D01*
X149952509Y-147663203D01*
X149897483Y-147654601D01*
X149835351Y-147630459D01*
X149833658Y-147629663D01*
X149764236Y-147589212D01*
X149707638Y-147538527D01*
X149663070Y-147475802D01*
X149629741Y-147399226D01*
X149606861Y-147306991D01*
X149593636Y-147197288D01*
X149589275Y-147068309D01*
X149589270Y-147064737D01*
X149589372Y-147020844D01*
X149735822Y-147020844D01*
X149736270Y-147108333D01*
X149738746Y-147175253D01*
X149749998Y-147267651D01*
X149769537Y-147346966D01*
X149796511Y-147408940D01*
X149817240Y-147439880D01*
X149847006Y-147468000D01*
X149889434Y-147491340D01*
X149905400Y-147498467D01*
X149937902Y-147510291D01*
X149962333Y-147512721D01*
X149987061Y-147507108D01*
X150002939Y-147501382D01*
X150062847Y-147468452D01*
X150108600Y-147421114D01*
X150141736Y-147357348D01*
X150163790Y-147275139D01*
X150164292Y-147272345D01*
X150170255Y-147226060D01*
X150174483Y-147169664D01*
X150176089Y-147114726D01*
X150176089Y-147020844D01*
X149735822Y-147020844D01*
X149589372Y-147020844D01*
X149589410Y-147004717D01*
X149590446Y-146962786D01*
X149593040Y-146934672D01*
X149597853Y-146916103D01*
X149605544Y-146902806D01*
X149616776Y-146890509D01*
X149644485Y-146862800D01*
X149953920Y-146862800D01*
X150015526Y-146862825D01*
X150094311Y-146863050D01*
X150155021Y-146863668D01*
X150176089Y-146864225D01*
G37*
X150176089Y-146864225D02*
X150200396Y-146864867D01*
X150233175Y-146866837D01*
X150256095Y-146869765D01*
X150271897Y-146873842D01*
X150283319Y-146879257D01*
X150293100Y-146886197D01*
X150322845Y-146909594D01*
X150322251Y-147075286D01*
X150321953Y-147110082D01*
X150318522Y-147208565D01*
X150310839Y-147289527D01*
X150298282Y-147356621D01*
X150280227Y-147413504D01*
X150256052Y-147463831D01*
X150254135Y-147467190D01*
X150217417Y-147525002D01*
X150180451Y-147567356D01*
X150136966Y-147600172D01*
X150080689Y-147629372D01*
X150071073Y-147633654D01*
X150007887Y-147656231D01*
X149952509Y-147663203D01*
X149897483Y-147654601D01*
X149835351Y-147630459D01*
X149833658Y-147629663D01*
X149764236Y-147589212D01*
X149707638Y-147538527D01*
X149663070Y-147475802D01*
X149629741Y-147399226D01*
X149606861Y-147306991D01*
X149593636Y-147197288D01*
X149589275Y-147068309D01*
X149589270Y-147064737D01*
X149589372Y-147020844D01*
X149735822Y-147020844D01*
X149736270Y-147108333D01*
X149738746Y-147175253D01*
X149749998Y-147267651D01*
X149769537Y-147346966D01*
X149796511Y-147408940D01*
X149817240Y-147439880D01*
X149847006Y-147468000D01*
X149889434Y-147491340D01*
X149905400Y-147498467D01*
X149937902Y-147510291D01*
X149962333Y-147512721D01*
X149987061Y-147507108D01*
X150002939Y-147501382D01*
X150062847Y-147468452D01*
X150108600Y-147421114D01*
X150141736Y-147357348D01*
X150163790Y-147275139D01*
X150164292Y-147272345D01*
X150170255Y-147226060D01*
X150174483Y-147169664D01*
X150176089Y-147114726D01*
X150176089Y-147020844D01*
X149735822Y-147020844D01*
X149589372Y-147020844D01*
X149589410Y-147004717D01*
X149590446Y-146962786D01*
X149593040Y-146934672D01*
X149597853Y-146916103D01*
X149605544Y-146902806D01*
X149616776Y-146890509D01*
X149644485Y-146862800D01*
X149953920Y-146862800D01*
X150015526Y-146862825D01*
X150094311Y-146863050D01*
X150155021Y-146863668D01*
X150176089Y-146864225D01*
G36*
X149735822Y-139774143D02*
G01*
X149774427Y-139773183D01*
X149855041Y-139773130D01*
X149955956Y-139773378D01*
X150031617Y-139773417D01*
X150109526Y-139773672D01*
X150169536Y-139774316D01*
X150214264Y-139775520D01*
X150246326Y-139777457D01*
X150268340Y-139780297D01*
X150282924Y-139784212D01*
X150292694Y-139789374D01*
X150300267Y-139795955D01*
X150306501Y-139802923D01*
X150313801Y-139815921D01*
X150318554Y-139835069D01*
X150321292Y-139864472D01*
X150322545Y-139908238D01*
X150322845Y-139970472D01*
X150322469Y-140019418D01*
X150318041Y-140126278D01*
X150307953Y-140215506D01*
X150291365Y-140290304D01*
X150267435Y-140353875D01*
X150235321Y-140409421D01*
X150194182Y-140460146D01*
X150188330Y-140466134D01*
X150139821Y-140503001D01*
X150079013Y-140534101D01*
X150014769Y-140555583D01*
X149955956Y-140563600D01*
X149934739Y-140562321D01*
X149877323Y-140550009D01*
X149817413Y-140527480D01*
X149763363Y-140498250D01*
X149723532Y-140465833D01*
X149706510Y-140446292D01*
X149667322Y-140391580D01*
X149637193Y-140331277D01*
X149615232Y-140262081D01*
X149600550Y-140180689D01*
X149592259Y-140083800D01*
X149590148Y-139996333D01*
X149735808Y-139996333D01*
X149735817Y-139999361D01*
X149737782Y-140050481D01*
X149742507Y-140110584D01*
X149749035Y-140167292D01*
X149758331Y-140217250D01*
X149784600Y-140292002D01*
X149823899Y-140349511D01*
X149876933Y-140391012D01*
X149928200Y-140412229D01*
X149976026Y-140413647D01*
X150026961Y-140395365D01*
X150072878Y-140365695D01*
X150115287Y-140318998D01*
X150145090Y-140257608D01*
X150164226Y-140178462D01*
X150164464Y-140176972D01*
X150170256Y-140128001D01*
X150174396Y-140069307D01*
X150176004Y-140013266D01*
X150176089Y-139920133D01*
X149735822Y-139920133D01*
X149735808Y-139996333D01*
X149590148Y-139996333D01*
X149589467Y-139968111D01*
X149589066Y-139928629D01*
X149588653Y-139882918D01*
X149590457Y-139847117D01*
X149596739Y-139820026D01*
X149609759Y-139800444D01*
X149631778Y-139787170D01*
X149665055Y-139779002D01*
X149711851Y-139774740D01*
X149735822Y-139774143D01*
G37*
X149735822Y-139774143D02*
X149774427Y-139773183D01*
X149855041Y-139773130D01*
X149955956Y-139773378D01*
X150031617Y-139773417D01*
X150109526Y-139773672D01*
X150169536Y-139774316D01*
X150214264Y-139775520D01*
X150246326Y-139777457D01*
X150268340Y-139780297D01*
X150282924Y-139784212D01*
X150292694Y-139789374D01*
X150300267Y-139795955D01*
X150306501Y-139802923D01*
X150313801Y-139815921D01*
X150318554Y-139835069D01*
X150321292Y-139864472D01*
X150322545Y-139908238D01*
X150322845Y-139970472D01*
X150322469Y-140019418D01*
X150318041Y-140126278D01*
X150307953Y-140215506D01*
X150291365Y-140290304D01*
X150267435Y-140353875D01*
X150235321Y-140409421D01*
X150194182Y-140460146D01*
X150188330Y-140466134D01*
X150139821Y-140503001D01*
X150079013Y-140534101D01*
X150014769Y-140555583D01*
X149955956Y-140563600D01*
X149934739Y-140562321D01*
X149877323Y-140550009D01*
X149817413Y-140527480D01*
X149763363Y-140498250D01*
X149723532Y-140465833D01*
X149706510Y-140446292D01*
X149667322Y-140391580D01*
X149637193Y-140331277D01*
X149615232Y-140262081D01*
X149600550Y-140180689D01*
X149592259Y-140083800D01*
X149590148Y-139996333D01*
X149735808Y-139996333D01*
X149735817Y-139999361D01*
X149737782Y-140050481D01*
X149742507Y-140110584D01*
X149749035Y-140167292D01*
X149758331Y-140217250D01*
X149784600Y-140292002D01*
X149823899Y-140349511D01*
X149876933Y-140391012D01*
X149928200Y-140412229D01*
X149976026Y-140413647D01*
X150026961Y-140395365D01*
X150072878Y-140365695D01*
X150115287Y-140318998D01*
X150145090Y-140257608D01*
X150164226Y-140178462D01*
X150164464Y-140176972D01*
X150170256Y-140128001D01*
X150174396Y-140069307D01*
X150176004Y-140013266D01*
X150176089Y-139920133D01*
X149735822Y-139920133D01*
X149735808Y-139996333D01*
X149590148Y-139996333D01*
X149589467Y-139968111D01*
X149589066Y-139928629D01*
X149588653Y-139882918D01*
X149590457Y-139847117D01*
X149596739Y-139820026D01*
X149609759Y-139800444D01*
X149631778Y-139787170D01*
X149665055Y-139779002D01*
X149711851Y-139774740D01*
X149735822Y-139774143D01*
G36*
X150014486Y-144661489D02*
G01*
X150093573Y-144661708D01*
X150154516Y-144662317D01*
X150200062Y-144663508D01*
X150232963Y-144665471D01*
X150255968Y-144668397D01*
X150271826Y-144672477D01*
X150283286Y-144677903D01*
X150293100Y-144684864D01*
X150317493Y-144715292D01*
X150320372Y-144750235D01*
X150301282Y-144787216D01*
X150297807Y-144791400D01*
X150289279Y-144799576D01*
X150277728Y-144805636D01*
X150259896Y-144810019D01*
X150232524Y-144813161D01*
X150192354Y-144815498D01*
X150136128Y-144817469D01*
X150060589Y-144819511D01*
X149841458Y-144825155D01*
X150082099Y-145090444D01*
X150148875Y-145164278D01*
X150206991Y-145229458D01*
X150251949Y-145281652D01*
X150284871Y-145322727D01*
X150306879Y-145354545D01*
X150319094Y-145378974D01*
X150322639Y-145397876D01*
X150318636Y-145413117D01*
X150308207Y-145426561D01*
X150292474Y-145440073D01*
X150283991Y-145446318D01*
X150273413Y-145451950D01*
X150259255Y-145456161D01*
X150238803Y-145459113D01*
X150209342Y-145460968D01*
X150168161Y-145461887D01*
X150112544Y-145462032D01*
X150039779Y-145461565D01*
X149947151Y-145460648D01*
X149632199Y-145457333D01*
X149610633Y-145430682D01*
X149594441Y-145404617D01*
X149591670Y-145371759D01*
X149610623Y-145337228D01*
X149614208Y-145332916D01*
X149622737Y-145324784D01*
X149634329Y-145318755D01*
X149652235Y-145314394D01*
X149679706Y-145311266D01*
X149719994Y-145308937D01*
X149776351Y-145306971D01*
X149852029Y-145304933D01*
X150071878Y-145299289D01*
X149908084Y-145118666D01*
X149829451Y-145031928D01*
X149761058Y-144956157D01*
X149705708Y-144894020D01*
X149662338Y-144843922D01*
X149629881Y-144804265D01*
X149607273Y-144773452D01*
X149593448Y-144749886D01*
X149587343Y-144731970D01*
X149587892Y-144718107D01*
X149594029Y-144706699D01*
X149604691Y-144696150D01*
X149618811Y-144684864D01*
X149624772Y-144680411D01*
X149635268Y-144674412D01*
X149649093Y-144669833D01*
X149668998Y-144666481D01*
X149697732Y-144664167D01*
X149738045Y-144662699D01*
X149792687Y-144661887D01*
X149864407Y-144661540D01*
X149955956Y-144661466D01*
X150014486Y-144661489D01*
G37*
X150014486Y-144661489D02*
X150093573Y-144661708D01*
X150154516Y-144662317D01*
X150200062Y-144663508D01*
X150232963Y-144665471D01*
X150255968Y-144668397D01*
X150271826Y-144672477D01*
X150283286Y-144677903D01*
X150293100Y-144684864D01*
X150317493Y-144715292D01*
X150320372Y-144750235D01*
X150301282Y-144787216D01*
X150297807Y-144791400D01*
X150289279Y-144799576D01*
X150277728Y-144805636D01*
X150259896Y-144810019D01*
X150232524Y-144813161D01*
X150192354Y-144815498D01*
X150136128Y-144817469D01*
X150060589Y-144819511D01*
X149841458Y-144825155D01*
X150082099Y-145090444D01*
X150148875Y-145164278D01*
X150206991Y-145229458D01*
X150251949Y-145281652D01*
X150284871Y-145322727D01*
X150306879Y-145354545D01*
X150319094Y-145378974D01*
X150322639Y-145397876D01*
X150318636Y-145413117D01*
X150308207Y-145426561D01*
X150292474Y-145440073D01*
X150283991Y-145446318D01*
X150273413Y-145451950D01*
X150259255Y-145456161D01*
X150238803Y-145459113D01*
X150209342Y-145460968D01*
X150168161Y-145461887D01*
X150112544Y-145462032D01*
X150039779Y-145461565D01*
X149947151Y-145460648D01*
X149632199Y-145457333D01*
X149610633Y-145430682D01*
X149594441Y-145404617D01*
X149591670Y-145371759D01*
X149610623Y-145337228D01*
X149614208Y-145332916D01*
X149622737Y-145324784D01*
X149634329Y-145318755D01*
X149652235Y-145314394D01*
X149679706Y-145311266D01*
X149719994Y-145308937D01*
X149776351Y-145306971D01*
X149852029Y-145304933D01*
X150071878Y-145299289D01*
X149908084Y-145118666D01*
X149829451Y-145031928D01*
X149761058Y-144956157D01*
X149705708Y-144894020D01*
X149662338Y-144843922D01*
X149629881Y-144804265D01*
X149607273Y-144773452D01*
X149593448Y-144749886D01*
X149587343Y-144731970D01*
X149587892Y-144718107D01*
X149594029Y-144706699D01*
X149604691Y-144696150D01*
X149618811Y-144684864D01*
X149624772Y-144680411D01*
X149635268Y-144674412D01*
X149649093Y-144669833D01*
X149668998Y-144666481D01*
X149697732Y-144664167D01*
X149738045Y-144662699D01*
X149792687Y-144661887D01*
X149864407Y-144661540D01*
X149955956Y-144661466D01*
X150014486Y-144661489D01*
G36*
X149974259Y-143477702D02*
G01*
X150025592Y-143490643D01*
X150082118Y-143513806D01*
X150136035Y-143543698D01*
X150179539Y-143576827D01*
X150189887Y-143587023D01*
X150241662Y-143654108D01*
X150281554Y-143734234D01*
X150305956Y-143820444D01*
X150314068Y-143875408D01*
X150320673Y-143968861D01*
X150318586Y-144058642D01*
X150308340Y-144141131D01*
X150290470Y-144212714D01*
X150265508Y-144269772D01*
X150233988Y-144308689D01*
X150232012Y-144310064D01*
X150206786Y-144317152D01*
X150159535Y-144321391D01*
X150090071Y-144322800D01*
X150027838Y-144321940D01*
X149980456Y-144317220D01*
X149948353Y-144305530D01*
X149928800Y-144283761D01*
X149919070Y-144248802D01*
X149916433Y-144197544D01*
X149918161Y-144126877D01*
X149921173Y-144078257D01*
X149929366Y-144028061D01*
X149943419Y-143995567D01*
X149964654Y-143978108D01*
X149994394Y-143973017D01*
X149998936Y-143973123D01*
X150033730Y-143981825D01*
X150057147Y-144005835D01*
X150070347Y-144047100D01*
X150074489Y-144107569D01*
X150074489Y-144176044D01*
X150112841Y-144176044D01*
X150121976Y-144175994D01*
X150139227Y-144173773D01*
X150149521Y-144164506D01*
X150156459Y-144143125D01*
X150163641Y-144104564D01*
X150164575Y-144099090D01*
X150174478Y-144002140D01*
X150171559Y-143912148D01*
X150156829Y-143831240D01*
X150131299Y-143761541D01*
X150095978Y-143705176D01*
X150051879Y-143664271D01*
X150000012Y-143640949D01*
X149941388Y-143637337D01*
X149912494Y-143642855D01*
X149856604Y-143669539D01*
X149810945Y-143715727D01*
X149776108Y-143780709D01*
X149752690Y-143863771D01*
X149748241Y-143888445D01*
X149737742Y-143977774D01*
X149738971Y-144057581D01*
X149751906Y-144135674D01*
X149758696Y-144170817D01*
X149759713Y-144216255D01*
X149747182Y-144247570D01*
X149720395Y-144267723D01*
X149692148Y-144274107D01*
X149660924Y-144264621D01*
X149647499Y-144255292D01*
X149623967Y-144221057D01*
X149606095Y-144168435D01*
X149594599Y-144099919D01*
X149590192Y-144018000D01*
X149594179Y-143920850D01*
X149610494Y-143814843D01*
X149638545Y-143721031D01*
X149677452Y-143642235D01*
X149726334Y-143581281D01*
X149759195Y-143555211D01*
X149808394Y-143525703D01*
X149862252Y-143500432D01*
X149913419Y-143482782D01*
X149954544Y-143476142D01*
X149974259Y-143477702D01*
G37*
X149974259Y-143477702D02*
X150025592Y-143490643D01*
X150082118Y-143513806D01*
X150136035Y-143543698D01*
X150179539Y-143576827D01*
X150189887Y-143587023D01*
X150241662Y-143654108D01*
X150281554Y-143734234D01*
X150305956Y-143820444D01*
X150314068Y-143875408D01*
X150320673Y-143968861D01*
X150318586Y-144058642D01*
X150308340Y-144141131D01*
X150290470Y-144212714D01*
X150265508Y-144269772D01*
X150233988Y-144308689D01*
X150232012Y-144310064D01*
X150206786Y-144317152D01*
X150159535Y-144321391D01*
X150090071Y-144322800D01*
X150027838Y-144321940D01*
X149980456Y-144317220D01*
X149948353Y-144305530D01*
X149928800Y-144283761D01*
X149919070Y-144248802D01*
X149916433Y-144197544D01*
X149918161Y-144126877D01*
X149921173Y-144078257D01*
X149929366Y-144028061D01*
X149943419Y-143995567D01*
X149964654Y-143978108D01*
X149994394Y-143973017D01*
X149998936Y-143973123D01*
X150033730Y-143981825D01*
X150057147Y-144005835D01*
X150070347Y-144047100D01*
X150074489Y-144107569D01*
X150074489Y-144176044D01*
X150112841Y-144176044D01*
X150121976Y-144175994D01*
X150139227Y-144173773D01*
X150149521Y-144164506D01*
X150156459Y-144143125D01*
X150163641Y-144104564D01*
X150164575Y-144099090D01*
X150174478Y-144002140D01*
X150171559Y-143912148D01*
X150156829Y-143831240D01*
X150131299Y-143761541D01*
X150095978Y-143705176D01*
X150051879Y-143664271D01*
X150000012Y-143640949D01*
X149941388Y-143637337D01*
X149912494Y-143642855D01*
X149856604Y-143669539D01*
X149810945Y-143715727D01*
X149776108Y-143780709D01*
X149752690Y-143863771D01*
X149748241Y-143888445D01*
X149737742Y-143977774D01*
X149738971Y-144057581D01*
X149751906Y-144135674D01*
X149758696Y-144170817D01*
X149759713Y-144216255D01*
X149747182Y-144247570D01*
X149720395Y-144267723D01*
X149692148Y-144274107D01*
X149660924Y-144264621D01*
X149647499Y-144255292D01*
X149623967Y-144221057D01*
X149606095Y-144168435D01*
X149594599Y-144099919D01*
X149590192Y-144018000D01*
X149594179Y-143920850D01*
X149610494Y-143814843D01*
X149638545Y-143721031D01*
X149677452Y-143642235D01*
X149726334Y-143581281D01*
X149759195Y-143555211D01*
X149808394Y-143525703D01*
X149862252Y-143500432D01*
X149913419Y-143482782D01*
X149954544Y-143476142D01*
X149974259Y-143477702D01*
G36*
X150026911Y-145846829D02*
G01*
X150105228Y-145847061D01*
X150165496Y-145847681D01*
X150210393Y-145848874D01*
X150242602Y-145850821D01*
X150264800Y-145853706D01*
X150279669Y-145857712D01*
X150289889Y-145863021D01*
X150298138Y-145869817D01*
X150302795Y-145874332D01*
X150309282Y-145882562D01*
X150314194Y-145893922D01*
X150317749Y-145911190D01*
X150320167Y-145937145D01*
X150321667Y-145974564D01*
X150322467Y-146026227D01*
X150322787Y-146094911D01*
X150322845Y-146183394D01*
X150322838Y-146203069D01*
X150322572Y-146290094D01*
X150321806Y-146357746D01*
X150320392Y-146408701D01*
X150318180Y-146445633D01*
X150315022Y-146471217D01*
X150310769Y-146488129D01*
X150305271Y-146499043D01*
X150295285Y-146509536D01*
X150264168Y-146522797D01*
X150228280Y-146521614D01*
X150196733Y-146505450D01*
X150194457Y-146503261D01*
X150188189Y-146494573D01*
X150183523Y-146481231D01*
X150180227Y-146460248D01*
X150178068Y-146428637D01*
X150176814Y-146383410D01*
X150176231Y-146321580D01*
X150176089Y-146240161D01*
X150176089Y-145993555D01*
X150018045Y-145993555D01*
X150018045Y-146155994D01*
X150017964Y-146191662D01*
X150017167Y-146247432D01*
X150015162Y-146286570D01*
X150011521Y-146313024D01*
X150005812Y-146330741D01*
X149997607Y-146343671D01*
X149994423Y-146347314D01*
X149963448Y-146365722D01*
X149927112Y-146366356D01*
X149893493Y-146348817D01*
X149893424Y-146348755D01*
X149884798Y-146339084D01*
X149878742Y-146325791D01*
X149874811Y-146305083D01*
X149872556Y-146273172D01*
X149871531Y-146226266D01*
X149871289Y-146160576D01*
X149871289Y-145992429D01*
X149806378Y-145995814D01*
X149741467Y-145999200D01*
X149738414Y-146241277D01*
X149738086Y-146266293D01*
X149736606Y-146347913D01*
X149734222Y-146410232D01*
X149730227Y-146455846D01*
X149723913Y-146487348D01*
X149714574Y-146507333D01*
X149701503Y-146518396D01*
X149683992Y-146523131D01*
X149661335Y-146524133D01*
X149658970Y-146524127D01*
X149638939Y-146522973D01*
X149623146Y-146518176D01*
X149611090Y-146507368D01*
X149602267Y-146488183D01*
X149596175Y-146458255D01*
X149592311Y-146415217D01*
X149590174Y-146356701D01*
X149589260Y-146280343D01*
X149589067Y-146183774D01*
X149589067Y-145893594D01*
X149618811Y-145870197D01*
X149625495Y-145865248D01*
X149636066Y-145859404D01*
X149650153Y-145854943D01*
X149670478Y-145851679D01*
X149699765Y-145849426D01*
X149740737Y-145847998D01*
X149796117Y-145847208D01*
X149868628Y-145846871D01*
X149960994Y-145846800D01*
X150026911Y-145846829D01*
G37*
X150026911Y-145846829D02*
X150105228Y-145847061D01*
X150165496Y-145847681D01*
X150210393Y-145848874D01*
X150242602Y-145850821D01*
X150264800Y-145853706D01*
X150279669Y-145857712D01*
X150289889Y-145863021D01*
X150298138Y-145869817D01*
X150302795Y-145874332D01*
X150309282Y-145882562D01*
X150314194Y-145893922D01*
X150317749Y-145911190D01*
X150320167Y-145937145D01*
X150321667Y-145974564D01*
X150322467Y-146026227D01*
X150322787Y-146094911D01*
X150322845Y-146183394D01*
X150322838Y-146203069D01*
X150322572Y-146290094D01*
X150321806Y-146357746D01*
X150320392Y-146408701D01*
X150318180Y-146445633D01*
X150315022Y-146471217D01*
X150310769Y-146488129D01*
X150305271Y-146499043D01*
X150295285Y-146509536D01*
X150264168Y-146522797D01*
X150228280Y-146521614D01*
X150196733Y-146505450D01*
X150194457Y-146503261D01*
X150188189Y-146494573D01*
X150183523Y-146481231D01*
X150180227Y-146460248D01*
X150178068Y-146428637D01*
X150176814Y-146383410D01*
X150176231Y-146321580D01*
X150176089Y-146240161D01*
X150176089Y-145993555D01*
X150018045Y-145993555D01*
X150018045Y-146155994D01*
X150017964Y-146191662D01*
X150017167Y-146247432D01*
X150015162Y-146286570D01*
X150011521Y-146313024D01*
X150005812Y-146330741D01*
X149997607Y-146343671D01*
X149994423Y-146347314D01*
X149963448Y-146365722D01*
X149927112Y-146366356D01*
X149893493Y-146348817D01*
X149893424Y-146348755D01*
X149884798Y-146339084D01*
X149878742Y-146325791D01*
X149874811Y-146305083D01*
X149872556Y-146273172D01*
X149871531Y-146226266D01*
X149871289Y-146160576D01*
X149871289Y-145992429D01*
X149806378Y-145995814D01*
X149741467Y-145999200D01*
X149738414Y-146241277D01*
X149738086Y-146266293D01*
X149736606Y-146347913D01*
X149734222Y-146410232D01*
X149730227Y-146455846D01*
X149723913Y-146487348D01*
X149714574Y-146507333D01*
X149701503Y-146518396D01*
X149683992Y-146523131D01*
X149661335Y-146524133D01*
X149658970Y-146524127D01*
X149638939Y-146522973D01*
X149623146Y-146518176D01*
X149611090Y-146507368D01*
X149602267Y-146488183D01*
X149596175Y-146458255D01*
X149592311Y-146415217D01*
X149590174Y-146356701D01*
X149589260Y-146280343D01*
X149589067Y-146183774D01*
X149589067Y-145893594D01*
X149618811Y-145870197D01*
X149625495Y-145865248D01*
X149636066Y-145859404D01*
X149650153Y-145854943D01*
X149670478Y-145851679D01*
X149699765Y-145849426D01*
X149740737Y-145847998D01*
X149796117Y-145847208D01*
X149868628Y-145846871D01*
X149960994Y-145846800D01*
X150026911Y-145846829D01*
G36*
X150030713Y-140902303D02*
G01*
X150108889Y-140902552D01*
X150169103Y-140903188D01*
X150213982Y-140904385D01*
X150246152Y-140906316D01*
X150268239Y-140909154D01*
X150282870Y-140913073D01*
X150292670Y-140918245D01*
X150300267Y-140924844D01*
X150303444Y-140928178D01*
X150309554Y-140936700D01*
X150314229Y-140948702D01*
X150317659Y-140966913D01*
X150320036Y-140994060D01*
X150321552Y-141032871D01*
X150322398Y-141086076D01*
X150322765Y-141156402D01*
X150322845Y-141246578D01*
X150322833Y-141288686D01*
X150322651Y-141369833D01*
X150322098Y-141432325D01*
X150320982Y-141478891D01*
X150319113Y-141512259D01*
X150316298Y-141535156D01*
X150312346Y-141550312D01*
X150307066Y-141560454D01*
X150300267Y-141568311D01*
X150278667Y-141583037D01*
X150249467Y-141590889D01*
X150225560Y-141585390D01*
X150198667Y-141568311D01*
X150194059Y-141563332D01*
X150187772Y-141553557D01*
X150183146Y-141539441D01*
X150179930Y-141517946D01*
X150177870Y-141486032D01*
X150176712Y-141440658D01*
X150176202Y-141378787D01*
X150176089Y-141297378D01*
X150176089Y-141049022D01*
X150018045Y-141049022D01*
X150018045Y-141210199D01*
X150017899Y-141246017D01*
X150016176Y-141311641D01*
X150011741Y-141358882D01*
X150003637Y-141390617D01*
X149990906Y-141409723D01*
X149972592Y-141419077D01*
X149947738Y-141421555D01*
X149927482Y-141420758D01*
X149905656Y-141415506D01*
X149890304Y-141402712D01*
X149880309Y-141379372D01*
X149874553Y-141342483D01*
X149871919Y-141289041D01*
X149871289Y-141216042D01*
X149871289Y-141047895D01*
X149806378Y-141051281D01*
X149741467Y-141054666D01*
X149738418Y-141302383D01*
X149737539Y-141364974D01*
X149736095Y-141433435D01*
X149734164Y-141484339D01*
X149731514Y-141520592D01*
X149727910Y-141545099D01*
X149723121Y-141560765D01*
X149716913Y-141570494D01*
X149710510Y-141576509D01*
X149678828Y-141589518D01*
X149643142Y-141585957D01*
X149612084Y-141566182D01*
X149609161Y-141562931D01*
X149602810Y-141553951D01*
X149597957Y-141541847D01*
X149594403Y-141523841D01*
X149591946Y-141497153D01*
X149590385Y-141459003D01*
X149589518Y-141406614D01*
X149589146Y-141337206D01*
X149589067Y-141247999D01*
X149589083Y-141193266D01*
X149589275Y-141116169D01*
X149589860Y-141057223D01*
X149591051Y-141013636D01*
X149593064Y-140982617D01*
X149596112Y-140961375D01*
X149600409Y-140947118D01*
X149606172Y-140937055D01*
X149613612Y-140928394D01*
X149615293Y-140926609D01*
X149622832Y-140919365D01*
X149631850Y-140913723D01*
X149644984Y-140909483D01*
X149664872Y-140906444D01*
X149694151Y-140904406D01*
X149735458Y-140903170D01*
X149791431Y-140902535D01*
X149864707Y-140902300D01*
X149957923Y-140902266D01*
X150030713Y-140902303D01*
G37*
X150030713Y-140902303D02*
X150108889Y-140902552D01*
X150169103Y-140903188D01*
X150213982Y-140904385D01*
X150246152Y-140906316D01*
X150268239Y-140909154D01*
X150282870Y-140913073D01*
X150292670Y-140918245D01*
X150300267Y-140924844D01*
X150303444Y-140928178D01*
X150309554Y-140936700D01*
X150314229Y-140948702D01*
X150317659Y-140966913D01*
X150320036Y-140994060D01*
X150321552Y-141032871D01*
X150322398Y-141086076D01*
X150322765Y-141156402D01*
X150322845Y-141246578D01*
X150322833Y-141288686D01*
X150322651Y-141369833D01*
X150322098Y-141432325D01*
X150320982Y-141478891D01*
X150319113Y-141512259D01*
X150316298Y-141535156D01*
X150312346Y-141550312D01*
X150307066Y-141560454D01*
X150300267Y-141568311D01*
X150278667Y-141583037D01*
X150249467Y-141590889D01*
X150225560Y-141585390D01*
X150198667Y-141568311D01*
X150194059Y-141563332D01*
X150187772Y-141553557D01*
X150183146Y-141539441D01*
X150179930Y-141517946D01*
X150177870Y-141486032D01*
X150176712Y-141440658D01*
X150176202Y-141378787D01*
X150176089Y-141297378D01*
X150176089Y-141049022D01*
X150018045Y-141049022D01*
X150018045Y-141210199D01*
X150017899Y-141246017D01*
X150016176Y-141311641D01*
X150011741Y-141358882D01*
X150003637Y-141390617D01*
X149990906Y-141409723D01*
X149972592Y-141419077D01*
X149947738Y-141421555D01*
X149927482Y-141420758D01*
X149905656Y-141415506D01*
X149890304Y-141402712D01*
X149880309Y-141379372D01*
X149874553Y-141342483D01*
X149871919Y-141289041D01*
X149871289Y-141216042D01*
X149871289Y-141047895D01*
X149806378Y-141051281D01*
X149741467Y-141054666D01*
X149738418Y-141302383D01*
X149737539Y-141364974D01*
X149736095Y-141433435D01*
X149734164Y-141484339D01*
X149731514Y-141520592D01*
X149727910Y-141545099D01*
X149723121Y-141560765D01*
X149716913Y-141570494D01*
X149710510Y-141576509D01*
X149678828Y-141589518D01*
X149643142Y-141585957D01*
X149612084Y-141566182D01*
X149609161Y-141562931D01*
X149602810Y-141553951D01*
X149597957Y-141541847D01*
X149594403Y-141523841D01*
X149591946Y-141497153D01*
X149590385Y-141459003D01*
X149589518Y-141406614D01*
X149589146Y-141337206D01*
X149589067Y-141247999D01*
X149589083Y-141193266D01*
X149589275Y-141116169D01*
X149589860Y-141057223D01*
X149591051Y-141013636D01*
X149593064Y-140982617D01*
X149596112Y-140961375D01*
X149600409Y-140947118D01*
X149606172Y-140937055D01*
X149613612Y-140928394D01*
X149615293Y-140926609D01*
X149622832Y-140919365D01*
X149631850Y-140913723D01*
X149644984Y-140909483D01*
X149664872Y-140906444D01*
X149694151Y-140904406D01*
X149735458Y-140903170D01*
X149791431Y-140902535D01*
X149864707Y-140902300D01*
X149957923Y-140902266D01*
X150030713Y-140902303D01*
G36*
X149671915Y-148754772D02*
G01*
X149706481Y-148767636D01*
X149754826Y-148787395D01*
X149813825Y-148812619D01*
X149880355Y-148841881D01*
X149951291Y-148873750D01*
X150023507Y-148906799D01*
X150093880Y-148939599D01*
X150159285Y-148970720D01*
X150216597Y-148998735D01*
X150262692Y-149022214D01*
X150294446Y-149039728D01*
X150308733Y-149049849D01*
X150322102Y-149084257D01*
X150315741Y-149125954D01*
X150311044Y-149131319D01*
X150288893Y-149147148D01*
X150252132Y-149169350D01*
X150204415Y-149195767D01*
X150149393Y-149224240D01*
X149990150Y-149304014D01*
X150136742Y-149377201D01*
X150156032Y-149386897D01*
X150208380Y-149413875D01*
X150253170Y-149437904D01*
X150286154Y-149456668D01*
X150303089Y-149467854D01*
X150304332Y-149469000D01*
X150319619Y-149497121D01*
X150321302Y-149532183D01*
X150308733Y-149563224D01*
X150305884Y-149565650D01*
X150285259Y-149577910D01*
X150247708Y-149597648D01*
X150195880Y-149623552D01*
X150132423Y-149654315D01*
X150059985Y-149688625D01*
X149981216Y-149725175D01*
X149937093Y-149745415D01*
X149856365Y-149782188D01*
X149792687Y-149810645D01*
X149743752Y-149831669D01*
X149707257Y-149846146D01*
X149680895Y-149854961D01*
X149662361Y-149858996D01*
X149649352Y-149859138D01*
X149639561Y-149856270D01*
X149618678Y-149841613D01*
X149598377Y-149815010D01*
X149598035Y-149814255D01*
X149591034Y-149794665D01*
X149590504Y-149777210D01*
X149598478Y-149760298D01*
X149616989Y-149742337D01*
X149648071Y-149721737D01*
X149693756Y-149696905D01*
X149756078Y-149666250D01*
X149837071Y-149628180D01*
X149868454Y-149613546D01*
X149931638Y-149583797D01*
X149986244Y-149557703D01*
X150029290Y-149536708D01*
X150057793Y-149522261D01*
X150068770Y-149515809D01*
X150068189Y-149514450D01*
X150054242Y-149504458D01*
X150024704Y-149487167D01*
X149983087Y-149464570D01*
X149932903Y-149438662D01*
X149901414Y-149422689D01*
X149846061Y-149393739D01*
X149807044Y-149371251D01*
X149781566Y-149353035D01*
X149766831Y-149336904D01*
X149760042Y-149320670D01*
X149758400Y-149302143D01*
X149758875Y-149291640D01*
X149763082Y-149275524D01*
X149773946Y-149260210D01*
X149794219Y-149243612D01*
X149826654Y-149223643D01*
X149874004Y-149198217D01*
X149939022Y-149165248D01*
X149958277Y-149155515D01*
X150004946Y-149131057D01*
X150041109Y-149110822D01*
X150063497Y-149096689D01*
X150068845Y-149090540D01*
X150065573Y-149089173D01*
X150044664Y-149079798D01*
X150007725Y-149062938D01*
X149957874Y-149040021D01*
X149898226Y-149012480D01*
X149831898Y-148981745D01*
X149774677Y-148955030D01*
X149712688Y-148925407D01*
X149666949Y-148902336D01*
X149634908Y-148884357D01*
X149614014Y-148870010D01*
X149601718Y-148857834D01*
X149595466Y-148846368D01*
X149592574Y-148836958D01*
X149592425Y-148811853D01*
X149607768Y-148784710D01*
X149608753Y-148783410D01*
X149631388Y-148761326D01*
X149653613Y-148750277D01*
X149654253Y-148750231D01*
X149671915Y-148754772D01*
G37*
X149671915Y-148754772D02*
X149706481Y-148767636D01*
X149754826Y-148787395D01*
X149813825Y-148812619D01*
X149880355Y-148841881D01*
X149951291Y-148873750D01*
X150023507Y-148906799D01*
X150093880Y-148939599D01*
X150159285Y-148970720D01*
X150216597Y-148998735D01*
X150262692Y-149022214D01*
X150294446Y-149039728D01*
X150308733Y-149049849D01*
X150322102Y-149084257D01*
X150315741Y-149125954D01*
X150311044Y-149131319D01*
X150288893Y-149147148D01*
X150252132Y-149169350D01*
X150204415Y-149195767D01*
X150149393Y-149224240D01*
X149990150Y-149304014D01*
X150136742Y-149377201D01*
X150156032Y-149386897D01*
X150208380Y-149413875D01*
X150253170Y-149437904D01*
X150286154Y-149456668D01*
X150303089Y-149467854D01*
X150304332Y-149469000D01*
X150319619Y-149497121D01*
X150321302Y-149532183D01*
X150308733Y-149563224D01*
X150305884Y-149565650D01*
X150285259Y-149577910D01*
X150247708Y-149597648D01*
X150195880Y-149623552D01*
X150132423Y-149654315D01*
X150059985Y-149688625D01*
X149981216Y-149725175D01*
X149937093Y-149745415D01*
X149856365Y-149782188D01*
X149792687Y-149810645D01*
X149743752Y-149831669D01*
X149707257Y-149846146D01*
X149680895Y-149854961D01*
X149662361Y-149858996D01*
X149649352Y-149859138D01*
X149639561Y-149856270D01*
X149618678Y-149841613D01*
X149598377Y-149815010D01*
X149598035Y-149814255D01*
X149591034Y-149794665D01*
X149590504Y-149777210D01*
X149598478Y-149760298D01*
X149616989Y-149742337D01*
X149648071Y-149721737D01*
X149693756Y-149696905D01*
X149756078Y-149666250D01*
X149837071Y-149628180D01*
X149868454Y-149613546D01*
X149931638Y-149583797D01*
X149986244Y-149557703D01*
X150029290Y-149536708D01*
X150057793Y-149522261D01*
X150068770Y-149515809D01*
X150068189Y-149514450D01*
X150054242Y-149504458D01*
X150024704Y-149487167D01*
X149983087Y-149464570D01*
X149932903Y-149438662D01*
X149901414Y-149422689D01*
X149846061Y-149393739D01*
X149807044Y-149371251D01*
X149781566Y-149353035D01*
X149766831Y-149336904D01*
X149760042Y-149320670D01*
X149758400Y-149302143D01*
X149758875Y-149291640D01*
X149763082Y-149275524D01*
X149773946Y-149260210D01*
X149794219Y-149243612D01*
X149826654Y-149223643D01*
X149874004Y-149198217D01*
X149939022Y-149165248D01*
X149958277Y-149155515D01*
X150004946Y-149131057D01*
X150041109Y-149110822D01*
X150063497Y-149096689D01*
X150068845Y-149090540D01*
X150065573Y-149089173D01*
X150044664Y-149079798D01*
X150007725Y-149062938D01*
X149957874Y-149040021D01*
X149898226Y-149012480D01*
X149831898Y-148981745D01*
X149774677Y-148955030D01*
X149712688Y-148925407D01*
X149666949Y-148902336D01*
X149634908Y-148884357D01*
X149614014Y-148870010D01*
X149601718Y-148857834D01*
X149595466Y-148846368D01*
X149592574Y-148836958D01*
X149592425Y-148811853D01*
X149607768Y-148784710D01*
X149608753Y-148783410D01*
X149631388Y-148761326D01*
X149653613Y-148750277D01*
X149654253Y-148750231D01*
X149671915Y-148754772D01*
G36*
X149840232Y-141874048D02*
G01*
X149865029Y-141879840D01*
X149886699Y-141894647D01*
X149914049Y-141922620D01*
X149921378Y-141930598D01*
X149942281Y-141954308D01*
X149959251Y-141976702D01*
X149973205Y-142000735D01*
X149985056Y-142029363D01*
X149995720Y-142065540D01*
X150006111Y-142112220D01*
X150017146Y-142172359D01*
X150029738Y-142248910D01*
X150044804Y-142344829D01*
X150047838Y-142363192D01*
X150061458Y-142425522D01*
X150077192Y-142470740D01*
X150094263Y-142497024D01*
X150111897Y-142502553D01*
X150116168Y-142499932D01*
X150131233Y-142482000D01*
X150147867Y-142453874D01*
X150153857Y-142441074D01*
X150161050Y-142419776D01*
X150165827Y-142393390D01*
X150168646Y-142357546D01*
X150169964Y-142307872D01*
X150170237Y-142240000D01*
X150170164Y-142222215D01*
X150169053Y-142154594D01*
X150166828Y-142089655D01*
X150163762Y-142034030D01*
X150160127Y-141994349D01*
X150156059Y-141958838D01*
X150155276Y-141929585D01*
X150159876Y-141910685D01*
X150170551Y-141895571D01*
X150174144Y-141891915D01*
X150205918Y-141875573D01*
X150241572Y-141876893D01*
X150272190Y-141895850D01*
X150283796Y-141916220D01*
X150296491Y-141952204D01*
X150306541Y-141994628D01*
X150307140Y-141998078D01*
X150312356Y-142040748D01*
X150316730Y-142098134D01*
X150319818Y-142163151D01*
X150321177Y-142228711D01*
X150321218Y-142244943D01*
X150318741Y-142343256D01*
X150310735Y-142423308D01*
X150296203Y-142488487D01*
X150274149Y-142542183D01*
X150243576Y-142587784D01*
X150203486Y-142628677D01*
X150177259Y-142648798D01*
X150147712Y-142660424D01*
X150107995Y-142663333D01*
X150096026Y-142663192D01*
X150063345Y-142659319D01*
X150036819Y-142646935D01*
X150005971Y-142621770D01*
X149983831Y-142600558D01*
X149961285Y-142574162D01*
X149942917Y-142544445D01*
X149927661Y-142508215D01*
X149914449Y-142462283D01*
X149902214Y-142403456D01*
X149889889Y-142328544D01*
X149876406Y-142234355D01*
X149869396Y-142189043D01*
X149854837Y-142121089D01*
X149838337Y-142071953D01*
X149820439Y-142042386D01*
X149801685Y-142033136D01*
X149782615Y-142044952D01*
X149763771Y-142078584D01*
X149762557Y-142081630D01*
X149750479Y-142127989D01*
X149742279Y-142190639D01*
X149738119Y-142264073D01*
X149738161Y-142342783D01*
X149742569Y-142421261D01*
X149751505Y-142494000D01*
X149752154Y-142497927D01*
X149759861Y-142546743D01*
X149763473Y-142578995D01*
X149762876Y-142599992D01*
X149757954Y-142615046D01*
X149748596Y-142629466D01*
X149747725Y-142630636D01*
X149717351Y-142655153D01*
X149681850Y-142659946D01*
X149647269Y-142644140D01*
X149642813Y-142639594D01*
X149627673Y-142609980D01*
X149614550Y-142562998D01*
X149603750Y-142502694D01*
X149595581Y-142433112D01*
X149590351Y-142358297D01*
X149588367Y-142282294D01*
X149589936Y-142209147D01*
X149595366Y-142142900D01*
X149604964Y-142087600D01*
X149619825Y-142036717D01*
X149652958Y-141965405D01*
X149695640Y-141914248D01*
X149747705Y-141883425D01*
X149808983Y-141873111D01*
X149840232Y-141874048D01*
G37*
X149840232Y-141874048D02*
X149865029Y-141879840D01*
X149886699Y-141894647D01*
X149914049Y-141922620D01*
X149921378Y-141930598D01*
X149942281Y-141954308D01*
X149959251Y-141976702D01*
X149973205Y-142000735D01*
X149985056Y-142029363D01*
X149995720Y-142065540D01*
X150006111Y-142112220D01*
X150017146Y-142172359D01*
X150029738Y-142248910D01*
X150044804Y-142344829D01*
X150047838Y-142363192D01*
X150061458Y-142425522D01*
X150077192Y-142470740D01*
X150094263Y-142497024D01*
X150111897Y-142502553D01*
X150116168Y-142499932D01*
X150131233Y-142482000D01*
X150147867Y-142453874D01*
X150153857Y-142441074D01*
X150161050Y-142419776D01*
X150165827Y-142393390D01*
X150168646Y-142357546D01*
X150169964Y-142307872D01*
X150170237Y-142240000D01*
X150170164Y-142222215D01*
X150169053Y-142154594D01*
X150166828Y-142089655D01*
X150163762Y-142034030D01*
X150160127Y-141994349D01*
X150156059Y-141958838D01*
X150155276Y-141929585D01*
X150159876Y-141910685D01*
X150170551Y-141895571D01*
X150174144Y-141891915D01*
X150205918Y-141875573D01*
X150241572Y-141876893D01*
X150272190Y-141895850D01*
X150283796Y-141916220D01*
X150296491Y-141952204D01*
X150306541Y-141994628D01*
X150307140Y-141998078D01*
X150312356Y-142040748D01*
X150316730Y-142098134D01*
X150319818Y-142163151D01*
X150321177Y-142228711D01*
X150321218Y-142244943D01*
X150318741Y-142343256D01*
X150310735Y-142423308D01*
X150296203Y-142488487D01*
X150274149Y-142542183D01*
X150243576Y-142587784D01*
X150203486Y-142628677D01*
X150177259Y-142648798D01*
X150147712Y-142660424D01*
X150107995Y-142663333D01*
X150096026Y-142663192D01*
X150063345Y-142659319D01*
X150036819Y-142646935D01*
X150005971Y-142621770D01*
X149983831Y-142600558D01*
X149961285Y-142574162D01*
X149942917Y-142544445D01*
X149927661Y-142508215D01*
X149914449Y-142462283D01*
X149902214Y-142403456D01*
X149889889Y-142328544D01*
X149876406Y-142234355D01*
X149869396Y-142189043D01*
X149854837Y-142121089D01*
X149838337Y-142071953D01*
X149820439Y-142042386D01*
X149801685Y-142033136D01*
X149782615Y-142044952D01*
X149763771Y-142078584D01*
X149762557Y-142081630D01*
X149750479Y-142127989D01*
X149742279Y-142190639D01*
X149738119Y-142264073D01*
X149738161Y-142342783D01*
X149742569Y-142421261D01*
X149751505Y-142494000D01*
X149752154Y-142497927D01*
X149759861Y-142546743D01*
X149763473Y-142578995D01*
X149762876Y-142599992D01*
X149757954Y-142615046D01*
X149748596Y-142629466D01*
X149747725Y-142630636D01*
X149717351Y-142655153D01*
X149681850Y-142659946D01*
X149647269Y-142644140D01*
X149642813Y-142639594D01*
X149627673Y-142609980D01*
X149614550Y-142562998D01*
X149603750Y-142502694D01*
X149595581Y-142433112D01*
X149590351Y-142358297D01*
X149588367Y-142282294D01*
X149589936Y-142209147D01*
X149595366Y-142142900D01*
X149604964Y-142087600D01*
X149619825Y-142036717D01*
X149652958Y-141965405D01*
X149695640Y-141914248D01*
X149747705Y-141883425D01*
X149808983Y-141873111D01*
X149840232Y-141874048D01*
G36*
X147141325Y-144732449D02*
G01*
X147342581Y-144749209D01*
X147537128Y-144782708D01*
X147720756Y-144832956D01*
X147838053Y-144876810D01*
X148000951Y-144954652D01*
X148154866Y-145048172D01*
X148296671Y-145155178D01*
X148423239Y-145273481D01*
X148531441Y-145400889D01*
X148584120Y-145478394D01*
X148653750Y-145605275D01*
X148712468Y-145742757D01*
X148757587Y-145884284D01*
X148786422Y-146023298D01*
X148788106Y-146037403D01*
X148791434Y-146080847D01*
X148794275Y-146138277D01*
X148796373Y-146203878D01*
X148797468Y-146271833D01*
X148795140Y-146398622D01*
X148782136Y-146546327D01*
X148757133Y-146684221D01*
X148719318Y-146817986D01*
X148710889Y-146841438D01*
X148691408Y-146889388D01*
X148666473Y-146945860D01*
X148637722Y-147007621D01*
X148606790Y-147071437D01*
X148575315Y-147134074D01*
X148544934Y-147192297D01*
X148517283Y-147242873D01*
X148493999Y-147282567D01*
X148476718Y-147308146D01*
X148467079Y-147316375D01*
X148463984Y-147314924D01*
X148444079Y-147303750D01*
X148408420Y-147282866D01*
X148359459Y-147253735D01*
X148299646Y-147217819D01*
X148231433Y-147176580D01*
X148157271Y-147131483D01*
X147860008Y-146950215D01*
X147904539Y-146903685D01*
X147982865Y-146812277D01*
X148057439Y-146698666D01*
X148111474Y-146580878D01*
X148144290Y-146460441D01*
X148155211Y-146338883D01*
X148153868Y-146297415D01*
X148135612Y-146179920D01*
X148096617Y-146069911D01*
X148037670Y-145968570D01*
X147959557Y-145877079D01*
X147863064Y-145796620D01*
X147748978Y-145728373D01*
X147714724Y-145712092D01*
X147591240Y-145666018D01*
X147452918Y-145630894D01*
X147303561Y-145606803D01*
X147146973Y-145593827D01*
X146986956Y-145592051D01*
X146827314Y-145601557D01*
X146671850Y-145622428D01*
X146524366Y-145654748D01*
X146388667Y-145698601D01*
X146302076Y-145736018D01*
X146188688Y-145800815D01*
X146095070Y-145876228D01*
X146020959Y-145962582D01*
X145966094Y-146060205D01*
X145930212Y-146169423D01*
X145913051Y-146290561D01*
X145911880Y-146359962D01*
X145926141Y-146482832D01*
X145961241Y-146598336D01*
X146016682Y-146705047D01*
X146091964Y-146801536D01*
X146106440Y-146817280D01*
X146132962Y-146847850D01*
X146150138Y-146870191D01*
X146154787Y-146880309D01*
X146152597Y-146882294D01*
X146133721Y-146896759D01*
X146100397Y-146920600D01*
X146055380Y-146951971D01*
X146001425Y-146989026D01*
X145941285Y-147029917D01*
X145877718Y-147072798D01*
X145813476Y-147115822D01*
X145751315Y-147157143D01*
X145693991Y-147194914D01*
X145644257Y-147227288D01*
X145604868Y-147252418D01*
X145578580Y-147268458D01*
X145568147Y-147273561D01*
X145563941Y-147268950D01*
X145558933Y-147249733D01*
X145556386Y-147240162D01*
X145545249Y-147212191D01*
X145526802Y-147170552D01*
X145502725Y-147119005D01*
X145474699Y-147061310D01*
X145469154Y-147050043D01*
X145389889Y-146872313D01*
X145330385Y-146702510D01*
X145290245Y-146538570D01*
X145269071Y-146378429D01*
X145266466Y-146220023D01*
X145282033Y-146061289D01*
X145299523Y-145965732D01*
X145344564Y-145801442D01*
X145407656Y-145647411D01*
X145489915Y-145501491D01*
X145592457Y-145361534D01*
X145716399Y-145225392D01*
X145761661Y-145181527D01*
X145893865Y-145069242D01*
X146031832Y-144976028D01*
X146179750Y-144899281D01*
X146341803Y-144836397D01*
X146353391Y-144832580D01*
X146539392Y-144782493D01*
X146735521Y-144749101D01*
X146937568Y-144732416D01*
X147141325Y-144732449D01*
G37*
X147141325Y-144732449D02*
X147342581Y-144749209D01*
X147537128Y-144782708D01*
X147720756Y-144832956D01*
X147838053Y-144876810D01*
X148000951Y-144954652D01*
X148154866Y-145048172D01*
X148296671Y-145155178D01*
X148423239Y-145273481D01*
X148531441Y-145400889D01*
X148584120Y-145478394D01*
X148653750Y-145605275D01*
X148712468Y-145742757D01*
X148757587Y-145884284D01*
X148786422Y-146023298D01*
X148788106Y-146037403D01*
X148791434Y-146080847D01*
X148794275Y-146138277D01*
X148796373Y-146203878D01*
X148797468Y-146271833D01*
X148795140Y-146398622D01*
X148782136Y-146546327D01*
X148757133Y-146684221D01*
X148719318Y-146817986D01*
X148710889Y-146841438D01*
X148691408Y-146889388D01*
X148666473Y-146945860D01*
X148637722Y-147007621D01*
X148606790Y-147071437D01*
X148575315Y-147134074D01*
X148544934Y-147192297D01*
X148517283Y-147242873D01*
X148493999Y-147282567D01*
X148476718Y-147308146D01*
X148467079Y-147316375D01*
X148463984Y-147314924D01*
X148444079Y-147303750D01*
X148408420Y-147282866D01*
X148359459Y-147253735D01*
X148299646Y-147217819D01*
X148231433Y-147176580D01*
X148157271Y-147131483D01*
X147860008Y-146950215D01*
X147904539Y-146903685D01*
X147982865Y-146812277D01*
X148057439Y-146698666D01*
X148111474Y-146580878D01*
X148144290Y-146460441D01*
X148155211Y-146338883D01*
X148153868Y-146297415D01*
X148135612Y-146179920D01*
X148096617Y-146069911D01*
X148037670Y-145968570D01*
X147959557Y-145877079D01*
X147863064Y-145796620D01*
X147748978Y-145728373D01*
X147714724Y-145712092D01*
X147591240Y-145666018D01*
X147452918Y-145630894D01*
X147303561Y-145606803D01*
X147146973Y-145593827D01*
X146986956Y-145592051D01*
X146827314Y-145601557D01*
X146671850Y-145622428D01*
X146524366Y-145654748D01*
X146388667Y-145698601D01*
X146302076Y-145736018D01*
X146188688Y-145800815D01*
X146095070Y-145876228D01*
X146020959Y-145962582D01*
X145966094Y-146060205D01*
X145930212Y-146169423D01*
X145913051Y-146290561D01*
X145911880Y-146359962D01*
X145926141Y-146482832D01*
X145961241Y-146598336D01*
X146016682Y-146705047D01*
X146091964Y-146801536D01*
X146106440Y-146817280D01*
X146132962Y-146847850D01*
X146150138Y-146870191D01*
X146154787Y-146880309D01*
X146152597Y-146882294D01*
X146133721Y-146896759D01*
X146100397Y-146920600D01*
X146055380Y-146951971D01*
X146001425Y-146989026D01*
X145941285Y-147029917D01*
X145877718Y-147072798D01*
X145813476Y-147115822D01*
X145751315Y-147157143D01*
X145693991Y-147194914D01*
X145644257Y-147227288D01*
X145604868Y-147252418D01*
X145578580Y-147268458D01*
X145568147Y-147273561D01*
X145563941Y-147268950D01*
X145558933Y-147249733D01*
X145556386Y-147240162D01*
X145545249Y-147212191D01*
X145526802Y-147170552D01*
X145502725Y-147119005D01*
X145474699Y-147061310D01*
X145469154Y-147050043D01*
X145389889Y-146872313D01*
X145330385Y-146702510D01*
X145290245Y-146538570D01*
X145269071Y-146378429D01*
X145266466Y-146220023D01*
X145282033Y-146061289D01*
X145299523Y-145965732D01*
X145344564Y-145801442D01*
X145407656Y-145647411D01*
X145489915Y-145501491D01*
X145592457Y-145361534D01*
X145716399Y-145225392D01*
X145761661Y-145181527D01*
X145893865Y-145069242D01*
X146031832Y-144976028D01*
X146179750Y-144899281D01*
X146341803Y-144836397D01*
X146353391Y-144832580D01*
X146539392Y-144782493D01*
X146735521Y-144749101D01*
X146937568Y-144732416D01*
X147141325Y-144732449D01*
G36*
X147505934Y-149866100D02*
G01*
X147562711Y-149864006D01*
X147640158Y-149864732D01*
X147791594Y-149873311D01*
X147928283Y-149892167D01*
X148054276Y-149922163D01*
X148173625Y-149964164D01*
X148290381Y-150019031D01*
X148401179Y-150085833D01*
X148514739Y-150176637D01*
X148610211Y-150280292D01*
X148687073Y-150396113D01*
X148744797Y-150523414D01*
X148782858Y-150661511D01*
X148788666Y-150699207D01*
X148794396Y-150778248D01*
X148794583Y-150866371D01*
X148789539Y-150955764D01*
X148779578Y-151038616D01*
X148765012Y-151107113D01*
X148755364Y-151137965D01*
X148725123Y-151215270D01*
X148687617Y-151292321D01*
X148646614Y-151361800D01*
X148605879Y-151416385D01*
X148586505Y-151439084D01*
X148568662Y-151461799D01*
X148561778Y-151473221D01*
X148563424Y-151474463D01*
X148581205Y-151477272D01*
X148614370Y-151479224D01*
X148657733Y-151479955D01*
X148753689Y-151479955D01*
X148753689Y-152338104D01*
X148692974Y-152303839D01*
X148683868Y-152298645D01*
X148669249Y-152290285D01*
X148655173Y-152282712D01*
X148640540Y-152275888D01*
X148624249Y-152269773D01*
X148605198Y-152264327D01*
X148582286Y-152259513D01*
X148554413Y-152255292D01*
X148520478Y-152251623D01*
X148479379Y-152248469D01*
X148430015Y-152245789D01*
X148371286Y-152243546D01*
X148302090Y-152241701D01*
X148221326Y-152240213D01*
X148127894Y-152239045D01*
X148020692Y-152238156D01*
X147898620Y-152237509D01*
X147760576Y-152237064D01*
X147605459Y-152236782D01*
X147432168Y-152236625D01*
X147239603Y-152236552D01*
X147026662Y-152236526D01*
X146792245Y-152236507D01*
X145107378Y-152236311D01*
X145107378Y-151330983D01*
X145144067Y-151355415D01*
X145153647Y-151361682D01*
X145199981Y-151387792D01*
X145247102Y-151405531D01*
X145302251Y-151417092D01*
X145372667Y-151424669D01*
X145379650Y-151425161D01*
X145417641Y-151426938D01*
X145471576Y-151428556D01*
X145538703Y-151430001D01*
X145616271Y-151431260D01*
X145701528Y-151432320D01*
X145791724Y-151433171D01*
X145884107Y-151433797D01*
X145975925Y-151434188D01*
X146064427Y-151434330D01*
X146146862Y-151434210D01*
X146220479Y-151433817D01*
X146282526Y-151433138D01*
X146330251Y-151432159D01*
X146360904Y-151430868D01*
X146371733Y-151429253D01*
X146367333Y-151421043D01*
X146352362Y-151399353D01*
X146330448Y-151369986D01*
X146296236Y-151321121D01*
X146249714Y-151232875D01*
X146216046Y-151134084D01*
X146213231Y-151119557D01*
X146767465Y-151119557D01*
X146779389Y-151204681D01*
X146806040Y-151288867D01*
X146846962Y-151367392D01*
X146890530Y-151434800D01*
X148040721Y-151434800D01*
X148087089Y-151364244D01*
X148110791Y-151323583D01*
X148136639Y-151269454D01*
X148154829Y-151220311D01*
X148170551Y-151156835D01*
X148181541Y-151060669D01*
X148173365Y-150976100D01*
X148145805Y-150902781D01*
X148098642Y-150840363D01*
X148031658Y-150788498D01*
X147944633Y-150746840D01*
X147837350Y-150715038D01*
X147825009Y-150712455D01*
X147763772Y-150704000D01*
X147686692Y-150698337D01*
X147599002Y-150695424D01*
X147505934Y-150695217D01*
X147412720Y-150697670D01*
X147324594Y-150702739D01*
X147246788Y-150710381D01*
X147184533Y-150720552D01*
X147178666Y-150721833D01*
X147068121Y-150750874D01*
X146977575Y-150785390D01*
X146904953Y-150826544D01*
X146848181Y-150875501D01*
X146805184Y-150933426D01*
X146789615Y-150965380D01*
X146770722Y-151038216D01*
X146767465Y-151119557D01*
X146213231Y-151119557D01*
X146194231Y-151021490D01*
X146183265Y-150891836D01*
X146182219Y-150799330D01*
X146192014Y-150677989D01*
X146216174Y-150567901D01*
X146255785Y-150464611D01*
X146311932Y-150363662D01*
X146342883Y-150318497D01*
X146434115Y-150213089D01*
X146543106Y-150121462D01*
X146669726Y-150043668D01*
X146813845Y-149979759D01*
X146975332Y-149929786D01*
X147154059Y-149893802D01*
X147349895Y-149871857D01*
X147505934Y-149866100D01*
G37*
X147505934Y-149866100D02*
X147562711Y-149864006D01*
X147640158Y-149864732D01*
X147791594Y-149873311D01*
X147928283Y-149892167D01*
X148054276Y-149922163D01*
X148173625Y-149964164D01*
X148290381Y-150019031D01*
X148401179Y-150085833D01*
X148514739Y-150176637D01*
X148610211Y-150280292D01*
X148687073Y-150396113D01*
X148744797Y-150523414D01*
X148782858Y-150661511D01*
X148788666Y-150699207D01*
X148794396Y-150778248D01*
X148794583Y-150866371D01*
X148789539Y-150955764D01*
X148779578Y-151038616D01*
X148765012Y-151107113D01*
X148755364Y-151137965D01*
X148725123Y-151215270D01*
X148687617Y-151292321D01*
X148646614Y-151361800D01*
X148605879Y-151416385D01*
X148586505Y-151439084D01*
X148568662Y-151461799D01*
X148561778Y-151473221D01*
X148563424Y-151474463D01*
X148581205Y-151477272D01*
X148614370Y-151479224D01*
X148657733Y-151479955D01*
X148753689Y-151479955D01*
X148753689Y-152338104D01*
X148692974Y-152303839D01*
X148683868Y-152298645D01*
X148669249Y-152290285D01*
X148655173Y-152282712D01*
X148640540Y-152275888D01*
X148624249Y-152269773D01*
X148605198Y-152264327D01*
X148582286Y-152259513D01*
X148554413Y-152255292D01*
X148520478Y-152251623D01*
X148479379Y-152248469D01*
X148430015Y-152245789D01*
X148371286Y-152243546D01*
X148302090Y-152241701D01*
X148221326Y-152240213D01*
X148127894Y-152239045D01*
X148020692Y-152238156D01*
X147898620Y-152237509D01*
X147760576Y-152237064D01*
X147605459Y-152236782D01*
X147432168Y-152236625D01*
X147239603Y-152236552D01*
X147026662Y-152236526D01*
X146792245Y-152236507D01*
X145107378Y-152236311D01*
X145107378Y-151330983D01*
X145144067Y-151355415D01*
X145153647Y-151361682D01*
X145199981Y-151387792D01*
X145247102Y-151405531D01*
X145302251Y-151417092D01*
X145372667Y-151424669D01*
X145379650Y-151425161D01*
X145417641Y-151426938D01*
X145471576Y-151428556D01*
X145538703Y-151430001D01*
X145616271Y-151431260D01*
X145701528Y-151432320D01*
X145791724Y-151433171D01*
X145884107Y-151433797D01*
X145975925Y-151434188D01*
X146064427Y-151434330D01*
X146146862Y-151434210D01*
X146220479Y-151433817D01*
X146282526Y-151433138D01*
X146330251Y-151432159D01*
X146360904Y-151430868D01*
X146371733Y-151429253D01*
X146367333Y-151421043D01*
X146352362Y-151399353D01*
X146330448Y-151369986D01*
X146296236Y-151321121D01*
X146249714Y-151232875D01*
X146216046Y-151134084D01*
X146213231Y-151119557D01*
X146767465Y-151119557D01*
X146779389Y-151204681D01*
X146806040Y-151288867D01*
X146846962Y-151367392D01*
X146890530Y-151434800D01*
X148040721Y-151434800D01*
X148087089Y-151364244D01*
X148110791Y-151323583D01*
X148136639Y-151269454D01*
X148154829Y-151220311D01*
X148170551Y-151156835D01*
X148181541Y-151060669D01*
X148173365Y-150976100D01*
X148145805Y-150902781D01*
X148098642Y-150840363D01*
X148031658Y-150788498D01*
X147944633Y-150746840D01*
X147837350Y-150715038D01*
X147825009Y-150712455D01*
X147763772Y-150704000D01*
X147686692Y-150698337D01*
X147599002Y-150695424D01*
X147505934Y-150695217D01*
X147412720Y-150697670D01*
X147324594Y-150702739D01*
X147246788Y-150710381D01*
X147184533Y-150720552D01*
X147178666Y-150721833D01*
X147068121Y-150750874D01*
X146977575Y-150785390D01*
X146904953Y-150826544D01*
X146848181Y-150875501D01*
X146805184Y-150933426D01*
X146789615Y-150965380D01*
X146770722Y-151038216D01*
X146767465Y-151119557D01*
X146213231Y-151119557D01*
X146194231Y-151021490D01*
X146183265Y-150891836D01*
X146182219Y-150799330D01*
X146192014Y-150677989D01*
X146216174Y-150567901D01*
X146255785Y-150464611D01*
X146311932Y-150363662D01*
X146342883Y-150318497D01*
X146434115Y-150213089D01*
X146543106Y-150121462D01*
X146669726Y-150043668D01*
X146813845Y-149979759D01*
X146975332Y-149929786D01*
X147154059Y-149893802D01*
X147349895Y-149871857D01*
X147505934Y-149866100D01*
G36*
X147960282Y-147322310D02*
G01*
X147963467Y-147322245D01*
X147997363Y-147322739D01*
X148072202Y-147326368D01*
X148134401Y-147333978D01*
X148190984Y-147346312D01*
X148317076Y-147390687D01*
X148431679Y-147453600D01*
X148532568Y-147533762D01*
X148618924Y-147630260D01*
X148689932Y-147742178D01*
X148744776Y-147868603D01*
X148782638Y-148008622D01*
X148788351Y-148044851D01*
X148794313Y-148123845D01*
X148794646Y-148212159D01*
X148789659Y-148301925D01*
X148779666Y-148385278D01*
X148764978Y-148454349D01*
X148734749Y-148540813D01*
X148680057Y-148650714D01*
X148612543Y-148748044D01*
X148561556Y-148810133D01*
X148657622Y-148813395D01*
X148753689Y-148816657D01*
X148753689Y-149239550D01*
X148753686Y-149250457D01*
X148753380Y-149344944D01*
X148752616Y-149431669D01*
X148751451Y-149508163D01*
X148749942Y-149571957D01*
X148748147Y-149620582D01*
X148746121Y-149651567D01*
X148743922Y-149662444D01*
X148743463Y-149662422D01*
X148727910Y-149655386D01*
X148705071Y-149639566D01*
X148699638Y-149635266D01*
X148685606Y-149624223D01*
X148672186Y-149614689D01*
X148657722Y-149606539D01*
X148640556Y-149599648D01*
X148619034Y-149593889D01*
X148591498Y-149589138D01*
X148556292Y-149585269D01*
X148511760Y-149582156D01*
X148456246Y-149579675D01*
X148388093Y-149577700D01*
X148305645Y-149576106D01*
X148207246Y-149574766D01*
X148091239Y-149573556D01*
X147955968Y-149572351D01*
X147799778Y-149571025D01*
X147657012Y-149569772D01*
X147511942Y-149568349D01*
X147386027Y-149566824D01*
X147277436Y-149565067D01*
X147184334Y-149562949D01*
X147104891Y-149560340D01*
X147037273Y-149557110D01*
X146979649Y-149553131D01*
X146930185Y-149548272D01*
X146887050Y-149542403D01*
X146848410Y-149535396D01*
X146812434Y-149527120D01*
X146777289Y-149517446D01*
X146741142Y-149506244D01*
X146702161Y-149493384D01*
X146659091Y-149477910D01*
X146566871Y-149435006D01*
X146487099Y-149381265D01*
X146412965Y-149312424D01*
X146349405Y-149234815D01*
X146287725Y-149130239D01*
X146240202Y-149010756D01*
X146206567Y-148875492D01*
X146186552Y-148723574D01*
X146179889Y-148554128D01*
X146180287Y-148496110D01*
X146182335Y-148430602D01*
X146186704Y-148369307D01*
X146194035Y-148307903D01*
X146204969Y-148242068D01*
X146220147Y-148167480D01*
X146240209Y-148079816D01*
X146265797Y-147974755D01*
X146272820Y-147946194D01*
X146290776Y-147870946D01*
X146306820Y-147800612D01*
X146320028Y-147739433D01*
X146329474Y-147691646D01*
X146334231Y-147661489D01*
X146337910Y-147633217D01*
X146343187Y-147606940D01*
X146347942Y-147596941D01*
X146356781Y-147600048D01*
X146384072Y-147610806D01*
X146426906Y-147628136D01*
X146482425Y-147650874D01*
X146547772Y-147677853D01*
X146620089Y-147707910D01*
X146635879Y-147714507D01*
X146726484Y-147753093D01*
X146796217Y-147784232D01*
X146845405Y-147808083D01*
X146874374Y-147824802D01*
X146883452Y-147834546D01*
X146881405Y-147842234D01*
X146871760Y-147868585D01*
X146856190Y-147907018D01*
X146836815Y-147952178D01*
X146798814Y-148046707D01*
X146757780Y-148183520D01*
X146732612Y-148324711D01*
X146728611Y-148362686D01*
X146726447Y-148465941D01*
X146739622Y-148553048D01*
X146768756Y-148624871D01*
X146814466Y-148682269D01*
X146877372Y-148726104D01*
X146958092Y-148757238D01*
X147057245Y-148776530D01*
X147116224Y-148783950D01*
X147109445Y-148622064D01*
X147109110Y-148596106D01*
X147631842Y-148596106D01*
X147631857Y-148604993D01*
X147632655Y-148660340D01*
X147634488Y-148707264D01*
X147637111Y-148741047D01*
X147640274Y-148756972D01*
X147646741Y-148761057D01*
X147668875Y-148765428D01*
X147707988Y-148768396D01*
X147765939Y-148770086D01*
X147844586Y-148770622D01*
X148040462Y-148770622D01*
X148096973Y-148725952D01*
X148112212Y-148713215D01*
X148154844Y-148666396D01*
X148190672Y-148605745D01*
X148195850Y-148595103D01*
X148212745Y-148556324D01*
X148222909Y-148521308D01*
X148228325Y-148481278D01*
X148230978Y-148427459D01*
X148231383Y-148409352D01*
X148228540Y-148333989D01*
X148216620Y-148273257D01*
X148194037Y-148221548D01*
X148159211Y-148173254D01*
X148154798Y-148168197D01*
X148099160Y-148119728D01*
X148035333Y-148091541D01*
X147960282Y-148082248D01*
X147888693Y-148089480D01*
X147825645Y-148114204D01*
X147767758Y-148158751D01*
X147720808Y-148213681D01*
X147680961Y-148286106D01*
X147653263Y-148372660D01*
X147637096Y-148475330D01*
X147631842Y-148596106D01*
X147109110Y-148596106D01*
X147107813Y-148495505D01*
X147114194Y-148344049D01*
X147128777Y-148195604D01*
X147150882Y-148059422D01*
X147165821Y-147994755D01*
X147208741Y-147862510D01*
X147265340Y-147740238D01*
X147334017Y-147630315D01*
X147413170Y-147535117D01*
X147501196Y-147457020D01*
X147596493Y-147398401D01*
X147648864Y-147374405D01*
X147719590Y-147348768D01*
X147790812Y-147332522D01*
X147869712Y-147324178D01*
X147960282Y-147322310D01*
G37*
X147960282Y-147322310D02*
X147963467Y-147322245D01*
X147997363Y-147322739D01*
X148072202Y-147326368D01*
X148134401Y-147333978D01*
X148190984Y-147346312D01*
X148317076Y-147390687D01*
X148431679Y-147453600D01*
X148532568Y-147533762D01*
X148618924Y-147630260D01*
X148689932Y-147742178D01*
X148744776Y-147868603D01*
X148782638Y-148008622D01*
X148788351Y-148044851D01*
X148794313Y-148123845D01*
X148794646Y-148212159D01*
X148789659Y-148301925D01*
X148779666Y-148385278D01*
X148764978Y-148454349D01*
X148734749Y-148540813D01*
X148680057Y-148650714D01*
X148612543Y-148748044D01*
X148561556Y-148810133D01*
X148657622Y-148813395D01*
X148753689Y-148816657D01*
X148753689Y-149239550D01*
X148753686Y-149250457D01*
X148753380Y-149344944D01*
X148752616Y-149431669D01*
X148751451Y-149508163D01*
X148749942Y-149571957D01*
X148748147Y-149620582D01*
X148746121Y-149651567D01*
X148743922Y-149662444D01*
X148743463Y-149662422D01*
X148727910Y-149655386D01*
X148705071Y-149639566D01*
X148699638Y-149635266D01*
X148685606Y-149624223D01*
X148672186Y-149614689D01*
X148657722Y-149606539D01*
X148640556Y-149599648D01*
X148619034Y-149593889D01*
X148591498Y-149589138D01*
X148556292Y-149585269D01*
X148511760Y-149582156D01*
X148456246Y-149579675D01*
X148388093Y-149577700D01*
X148305645Y-149576106D01*
X148207246Y-149574766D01*
X148091239Y-149573556D01*
X147955968Y-149572351D01*
X147799778Y-149571025D01*
X147657012Y-149569772D01*
X147511942Y-149568349D01*
X147386027Y-149566824D01*
X147277436Y-149565067D01*
X147184334Y-149562949D01*
X147104891Y-149560340D01*
X147037273Y-149557110D01*
X146979649Y-149553131D01*
X146930185Y-149548272D01*
X146887050Y-149542403D01*
X146848410Y-149535396D01*
X146812434Y-149527120D01*
X146777289Y-149517446D01*
X146741142Y-149506244D01*
X146702161Y-149493384D01*
X146659091Y-149477910D01*
X146566871Y-149435006D01*
X146487099Y-149381265D01*
X146412965Y-149312424D01*
X146349405Y-149234815D01*
X146287725Y-149130239D01*
X146240202Y-149010756D01*
X146206567Y-148875492D01*
X146186552Y-148723574D01*
X146179889Y-148554128D01*
X146180287Y-148496110D01*
X146182335Y-148430602D01*
X146186704Y-148369307D01*
X146194035Y-148307903D01*
X146204969Y-148242068D01*
X146220147Y-148167480D01*
X146240209Y-148079816D01*
X146265797Y-147974755D01*
X146272820Y-147946194D01*
X146290776Y-147870946D01*
X146306820Y-147800612D01*
X146320028Y-147739433D01*
X146329474Y-147691646D01*
X146334231Y-147661489D01*
X146337910Y-147633217D01*
X146343187Y-147606940D01*
X146347942Y-147596941D01*
X146356781Y-147600048D01*
X146384072Y-147610806D01*
X146426906Y-147628136D01*
X146482425Y-147650874D01*
X146547772Y-147677853D01*
X146620089Y-147707910D01*
X146635879Y-147714507D01*
X146726484Y-147753093D01*
X146796217Y-147784232D01*
X146845405Y-147808083D01*
X146874374Y-147824802D01*
X146883452Y-147834546D01*
X146881405Y-147842234D01*
X146871760Y-147868585D01*
X146856190Y-147907018D01*
X146836815Y-147952178D01*
X146798814Y-148046707D01*
X146757780Y-148183520D01*
X146732612Y-148324711D01*
X146728611Y-148362686D01*
X146726447Y-148465941D01*
X146739622Y-148553048D01*
X146768756Y-148624871D01*
X146814466Y-148682269D01*
X146877372Y-148726104D01*
X146958092Y-148757238D01*
X147057245Y-148776530D01*
X147116224Y-148783950D01*
X147109445Y-148622064D01*
X147109110Y-148596106D01*
X147631842Y-148596106D01*
X147631857Y-148604993D01*
X147632655Y-148660340D01*
X147634488Y-148707264D01*
X147637111Y-148741047D01*
X147640274Y-148756972D01*
X147646741Y-148761057D01*
X147668875Y-148765428D01*
X147707988Y-148768396D01*
X147765939Y-148770086D01*
X147844586Y-148770622D01*
X148040462Y-148770622D01*
X148096973Y-148725952D01*
X148112212Y-148713215D01*
X148154844Y-148666396D01*
X148190672Y-148605745D01*
X148195850Y-148595103D01*
X148212745Y-148556324D01*
X148222909Y-148521308D01*
X148228325Y-148481278D01*
X148230978Y-148427459D01*
X148231383Y-148409352D01*
X148228540Y-148333989D01*
X148216620Y-148273257D01*
X148194037Y-148221548D01*
X148159211Y-148173254D01*
X148154798Y-148168197D01*
X148099160Y-148119728D01*
X148035333Y-148091541D01*
X147960282Y-148082248D01*
X147888693Y-148089480D01*
X147825645Y-148114204D01*
X147767758Y-148158751D01*
X147720808Y-148213681D01*
X147680961Y-148286106D01*
X147653263Y-148372660D01*
X147637096Y-148475330D01*
X147631842Y-148596106D01*
X147109110Y-148596106D01*
X147107813Y-148495505D01*
X147114194Y-148344049D01*
X147128777Y-148195604D01*
X147150882Y-148059422D01*
X147165821Y-147994755D01*
X147208741Y-147862510D01*
X147265340Y-147740238D01*
X147334017Y-147630315D01*
X147413170Y-147535117D01*
X147501196Y-147457020D01*
X147596493Y-147398401D01*
X147648864Y-147374405D01*
X147719590Y-147348768D01*
X147790812Y-147332522D01*
X147869712Y-147324178D01*
X147960282Y-147322310D01*
G36*
X145321867Y-139774966D02*
G01*
X145431792Y-139774386D01*
X145563011Y-139773941D01*
X145710216Y-139773638D01*
X145874349Y-139773452D01*
X146056352Y-139773358D01*
X146257165Y-139773329D01*
X146477732Y-139773339D01*
X146718992Y-139773364D01*
X146981889Y-139773378D01*
X147024040Y-139773378D01*
X147284668Y-139773354D01*
X147523796Y-139773315D01*
X147742360Y-139773292D01*
X147941295Y-139773313D01*
X148121535Y-139773407D01*
X148284015Y-139773605D01*
X148429670Y-139773937D01*
X148559434Y-139774431D01*
X148674243Y-139775117D01*
X148775030Y-139776024D01*
X148862730Y-139777183D01*
X148938279Y-139778622D01*
X149002611Y-139780371D01*
X149056661Y-139782460D01*
X149101363Y-139784917D01*
X149137652Y-139787773D01*
X149166463Y-139791057D01*
X149188731Y-139794798D01*
X149205390Y-139799026D01*
X149217375Y-139803771D01*
X149225621Y-139809061D01*
X149231062Y-139814927D01*
X149234634Y-139821398D01*
X149237270Y-139828503D01*
X149239906Y-139836272D01*
X149243477Y-139844734D01*
X149245145Y-139849092D01*
X149247111Y-139857605D01*
X149248911Y-139870306D01*
X149250555Y-139888115D01*
X149252047Y-139911951D01*
X149253397Y-139942734D01*
X149254611Y-139981383D01*
X149255697Y-140028818D01*
X149256661Y-140085957D01*
X149257511Y-140153721D01*
X149258253Y-140233029D01*
X149258897Y-140324801D01*
X149259447Y-140429956D01*
X149259913Y-140549413D01*
X149260300Y-140684092D01*
X149260616Y-140834912D01*
X149260869Y-141002794D01*
X149261066Y-141188655D01*
X149261213Y-141393417D01*
X149261318Y-141617998D01*
X149261389Y-141863318D01*
X149261432Y-142130296D01*
X149261437Y-142168679D01*
X149261480Y-142434078D01*
X149261525Y-142677950D01*
X149261548Y-142901217D01*
X149261524Y-143104804D01*
X149261430Y-143289633D01*
X149261243Y-143456627D01*
X149260939Y-143606710D01*
X149260494Y-143740804D01*
X149259885Y-143859834D01*
X149259089Y-143964721D01*
X149258080Y-144056390D01*
X149256837Y-144135763D01*
X149255335Y-144203763D01*
X149253551Y-144261314D01*
X149251461Y-144309338D01*
X149249042Y-144348760D01*
X149246270Y-144380501D01*
X149243121Y-144405486D01*
X149239572Y-144424636D01*
X149235598Y-144438877D01*
X149231178Y-144449129D01*
X149226286Y-144456318D01*
X149220900Y-144461365D01*
X149214996Y-144465195D01*
X149208549Y-144468729D01*
X149201537Y-144472892D01*
X149199687Y-144473975D01*
X149194180Y-144476187D01*
X149185868Y-144478214D01*
X149173809Y-144480062D01*
X149157063Y-144481739D01*
X149134687Y-144483255D01*
X149105740Y-144484617D01*
X149069280Y-144485833D01*
X149024367Y-144486911D01*
X148970057Y-144487860D01*
X148905410Y-144488688D01*
X148829484Y-144489403D01*
X148741338Y-144490013D01*
X148640029Y-144490526D01*
X148524617Y-144490950D01*
X148394160Y-144491294D01*
X148247716Y-144491566D01*
X148084344Y-144491773D01*
X147903101Y-144491924D01*
X147703048Y-144492028D01*
X147483241Y-144492092D01*
X147242739Y-144492124D01*
X146980602Y-144492133D01*
X144789031Y-144492133D01*
X144750649Y-144453751D01*
X144726911Y-144426645D01*
X144715111Y-144399747D01*
X144712267Y-144363440D01*
X144712267Y-144311511D01*
X144800206Y-144311511D01*
X144850102Y-144309573D01*
X144960523Y-144290801D01*
X145061987Y-144253783D01*
X145153152Y-144200631D01*
X145232673Y-144133454D01*
X145254249Y-144107805D01*
X146224978Y-144107805D01*
X147401845Y-144110880D01*
X148578711Y-144113955D01*
X148637622Y-144140593D01*
X148662183Y-144152515D01*
X148692434Y-144169754D01*
X148709560Y-144182926D01*
X148717591Y-144190924D01*
X148732493Y-144198622D01*
X148733765Y-144194740D01*
X148735791Y-144171480D01*
X148737626Y-144129126D01*
X148739227Y-144069868D01*
X148740549Y-143995893D01*
X148741548Y-143909390D01*
X148742180Y-143812548D01*
X148742400Y-143707555D01*
X148742349Y-143638644D01*
X148742091Y-143540393D01*
X148741637Y-143450970D01*
X148741010Y-143372667D01*
X148740235Y-143307777D01*
X148739335Y-143258589D01*
X148738334Y-143227396D01*
X148737257Y-143216489D01*
X148734037Y-143217678D01*
X148716452Y-143227824D01*
X148690158Y-143244960D01*
X148677691Y-143253460D01*
X148663622Y-143262671D01*
X148649351Y-143270767D01*
X148633479Y-143277815D01*
X148614609Y-143283883D01*
X148591341Y-143289039D01*
X148562278Y-143293349D01*
X148526021Y-143296881D01*
X148481170Y-143299703D01*
X148426328Y-143301882D01*
X148360097Y-143303486D01*
X148281077Y-143304581D01*
X148187871Y-143305235D01*
X148079079Y-143305516D01*
X147953303Y-143305491D01*
X147809145Y-143305228D01*
X147645207Y-143304794D01*
X147460089Y-143304255D01*
X147281232Y-143303721D01*
X147122374Y-143303195D01*
X146983316Y-143302650D01*
X146862665Y-143302055D01*
X146759028Y-143301381D01*
X146671011Y-143300597D01*
X146597223Y-143299674D01*
X146536269Y-143298581D01*
X146486757Y-143297288D01*
X146447293Y-143295765D01*
X146416484Y-143293981D01*
X146392938Y-143291908D01*
X146375260Y-143289514D01*
X146362059Y-143286770D01*
X146351940Y-143283644D01*
X146343511Y-143280108D01*
X146335375Y-143276209D01*
X146298544Y-143256562D01*
X146268391Y-143237775D01*
X146266908Y-143236728D01*
X146244659Y-143222398D01*
X146231702Y-143216489D01*
X146231249Y-143217496D01*
X146229803Y-143234695D01*
X146228480Y-143271344D01*
X146227316Y-143325038D01*
X146226347Y-143393370D01*
X146225611Y-143473936D01*
X146225142Y-143564330D01*
X146224978Y-143662147D01*
X146224978Y-144107805D01*
X145254249Y-144107805D01*
X145299205Y-144054362D01*
X145351406Y-143965466D01*
X145387930Y-143868875D01*
X145407434Y-143766700D01*
X145408573Y-143661050D01*
X145390005Y-143554036D01*
X145350384Y-143447768D01*
X145292516Y-143350781D01*
X145217684Y-143265707D01*
X145129615Y-143196985D01*
X145030616Y-143146082D01*
X144922993Y-143114465D01*
X144809054Y-143103600D01*
X144712267Y-143103600D01*
X144712267Y-141483247D01*
X144712280Y-141272103D01*
X144712330Y-141067980D01*
X144712430Y-140884314D01*
X144712592Y-140720009D01*
X144712829Y-140573971D01*
X144713153Y-140445106D01*
X144713575Y-140332317D01*
X144714109Y-140234512D01*
X144714767Y-140150596D01*
X144715561Y-140079473D01*
X144715588Y-140077803D01*
X145321867Y-140077803D01*
X145321867Y-141137686D01*
X145384966Y-141099689D01*
X145410005Y-141085007D01*
X145437586Y-141070469D01*
X145465700Y-141058373D01*
X145496551Y-141048468D01*
X145532344Y-141040506D01*
X145575283Y-141034239D01*
X145627574Y-141029418D01*
X145691419Y-141025794D01*
X145769025Y-141023119D01*
X145862594Y-141021143D01*
X145974333Y-141019618D01*
X146106445Y-141018296D01*
X146226434Y-141017387D01*
X146343063Y-141016980D01*
X146438531Y-141017233D01*
X146512556Y-141018143D01*
X146564855Y-141019707D01*
X146595149Y-141021921D01*
X146603156Y-141024780D01*
X146599858Y-141027839D01*
X146578408Y-141045994D01*
X146541889Y-141075725D01*
X146492442Y-141115361D01*
X146432207Y-141163229D01*
X146363327Y-141217657D01*
X146287943Y-141276973D01*
X146208196Y-141339505D01*
X146126228Y-141403579D01*
X146044180Y-141467525D01*
X145964194Y-141529669D01*
X145888411Y-141588339D01*
X145818973Y-141641863D01*
X145758021Y-141688570D01*
X145707696Y-141726786D01*
X145670140Y-141754839D01*
X145647495Y-141771057D01*
X145575212Y-141816365D01*
X145495463Y-141856339D01*
X145427188Y-141877870D01*
X145369844Y-141881173D01*
X145321867Y-141875884D01*
X145322117Y-143007644D01*
X145352722Y-142968133D01*
X145360089Y-142958752D01*
X145414438Y-142895817D01*
X145482259Y-142827003D01*
X145565516Y-142750404D01*
X145666178Y-142664112D01*
X145686847Y-142646948D01*
X145736409Y-142606167D01*
X145797326Y-142556412D01*
X145867898Y-142499045D01*
X145946424Y-142435431D01*
X146031204Y-142366931D01*
X146120537Y-142294910D01*
X146212722Y-142220730D01*
X146231702Y-142205483D01*
X146306060Y-142145754D01*
X146398848Y-142071347D01*
X146489388Y-141998869D01*
X146575978Y-141929686D01*
X146656918Y-141865159D01*
X146730506Y-141806653D01*
X146795044Y-141755530D01*
X146848829Y-141713153D01*
X146890162Y-141680885D01*
X146917342Y-141660090D01*
X146928668Y-141652131D01*
X146932771Y-141653889D01*
X146953334Y-141666770D01*
X146989561Y-141691115D01*
X147039824Y-141725753D01*
X147102492Y-141769514D01*
X147175936Y-141821225D01*
X147258527Y-141879716D01*
X147348636Y-141943816D01*
X147444631Y-142012354D01*
X147544885Y-142084157D01*
X147647768Y-142158056D01*
X147751650Y-142232879D01*
X147854901Y-142307455D01*
X147955892Y-142380613D01*
X148052994Y-142451181D01*
X148144577Y-142517989D01*
X148229011Y-142579865D01*
X148304667Y-142635639D01*
X148369916Y-142684138D01*
X148423128Y-142724193D01*
X148462673Y-142754631D01*
X148488026Y-142775056D01*
X148542295Y-142821101D01*
X148598775Y-142871388D01*
X148648669Y-142918185D01*
X148742400Y-143009349D01*
X148742400Y-141854910D01*
X148666200Y-141855544D01*
X148624160Y-141854426D01*
X148588334Y-141848696D01*
X148550772Y-141836110D01*
X148502577Y-141814432D01*
X148495897Y-141811211D01*
X148446359Y-141785812D01*
X148398369Y-141759004D01*
X148361466Y-141736083D01*
X148354834Y-141731515D01*
X148323593Y-141709484D01*
X148278654Y-141677307D01*
X148222147Y-141636543D01*
X148156204Y-141588755D01*
X148082957Y-141535502D01*
X148004536Y-141478345D01*
X147923072Y-141418845D01*
X147840698Y-141358563D01*
X147759544Y-141299060D01*
X147681742Y-141241895D01*
X147609423Y-141188630D01*
X147544718Y-141140826D01*
X147489759Y-141100043D01*
X147446676Y-141067842D01*
X147417602Y-141045784D01*
X147404667Y-141035429D01*
X147400351Y-141030956D01*
X147398312Y-141026764D01*
X147400926Y-141023357D01*
X147409986Y-141020675D01*
X147427285Y-141018659D01*
X147454614Y-141017252D01*
X147493765Y-141016395D01*
X147546533Y-141016030D01*
X147614707Y-141016097D01*
X147700082Y-141016540D01*
X147804449Y-141017298D01*
X147929600Y-141018315D01*
X147974300Y-141018692D01*
X148095395Y-141019831D01*
X148196688Y-141021028D01*
X148280262Y-141022364D01*
X148348204Y-141023923D01*
X148402599Y-141025785D01*
X148445532Y-141028034D01*
X148479089Y-141030752D01*
X148505355Y-141034021D01*
X148526416Y-141037922D01*
X148544357Y-141042539D01*
X148570770Y-141050808D01*
X148632772Y-141074417D01*
X148685573Y-141100315D01*
X148722645Y-141125465D01*
X148724075Y-141126661D01*
X148728424Y-141128832D01*
X148732026Y-141126672D01*
X148734951Y-141118356D01*
X148737269Y-141102060D01*
X148739051Y-141075959D01*
X148740367Y-141038229D01*
X148741286Y-140987044D01*
X148741878Y-140920580D01*
X148742215Y-140837013D01*
X148742365Y-140734517D01*
X148742400Y-140611268D01*
X148742400Y-140079704D01*
X148684783Y-140118477D01*
X148675893Y-140124568D01*
X148661069Y-140135024D01*
X148647422Y-140144421D01*
X148633765Y-140152817D01*
X148618911Y-140160267D01*
X148601670Y-140166827D01*
X148580855Y-140172554D01*
X148555280Y-140177505D01*
X148523755Y-140181734D01*
X148485093Y-140185299D01*
X148438107Y-140188256D01*
X148381608Y-140190660D01*
X148314409Y-140192569D01*
X148235322Y-140194038D01*
X148143160Y-140195124D01*
X148036734Y-140195882D01*
X147914857Y-140196370D01*
X147776341Y-140196642D01*
X147619999Y-140196757D01*
X147444642Y-140196769D01*
X147249082Y-140196735D01*
X147032133Y-140196711D01*
X146909513Y-140196720D01*
X146704447Y-140196757D01*
X146520116Y-140196773D01*
X146355334Y-140196712D01*
X146208916Y-140196516D01*
X146079674Y-140196130D01*
X145966422Y-140195495D01*
X145867975Y-140194556D01*
X145783144Y-140193255D01*
X145710744Y-140191536D01*
X145649589Y-140189341D01*
X145598492Y-140186615D01*
X145556267Y-140183299D01*
X145521727Y-140179338D01*
X145493686Y-140174675D01*
X145470958Y-140169253D01*
X145452356Y-140163014D01*
X145436693Y-140155903D01*
X145422784Y-140147862D01*
X145409441Y-140138834D01*
X145395479Y-140128764D01*
X145379711Y-140117593D01*
X145321867Y-140077803D01*
X144715588Y-140077803D01*
X144716504Y-140020050D01*
X144717608Y-139971232D01*
X144718884Y-139931923D01*
X144720347Y-139901031D01*
X144722007Y-139877459D01*
X144723878Y-139860114D01*
X144725972Y-139847901D01*
X144728300Y-139839725D01*
X144730876Y-139834492D01*
X144734445Y-139828496D01*
X144737978Y-139821721D01*
X144741488Y-139815522D01*
X144745918Y-139809874D01*
X144752208Y-139804753D01*
X144761301Y-139800131D01*
X144774139Y-139795985D01*
X144791662Y-139792287D01*
X144814813Y-139789013D01*
X144844534Y-139786137D01*
X144881765Y-139783633D01*
X144927449Y-139781476D01*
X144982527Y-139779640D01*
X145047941Y-139778100D01*
X145124633Y-139776830D01*
X145213544Y-139775805D01*
X145315617Y-139774999D01*
X145321867Y-139774966D01*
G37*
X145321867Y-139774966D02*
X145431792Y-139774386D01*
X145563011Y-139773941D01*
X145710216Y-139773638D01*
X145874349Y-139773452D01*
X146056352Y-139773358D01*
X146257165Y-139773329D01*
X146477732Y-139773339D01*
X146718992Y-139773364D01*
X146981889Y-139773378D01*
X147024040Y-139773378D01*
X147284668Y-139773354D01*
X147523796Y-139773315D01*
X147742360Y-139773292D01*
X147941295Y-139773313D01*
X148121535Y-139773407D01*
X148284015Y-139773605D01*
X148429670Y-139773937D01*
X148559434Y-139774431D01*
X148674243Y-139775117D01*
X148775030Y-139776024D01*
X148862730Y-139777183D01*
X148938279Y-139778622D01*
X149002611Y-139780371D01*
X149056661Y-139782460D01*
X149101363Y-139784917D01*
X149137652Y-139787773D01*
X149166463Y-139791057D01*
X149188731Y-139794798D01*
X149205390Y-139799026D01*
X149217375Y-139803771D01*
X149225621Y-139809061D01*
X149231062Y-139814927D01*
X149234634Y-139821398D01*
X149237270Y-139828503D01*
X149239906Y-139836272D01*
X149243477Y-139844734D01*
X149245145Y-139849092D01*
X149247111Y-139857605D01*
X149248911Y-139870306D01*
X149250555Y-139888115D01*
X149252047Y-139911951D01*
X149253397Y-139942734D01*
X149254611Y-139981383D01*
X149255697Y-140028818D01*
X149256661Y-140085957D01*
X149257511Y-140153721D01*
X149258253Y-140233029D01*
X149258897Y-140324801D01*
X149259447Y-140429956D01*
X149259913Y-140549413D01*
X149260300Y-140684092D01*
X149260616Y-140834912D01*
X149260869Y-141002794D01*
X149261066Y-141188655D01*
X149261213Y-141393417D01*
X149261318Y-141617998D01*
X149261389Y-141863318D01*
X149261432Y-142130296D01*
X149261437Y-142168679D01*
X149261480Y-142434078D01*
X149261525Y-142677950D01*
X149261548Y-142901217D01*
X149261524Y-143104804D01*
X149261430Y-143289633D01*
X149261243Y-143456627D01*
X149260939Y-143606710D01*
X149260494Y-143740804D01*
X149259885Y-143859834D01*
X149259089Y-143964721D01*
X149258080Y-144056390D01*
X149256837Y-144135763D01*
X149255335Y-144203763D01*
X149253551Y-144261314D01*
X149251461Y-144309338D01*
X149249042Y-144348760D01*
X149246270Y-144380501D01*
X149243121Y-144405486D01*
X149239572Y-144424636D01*
X149235598Y-144438877D01*
X149231178Y-144449129D01*
X149226286Y-144456318D01*
X149220900Y-144461365D01*
X149214996Y-144465195D01*
X149208549Y-144468729D01*
X149201537Y-144472892D01*
X149199687Y-144473975D01*
X149194180Y-144476187D01*
X149185868Y-144478214D01*
X149173809Y-144480062D01*
X149157063Y-144481739D01*
X149134687Y-144483255D01*
X149105740Y-144484617D01*
X149069280Y-144485833D01*
X149024367Y-144486911D01*
X148970057Y-144487860D01*
X148905410Y-144488688D01*
X148829484Y-144489403D01*
X148741338Y-144490013D01*
X148640029Y-144490526D01*
X148524617Y-144490950D01*
X148394160Y-144491294D01*
X148247716Y-144491566D01*
X148084344Y-144491773D01*
X147903101Y-144491924D01*
X147703048Y-144492028D01*
X147483241Y-144492092D01*
X147242739Y-144492124D01*
X146980602Y-144492133D01*
X144789031Y-144492133D01*
X144750649Y-144453751D01*
X144726911Y-144426645D01*
X144715111Y-144399747D01*
X144712267Y-144363440D01*
X144712267Y-144311511D01*
X144800206Y-144311511D01*
X144850102Y-144309573D01*
X144960523Y-144290801D01*
X145061987Y-144253783D01*
X145153152Y-144200631D01*
X145232673Y-144133454D01*
X145254249Y-144107805D01*
X146224978Y-144107805D01*
X147401845Y-144110880D01*
X148578711Y-144113955D01*
X148637622Y-144140593D01*
X148662183Y-144152515D01*
X148692434Y-144169754D01*
X148709560Y-144182926D01*
X148717591Y-144190924D01*
X148732493Y-144198622D01*
X148733765Y-144194740D01*
X148735791Y-144171480D01*
X148737626Y-144129126D01*
X148739227Y-144069868D01*
X148740549Y-143995893D01*
X148741548Y-143909390D01*
X148742180Y-143812548D01*
X148742400Y-143707555D01*
X148742349Y-143638644D01*
X148742091Y-143540393D01*
X148741637Y-143450970D01*
X148741010Y-143372667D01*
X148740235Y-143307777D01*
X148739335Y-143258589D01*
X148738334Y-143227396D01*
X148737257Y-143216489D01*
X148734037Y-143217678D01*
X148716452Y-143227824D01*
X148690158Y-143244960D01*
X148677691Y-143253460D01*
X148663622Y-143262671D01*
X148649351Y-143270767D01*
X148633479Y-143277815D01*
X148614609Y-143283883D01*
X148591341Y-143289039D01*
X148562278Y-143293349D01*
X148526021Y-143296881D01*
X148481170Y-143299703D01*
X148426328Y-143301882D01*
X148360097Y-143303486D01*
X148281077Y-143304581D01*
X148187871Y-143305235D01*
X148079079Y-143305516D01*
X147953303Y-143305491D01*
X147809145Y-143305228D01*
X147645207Y-143304794D01*
X147460089Y-143304255D01*
X147281232Y-143303721D01*
X147122374Y-143303195D01*
X146983316Y-143302650D01*
X146862665Y-143302055D01*
X146759028Y-143301381D01*
X146671011Y-143300597D01*
X146597223Y-143299674D01*
X146536269Y-143298581D01*
X146486757Y-143297288D01*
X146447293Y-143295765D01*
X146416484Y-143293981D01*
X146392938Y-143291908D01*
X146375260Y-143289514D01*
X146362059Y-143286770D01*
X146351940Y-143283644D01*
X146343511Y-143280108D01*
X146335375Y-143276209D01*
X146298544Y-143256562D01*
X146268391Y-143237775D01*
X146266908Y-143236728D01*
X146244659Y-143222398D01*
X146231702Y-143216489D01*
X146231249Y-143217496D01*
X146229803Y-143234695D01*
X146228480Y-143271344D01*
X146227316Y-143325038D01*
X146226347Y-143393370D01*
X146225611Y-143473936D01*
X146225142Y-143564330D01*
X146224978Y-143662147D01*
X146224978Y-144107805D01*
X145254249Y-144107805D01*
X145299205Y-144054362D01*
X145351406Y-143965466D01*
X145387930Y-143868875D01*
X145407434Y-143766700D01*
X145408573Y-143661050D01*
X145390005Y-143554036D01*
X145350384Y-143447768D01*
X145292516Y-143350781D01*
X145217684Y-143265707D01*
X145129615Y-143196985D01*
X145030616Y-143146082D01*
X144922993Y-143114465D01*
X144809054Y-143103600D01*
X144712267Y-143103600D01*
X144712267Y-141483247D01*
X144712280Y-141272103D01*
X144712330Y-141067980D01*
X144712430Y-140884314D01*
X144712592Y-140720009D01*
X144712829Y-140573971D01*
X144713153Y-140445106D01*
X144713575Y-140332317D01*
X144714109Y-140234512D01*
X144714767Y-140150596D01*
X144715561Y-140079473D01*
X144715588Y-140077803D01*
X145321867Y-140077803D01*
X145321867Y-141137686D01*
X145384966Y-141099689D01*
X145410005Y-141085007D01*
X145437586Y-141070469D01*
X145465700Y-141058373D01*
X145496551Y-141048468D01*
X145532344Y-141040506D01*
X145575283Y-141034239D01*
X145627574Y-141029418D01*
X145691419Y-141025794D01*
X145769025Y-141023119D01*
X145862594Y-141021143D01*
X145974333Y-141019618D01*
X146106445Y-141018296D01*
X146226434Y-141017387D01*
X146343063Y-141016980D01*
X146438531Y-141017233D01*
X146512556Y-141018143D01*
X146564855Y-141019707D01*
X146595149Y-141021921D01*
X146603156Y-141024780D01*
X146599858Y-141027839D01*
X146578408Y-141045994D01*
X146541889Y-141075725D01*
X146492442Y-141115361D01*
X146432207Y-141163229D01*
X146363327Y-141217657D01*
X146287943Y-141276973D01*
X146208196Y-141339505D01*
X146126228Y-141403579D01*
X146044180Y-141467525D01*
X145964194Y-141529669D01*
X145888411Y-141588339D01*
X145818973Y-141641863D01*
X145758021Y-141688570D01*
X145707696Y-141726786D01*
X145670140Y-141754839D01*
X145647495Y-141771057D01*
X145575212Y-141816365D01*
X145495463Y-141856339D01*
X145427188Y-141877870D01*
X145369844Y-141881173D01*
X145321867Y-141875884D01*
X145322117Y-143007644D01*
X145352722Y-142968133D01*
X145360089Y-142958752D01*
X145414438Y-142895817D01*
X145482259Y-142827003D01*
X145565516Y-142750404D01*
X145666178Y-142664112D01*
X145686847Y-142646948D01*
X145736409Y-142606167D01*
X145797326Y-142556412D01*
X145867898Y-142499045D01*
X145946424Y-142435431D01*
X146031204Y-142366931D01*
X146120537Y-142294910D01*
X146212722Y-142220730D01*
X146231702Y-142205483D01*
X146306060Y-142145754D01*
X146398848Y-142071347D01*
X146489388Y-141998869D01*
X146575978Y-141929686D01*
X146656918Y-141865159D01*
X146730506Y-141806653D01*
X146795044Y-141755530D01*
X146848829Y-141713153D01*
X146890162Y-141680885D01*
X146917342Y-141660090D01*
X146928668Y-141652131D01*
X146932771Y-141653889D01*
X146953334Y-141666770D01*
X146989561Y-141691115D01*
X147039824Y-141725753D01*
X147102492Y-141769514D01*
X147175936Y-141821225D01*
X147258527Y-141879716D01*
X147348636Y-141943816D01*
X147444631Y-142012354D01*
X147544885Y-142084157D01*
X147647768Y-142158056D01*
X147751650Y-142232879D01*
X147854901Y-142307455D01*
X147955892Y-142380613D01*
X148052994Y-142451181D01*
X148144577Y-142517989D01*
X148229011Y-142579865D01*
X148304667Y-142635639D01*
X148369916Y-142684138D01*
X148423128Y-142724193D01*
X148462673Y-142754631D01*
X148488026Y-142775056D01*
X148542295Y-142821101D01*
X148598775Y-142871388D01*
X148648669Y-142918185D01*
X148742400Y-143009349D01*
X148742400Y-141854910D01*
X148666200Y-141855544D01*
X148624160Y-141854426D01*
X148588334Y-141848696D01*
X148550772Y-141836110D01*
X148502577Y-141814432D01*
X148495897Y-141811211D01*
X148446359Y-141785812D01*
X148398369Y-141759004D01*
X148361466Y-141736083D01*
X148354834Y-141731515D01*
X148323593Y-141709484D01*
X148278654Y-141677307D01*
X148222147Y-141636543D01*
X148156204Y-141588755D01*
X148082957Y-141535502D01*
X148004536Y-141478345D01*
X147923072Y-141418845D01*
X147840698Y-141358563D01*
X147759544Y-141299060D01*
X147681742Y-141241895D01*
X147609423Y-141188630D01*
X147544718Y-141140826D01*
X147489759Y-141100043D01*
X147446676Y-141067842D01*
X147417602Y-141045784D01*
X147404667Y-141035429D01*
X147400351Y-141030956D01*
X147398312Y-141026764D01*
X147400926Y-141023357D01*
X147409986Y-141020675D01*
X147427285Y-141018659D01*
X147454614Y-141017252D01*
X147493765Y-141016395D01*
X147546533Y-141016030D01*
X147614707Y-141016097D01*
X147700082Y-141016540D01*
X147804449Y-141017298D01*
X147929600Y-141018315D01*
X147974300Y-141018692D01*
X148095395Y-141019831D01*
X148196688Y-141021028D01*
X148280262Y-141022364D01*
X148348204Y-141023923D01*
X148402599Y-141025785D01*
X148445532Y-141028034D01*
X148479089Y-141030752D01*
X148505355Y-141034021D01*
X148526416Y-141037922D01*
X148544357Y-141042539D01*
X148570770Y-141050808D01*
X148632772Y-141074417D01*
X148685573Y-141100315D01*
X148722645Y-141125465D01*
X148724075Y-141126661D01*
X148728424Y-141128832D01*
X148732026Y-141126672D01*
X148734951Y-141118356D01*
X148737269Y-141102060D01*
X148739051Y-141075959D01*
X148740367Y-141038229D01*
X148741286Y-140987044D01*
X148741878Y-140920580D01*
X148742215Y-140837013D01*
X148742365Y-140734517D01*
X148742400Y-140611268D01*
X148742400Y-140079704D01*
X148684783Y-140118477D01*
X148675893Y-140124568D01*
X148661069Y-140135024D01*
X148647422Y-140144421D01*
X148633765Y-140152817D01*
X148618911Y-140160267D01*
X148601670Y-140166827D01*
X148580855Y-140172554D01*
X148555280Y-140177505D01*
X148523755Y-140181734D01*
X148485093Y-140185299D01*
X148438107Y-140188256D01*
X148381608Y-140190660D01*
X148314409Y-140192569D01*
X148235322Y-140194038D01*
X148143160Y-140195124D01*
X148036734Y-140195882D01*
X147914857Y-140196370D01*
X147776341Y-140196642D01*
X147619999Y-140196757D01*
X147444642Y-140196769D01*
X147249082Y-140196735D01*
X147032133Y-140196711D01*
X146909513Y-140196720D01*
X146704447Y-140196757D01*
X146520116Y-140196773D01*
X146355334Y-140196712D01*
X146208916Y-140196516D01*
X146079674Y-140196130D01*
X145966422Y-140195495D01*
X145867975Y-140194556D01*
X145783144Y-140193255D01*
X145710744Y-140191536D01*
X145649589Y-140189341D01*
X145598492Y-140186615D01*
X145556267Y-140183299D01*
X145521727Y-140179338D01*
X145493686Y-140174675D01*
X145470958Y-140169253D01*
X145452356Y-140163014D01*
X145436693Y-140155903D01*
X145422784Y-140147862D01*
X145409441Y-140138834D01*
X145395479Y-140128764D01*
X145379711Y-140117593D01*
X145321867Y-140077803D01*
X144715588Y-140077803D01*
X144716504Y-140020050D01*
X144717608Y-139971232D01*
X144718884Y-139931923D01*
X144720347Y-139901031D01*
X144722007Y-139877459D01*
X144723878Y-139860114D01*
X144725972Y-139847901D01*
X144728300Y-139839725D01*
X144730876Y-139834492D01*
X144734445Y-139828496D01*
X144737978Y-139821721D01*
X144741488Y-139815522D01*
X144745918Y-139809874D01*
X144752208Y-139804753D01*
X144761301Y-139800131D01*
X144774139Y-139795985D01*
X144791662Y-139792287D01*
X144814813Y-139789013D01*
X144844534Y-139786137D01*
X144881765Y-139783633D01*
X144927449Y-139781476D01*
X144982527Y-139779640D01*
X145047941Y-139778100D01*
X145124633Y-139776830D01*
X145213544Y-139775805D01*
X145315617Y-139774999D01*
X145321867Y-139774966D01*
%TD*%
M02*
